G04 #@! TF.GenerationSoftware,KiCad,Pcbnew,(6.0.6)*
G04 #@! TF.CreationDate,2023-01-14T11:23:39-07:00*
G04 #@! TF.ProjectId,PFCBoard,50464342-6f61-4726-942e-6b696361645f,rev?*
G04 #@! TF.SameCoordinates,Original*
G04 #@! TF.FileFunction,Legend,Top*
G04 #@! TF.FilePolarity,Positive*
%FSLAX46Y46*%
G04 Gerber Fmt 4.6, Leading zero omitted, Abs format (unit mm)*
G04 Created by KiCad (PCBNEW (6.0.6)) date 2023-01-14 11:23:39*
%MOMM*%
%LPD*%
G01*
G04 APERTURE LIST*
%ADD10C,0.203200*%
%ADD11C,0.300000*%
%ADD12C,0.150000*%
%ADD13C,0.254000*%
%ADD14C,0.120000*%
%ADD15C,0.100000*%
G04 APERTURE END LIST*
D10*
X176372371Y-87038571D02*
X176039038Y-86324285D01*
X175800942Y-87038571D02*
X175800942Y-85538571D01*
X176181895Y-85538571D01*
X176277133Y-85610000D01*
X176324752Y-85681428D01*
X176372371Y-85824285D01*
X176372371Y-86038571D01*
X176324752Y-86181428D01*
X176277133Y-86252857D01*
X176181895Y-86324285D01*
X175800942Y-86324285D01*
X177181896Y-86967142D02*
X177086658Y-87038571D01*
X176896181Y-87038571D01*
X176800943Y-86967142D01*
X176753324Y-86824285D01*
X176753324Y-86252857D01*
X176800943Y-86110000D01*
X176896181Y-86038571D01*
X177086658Y-86038571D01*
X177181896Y-86110000D01*
X177229515Y-86252857D01*
X177229515Y-86395714D01*
X176753324Y-86538571D01*
X177562849Y-86038571D02*
X177800944Y-87038571D01*
X178039040Y-86038571D01*
X179705708Y-87038571D02*
X179134279Y-87038571D01*
X179419994Y-87038571D02*
X179419994Y-85538571D01*
X179324755Y-85752857D01*
X179229517Y-85895714D01*
X179134279Y-85967142D01*
X180134280Y-86895714D02*
X180181899Y-86967142D01*
X180134280Y-87038571D01*
X180086661Y-86967142D01*
X180134280Y-86895714D01*
X180134280Y-87038571D01*
X180800947Y-85538571D02*
X180896185Y-85538571D01*
X180991424Y-85610000D01*
X181039043Y-85681428D01*
X181086662Y-85824285D01*
X181134281Y-86110000D01*
X181134281Y-86467142D01*
X181086662Y-86752857D01*
X181039043Y-86895714D01*
X180991424Y-86967142D01*
X180896185Y-87038571D01*
X180800947Y-87038571D01*
X180705709Y-86967142D01*
X180658090Y-86895714D01*
X180610471Y-86752857D01*
X180562852Y-86467142D01*
X180562852Y-86110000D01*
X180610471Y-85824285D01*
X180658090Y-85681428D01*
X180705709Y-85610000D01*
X180800947Y-85538571D01*
X182658092Y-86252857D02*
X182800949Y-86324285D01*
X182848568Y-86395714D01*
X182896187Y-86538571D01*
X182896187Y-86752857D01*
X182848568Y-86895714D01*
X182800949Y-86967142D01*
X182705711Y-87038571D01*
X182324758Y-87038571D01*
X182324758Y-85538571D01*
X182658092Y-85538571D01*
X182753330Y-85610000D01*
X182800949Y-85681428D01*
X182848568Y-85824285D01*
X182848568Y-85967142D01*
X182800949Y-86110000D01*
X182753330Y-86181428D01*
X182658092Y-86252857D01*
X182324758Y-86252857D01*
X183229521Y-86038571D02*
X183467617Y-87038571D01*
X183705712Y-86038571D02*
X183467617Y-87038571D01*
X183372378Y-87395714D01*
X183324759Y-87467142D01*
X183229521Y-87538571D01*
X185277142Y-86038571D02*
X185277142Y-87038571D01*
X185039047Y-85467142D02*
X184800951Y-86538571D01*
X185420000Y-86538571D01*
X185943810Y-86181428D02*
X185848571Y-86110000D01*
X185800952Y-86038571D01*
X185753333Y-85895714D01*
X185753333Y-85824285D01*
X185800952Y-85681428D01*
X185848571Y-85610000D01*
X185943810Y-85538571D01*
X186134286Y-85538571D01*
X186229524Y-85610000D01*
X186277143Y-85681428D01*
X186324762Y-85824285D01*
X186324762Y-85895714D01*
X186277143Y-86038571D01*
X186229524Y-86110000D01*
X186134286Y-86181428D01*
X185943810Y-86181428D01*
X185848571Y-86252857D01*
X185800952Y-86324285D01*
X185753333Y-86467142D01*
X185753333Y-86752857D01*
X185800952Y-86895714D01*
X185848571Y-86967142D01*
X185943810Y-87038571D01*
X186134286Y-87038571D01*
X186229524Y-86967142D01*
X186277143Y-86895714D01*
X186324762Y-86752857D01*
X186324762Y-86467142D01*
X186277143Y-86324285D01*
X186229524Y-86252857D01*
X186134286Y-86181428D01*
X186753334Y-86038571D02*
X186753334Y-87538571D01*
X186753334Y-86110000D02*
X186848572Y-86038571D01*
X187039049Y-86038571D01*
X187134287Y-86110000D01*
X187181906Y-86181428D01*
X187229525Y-86324285D01*
X187229525Y-86752857D01*
X187181906Y-86895714D01*
X187134287Y-86967142D01*
X187039049Y-87038571D01*
X186848572Y-87038571D01*
X186753334Y-86967142D01*
X187658097Y-87038571D02*
X187658097Y-86038571D01*
X187658097Y-86324285D02*
X187705716Y-86181428D01*
X187753335Y-86110000D01*
X187848573Y-86038571D01*
X187943812Y-86038571D01*
X188420003Y-87038571D02*
X188324764Y-86967142D01*
X188277145Y-86895714D01*
X188229526Y-86752857D01*
X188229526Y-86324285D01*
X188277145Y-86181428D01*
X188324764Y-86110000D01*
X188420003Y-86038571D01*
X188562860Y-86038571D01*
X188658098Y-86110000D01*
X188705717Y-86181428D01*
X188753336Y-86324285D01*
X188753336Y-86752857D01*
X188705717Y-86895714D01*
X188658098Y-86967142D01*
X188562860Y-87038571D01*
X188420003Y-87038571D01*
X189610480Y-87038571D02*
X189610480Y-85538571D01*
X189610480Y-86967142D02*
X189515242Y-87038571D01*
X189324765Y-87038571D01*
X189229527Y-86967142D01*
X189181908Y-86895714D01*
X189134289Y-86752857D01*
X189134289Y-86324285D01*
X189181908Y-86181428D01*
X189229527Y-86110000D01*
X189324765Y-86038571D01*
X189515242Y-86038571D01*
X189610480Y-86110000D01*
X190515243Y-86038571D02*
X190515243Y-87038571D01*
X190086671Y-86038571D02*
X190086671Y-86824285D01*
X190134290Y-86967142D01*
X190229528Y-87038571D01*
X190372385Y-87038571D01*
X190467624Y-86967142D01*
X190515243Y-86895714D01*
X191420006Y-86967142D02*
X191324767Y-87038571D01*
X191134291Y-87038571D01*
X191039053Y-86967142D01*
X190991434Y-86895714D01*
X190943815Y-86752857D01*
X190943815Y-86324285D01*
X190991434Y-86181428D01*
X191039053Y-86110000D01*
X191134291Y-86038571D01*
X191324767Y-86038571D01*
X191420006Y-86110000D01*
X191705720Y-86038571D02*
X192086673Y-86038571D01*
X191848577Y-85538571D02*
X191848577Y-86824285D01*
X191896196Y-86967142D01*
X191991435Y-87038571D01*
X192086673Y-87038571D01*
X192420007Y-87038571D02*
X192420007Y-86038571D01*
X192420007Y-85538571D02*
X192372387Y-85610000D01*
X192420007Y-85681428D01*
X192467626Y-85610000D01*
X192420007Y-85538571D01*
X192420007Y-85681428D01*
X193039055Y-87038571D02*
X192943817Y-86967142D01*
X192896197Y-86895714D01*
X192848578Y-86752857D01*
X192848578Y-86324285D01*
X192896197Y-86181428D01*
X192943817Y-86110000D01*
X193039055Y-86038571D01*
X193181912Y-86038571D01*
X193277150Y-86110000D01*
X193324769Y-86181428D01*
X193372388Y-86324285D01*
X193372388Y-86752857D01*
X193324769Y-86895714D01*
X193277150Y-86967142D01*
X193181912Y-87038571D01*
X193039055Y-87038571D01*
X193800960Y-86038571D02*
X193800960Y-87038571D01*
X193800960Y-86181428D02*
X193848579Y-86110000D01*
X193943818Y-86038571D01*
X194086675Y-86038571D01*
X194181913Y-86110000D01*
X194229532Y-86252857D01*
X194229532Y-87038571D01*
X194658104Y-86967142D02*
X194753342Y-87038571D01*
X194943819Y-87038571D01*
X195039057Y-86967142D01*
X195086676Y-86824285D01*
X195086676Y-86752857D01*
X195039057Y-86610000D01*
X194943819Y-86538571D01*
X194800961Y-86538571D01*
X194705723Y-86467142D01*
X194658104Y-86324285D01*
X194658104Y-86252857D01*
X194705723Y-86110000D01*
X194800961Y-86038571D01*
X194943819Y-86038571D01*
X195039057Y-86110000D01*
D11*
X190580000Y-129011071D02*
X189722857Y-129011071D01*
X190151428Y-129011071D02*
X190151428Y-127511071D01*
X190008571Y-127725357D01*
X189865714Y-127868214D01*
X189722857Y-127939642D01*
X191508571Y-127511071D02*
X191651428Y-127511071D01*
X191794285Y-127582500D01*
X191865714Y-127653928D01*
X191937142Y-127796785D01*
X192008571Y-128082500D01*
X192008571Y-128439642D01*
X191937142Y-128725357D01*
X191865714Y-128868214D01*
X191794285Y-128939642D01*
X191651428Y-129011071D01*
X191508571Y-129011071D01*
X191365714Y-128939642D01*
X191294285Y-128868214D01*
X191222857Y-128725357D01*
X191151428Y-128439642D01*
X191151428Y-128082500D01*
X191222857Y-127796785D01*
X191294285Y-127653928D01*
X191365714Y-127582500D01*
X191508571Y-127511071D01*
X192651428Y-128439642D02*
X193794285Y-128439642D01*
X194365714Y-127511071D02*
X195294285Y-127511071D01*
X194794285Y-128082500D01*
X195008571Y-128082500D01*
X195151428Y-128153928D01*
X195222857Y-128225357D01*
X195294285Y-128368214D01*
X195294285Y-128725357D01*
X195222857Y-128868214D01*
X195151428Y-128939642D01*
X195008571Y-129011071D01*
X194580000Y-129011071D01*
X194437142Y-128939642D01*
X194365714Y-128868214D01*
X196222857Y-127511071D02*
X196365714Y-127511071D01*
X196508571Y-127582500D01*
X196580000Y-127653928D01*
X196651428Y-127796785D01*
X196722857Y-128082500D01*
X196722857Y-128439642D01*
X196651428Y-128725357D01*
X196580000Y-128868214D01*
X196508571Y-128939642D01*
X196365714Y-129011071D01*
X196222857Y-129011071D01*
X196080000Y-128939642D01*
X196008571Y-128868214D01*
X195937142Y-128725357D01*
X195865714Y-128439642D01*
X195865714Y-128082500D01*
X195937142Y-127796785D01*
X196008571Y-127653928D01*
X196080000Y-127582500D01*
X196222857Y-127511071D01*
X197151428Y-127511071D02*
X197651428Y-129011071D01*
X198151428Y-127511071D01*
X199794285Y-129011071D02*
X199794285Y-127511071D01*
X200508571Y-129011071D02*
X200508571Y-127511071D01*
X201365714Y-129011071D01*
X201365714Y-127511071D01*
X194651428Y-130854642D02*
X195794285Y-130854642D01*
X195222857Y-131426071D02*
X195222857Y-130283214D01*
X198794285Y-130854642D02*
X199937142Y-130854642D01*
X170134285Y-84498571D02*
X170134285Y-82998571D01*
X170705714Y-82998571D01*
X170848571Y-83070000D01*
X170920000Y-83141428D01*
X170991428Y-83284285D01*
X170991428Y-83498571D01*
X170920000Y-83641428D01*
X170848571Y-83712857D01*
X170705714Y-83784285D01*
X170134285Y-83784285D01*
X172205714Y-84427142D02*
X172062857Y-84498571D01*
X171777142Y-84498571D01*
X171634285Y-84427142D01*
X171562857Y-84284285D01*
X171562857Y-83712857D01*
X171634285Y-83570000D01*
X171777142Y-83498571D01*
X172062857Y-83498571D01*
X172205714Y-83570000D01*
X172277142Y-83712857D01*
X172277142Y-83855714D01*
X171562857Y-83998571D01*
X172920000Y-84498571D02*
X172920000Y-83498571D01*
X172920000Y-83784285D02*
X172991428Y-83641428D01*
X173062857Y-83570000D01*
X173205714Y-83498571D01*
X173348571Y-83498571D01*
X173848571Y-83498571D02*
X173848571Y-84998571D01*
X173848571Y-83570000D02*
X173991428Y-83498571D01*
X174277142Y-83498571D01*
X174420000Y-83570000D01*
X174491428Y-83641428D01*
X174562857Y-83784285D01*
X174562857Y-84212857D01*
X174491428Y-84355714D01*
X174420000Y-84427142D01*
X174277142Y-84498571D01*
X173991428Y-84498571D01*
X173848571Y-84427142D01*
X175777142Y-84427142D02*
X175634285Y-84498571D01*
X175348571Y-84498571D01*
X175205714Y-84427142D01*
X175134285Y-84284285D01*
X175134285Y-83712857D01*
X175205714Y-83570000D01*
X175348571Y-83498571D01*
X175634285Y-83498571D01*
X175777142Y-83570000D01*
X175848571Y-83712857D01*
X175848571Y-83855714D01*
X175134285Y-83998571D01*
X176277142Y-83498571D02*
X176848571Y-83498571D01*
X176491428Y-82998571D02*
X176491428Y-84284285D01*
X176562857Y-84427142D01*
X176705714Y-84498571D01*
X176848571Y-84498571D01*
X177991428Y-83498571D02*
X177991428Y-84498571D01*
X177348571Y-83498571D02*
X177348571Y-84284285D01*
X177420000Y-84427142D01*
X177562857Y-84498571D01*
X177777142Y-84498571D01*
X177920000Y-84427142D01*
X177991428Y-84355714D01*
X179348571Y-84498571D02*
X179348571Y-83712857D01*
X179277142Y-83570000D01*
X179134285Y-83498571D01*
X178848571Y-83498571D01*
X178705714Y-83570000D01*
X179348571Y-84427142D02*
X179205714Y-84498571D01*
X178848571Y-84498571D01*
X178705714Y-84427142D01*
X178634285Y-84284285D01*
X178634285Y-84141428D01*
X178705714Y-83998571D01*
X178848571Y-83927142D01*
X179205714Y-83927142D01*
X179348571Y-83855714D01*
X180277142Y-84498571D02*
X180134285Y-84427142D01*
X180062857Y-84284285D01*
X180062857Y-82998571D01*
X182491428Y-83712857D02*
X181991428Y-83712857D01*
X181991428Y-84498571D02*
X181991428Y-82998571D01*
X182705714Y-82998571D01*
X183277142Y-84498571D02*
X183277142Y-83498571D01*
X183277142Y-83784285D02*
X183348571Y-83641428D01*
X183420000Y-83570000D01*
X183562857Y-83498571D01*
X183705714Y-83498571D01*
X184777142Y-84427142D02*
X184634285Y-84498571D01*
X184348571Y-84498571D01*
X184205714Y-84427142D01*
X184134285Y-84284285D01*
X184134285Y-83712857D01*
X184205714Y-83570000D01*
X184348571Y-83498571D01*
X184634285Y-83498571D01*
X184777142Y-83570000D01*
X184848571Y-83712857D01*
X184848571Y-83855714D01*
X184134285Y-83998571D01*
X186062857Y-84427142D02*
X185920000Y-84498571D01*
X185634285Y-84498571D01*
X185491428Y-84427142D01*
X185420000Y-84284285D01*
X185420000Y-83712857D01*
X185491428Y-83570000D01*
X185634285Y-83498571D01*
X185920000Y-83498571D01*
X186062857Y-83570000D01*
X186134285Y-83712857D01*
X186134285Y-83855714D01*
X185420000Y-83998571D01*
X188777142Y-84355714D02*
X188705714Y-84427142D01*
X188491428Y-84498571D01*
X188348571Y-84498571D01*
X188134285Y-84427142D01*
X187991428Y-84284285D01*
X187920000Y-84141428D01*
X187848571Y-83855714D01*
X187848571Y-83641428D01*
X187920000Y-83355714D01*
X187991428Y-83212857D01*
X188134285Y-83070000D01*
X188348571Y-82998571D01*
X188491428Y-82998571D01*
X188705714Y-83070000D01*
X188777142Y-83141428D01*
X189420000Y-84498571D02*
X189420000Y-83498571D01*
X189420000Y-83784285D02*
X189491428Y-83641428D01*
X189562857Y-83570000D01*
X189705714Y-83498571D01*
X189848571Y-83498571D01*
X190920000Y-84427142D02*
X190777142Y-84498571D01*
X190491428Y-84498571D01*
X190348571Y-84427142D01*
X190277142Y-84284285D01*
X190277142Y-83712857D01*
X190348571Y-83570000D01*
X190491428Y-83498571D01*
X190777142Y-83498571D01*
X190920000Y-83570000D01*
X190991428Y-83712857D01*
X190991428Y-83855714D01*
X190277142Y-83998571D01*
X192277142Y-84498571D02*
X192277142Y-82998571D01*
X192277142Y-84427142D02*
X192134285Y-84498571D01*
X191848571Y-84498571D01*
X191705714Y-84427142D01*
X191634285Y-84355714D01*
X191562857Y-84212857D01*
X191562857Y-83784285D01*
X191634285Y-83641428D01*
X191705714Y-83570000D01*
X191848571Y-83498571D01*
X192134285Y-83498571D01*
X192277142Y-83570000D01*
X192991428Y-84498571D02*
X192991428Y-83498571D01*
X192991428Y-82998571D02*
X192920000Y-83070000D01*
X192991428Y-83141428D01*
X193062857Y-83070000D01*
X192991428Y-82998571D01*
X192991428Y-83141428D01*
X193491428Y-83498571D02*
X194062857Y-83498571D01*
X193705714Y-82998571D02*
X193705714Y-84284285D01*
X193777142Y-84427142D01*
X193920000Y-84498571D01*
X194062857Y-84498571D01*
X194491428Y-84427142D02*
X194634285Y-84498571D01*
X194920000Y-84498571D01*
X195062857Y-84427142D01*
X195134285Y-84284285D01*
X195134285Y-84212857D01*
X195062857Y-84070000D01*
X194920000Y-83998571D01*
X194705714Y-83998571D01*
X194562857Y-83927142D01*
X194491428Y-83784285D01*
X194491428Y-83712857D01*
X194562857Y-83570000D01*
X194705714Y-83498571D01*
X194920000Y-83498571D01*
X195062857Y-83570000D01*
X196920000Y-84498571D02*
X196920000Y-82998571D01*
X197491428Y-82998571D01*
X197634285Y-83070000D01*
X197705714Y-83141428D01*
X197777142Y-83284285D01*
X197777142Y-83498571D01*
X197705714Y-83641428D01*
X197634285Y-83712857D01*
X197491428Y-83784285D01*
X196920000Y-83784285D01*
X199277142Y-84355714D02*
X199205714Y-84427142D01*
X198991428Y-84498571D01*
X198848571Y-84498571D01*
X198634285Y-84427142D01*
X198491428Y-84284285D01*
X198420000Y-84141428D01*
X198348571Y-83855714D01*
X198348571Y-83641428D01*
X198420000Y-83355714D01*
X198491428Y-83212857D01*
X198634285Y-83070000D01*
X198848571Y-82998571D01*
X198991428Y-82998571D01*
X199205714Y-83070000D01*
X199277142Y-83141428D01*
X200420000Y-83712857D02*
X200634285Y-83784285D01*
X200705714Y-83855714D01*
X200777142Y-83998571D01*
X200777142Y-84212857D01*
X200705714Y-84355714D01*
X200634285Y-84427142D01*
X200491428Y-84498571D01*
X199920000Y-84498571D01*
X199920000Y-82998571D01*
X200420000Y-82998571D01*
X200562857Y-83070000D01*
X200634285Y-83141428D01*
X200705714Y-83284285D01*
X200705714Y-83427142D01*
X200634285Y-83570000D01*
X200562857Y-83641428D01*
X200420000Y-83712857D01*
X199920000Y-83712857D01*
X182348571Y-123859642D02*
X182562857Y-123931071D01*
X182920000Y-123931071D01*
X183062857Y-123859642D01*
X183134285Y-123788214D01*
X183205714Y-123645357D01*
X183205714Y-123502500D01*
X183134285Y-123359642D01*
X183062857Y-123288214D01*
X182920000Y-123216785D01*
X182634285Y-123145357D01*
X182491428Y-123073928D01*
X182420000Y-123002500D01*
X182348571Y-122859642D01*
X182348571Y-122716785D01*
X182420000Y-122573928D01*
X182491428Y-122502500D01*
X182634285Y-122431071D01*
X182991428Y-122431071D01*
X183205714Y-122502500D01*
X183848571Y-122931071D02*
X183848571Y-124431071D01*
X183848571Y-123002500D02*
X183991428Y-122931071D01*
X184277142Y-122931071D01*
X184420000Y-123002500D01*
X184491428Y-123073928D01*
X184562857Y-123216785D01*
X184562857Y-123645357D01*
X184491428Y-123788214D01*
X184420000Y-123859642D01*
X184277142Y-123931071D01*
X183991428Y-123931071D01*
X183848571Y-123859642D01*
X185777142Y-123859642D02*
X185634285Y-123931071D01*
X185348571Y-123931071D01*
X185205714Y-123859642D01*
X185134285Y-123716785D01*
X185134285Y-123145357D01*
X185205714Y-123002500D01*
X185348571Y-122931071D01*
X185634285Y-122931071D01*
X185777142Y-123002500D01*
X185848571Y-123145357D01*
X185848571Y-123288214D01*
X185134285Y-123431071D01*
X187062857Y-123859642D02*
X186920000Y-123931071D01*
X186634285Y-123931071D01*
X186491428Y-123859642D01*
X186420000Y-123716785D01*
X186420000Y-123145357D01*
X186491428Y-123002500D01*
X186634285Y-122931071D01*
X186920000Y-122931071D01*
X187062857Y-123002500D01*
X187134285Y-123145357D01*
X187134285Y-123288214D01*
X186420000Y-123431071D01*
X188420000Y-123931071D02*
X188420000Y-122431071D01*
X188420000Y-123859642D02*
X188277142Y-123931071D01*
X187991428Y-123931071D01*
X187848571Y-123859642D01*
X187777142Y-123788214D01*
X187705714Y-123645357D01*
X187705714Y-123216785D01*
X187777142Y-123073928D01*
X187848571Y-123002500D01*
X187991428Y-122931071D01*
X188277142Y-122931071D01*
X188420000Y-123002500D01*
X183670000Y-125917500D02*
X184384285Y-125917500D01*
X183527142Y-126346071D02*
X184027142Y-124846071D01*
X184527142Y-126346071D01*
X185670000Y-126346071D02*
X185670000Y-124846071D01*
X185670000Y-126274642D02*
X185527142Y-126346071D01*
X185241428Y-126346071D01*
X185098571Y-126274642D01*
X185027142Y-126203214D01*
X184955714Y-126060357D01*
X184955714Y-125631785D01*
X185027142Y-125488928D01*
X185098571Y-125417500D01*
X185241428Y-125346071D01*
X185527142Y-125346071D01*
X185670000Y-125417500D01*
X186384285Y-125346071D02*
X186384285Y-126631785D01*
X186312857Y-126774642D01*
X186170000Y-126846071D01*
X186098571Y-126846071D01*
X186384285Y-124846071D02*
X186312857Y-124917500D01*
X186384285Y-124988928D01*
X186455714Y-124917500D01*
X186384285Y-124846071D01*
X186384285Y-124988928D01*
X187098571Y-126203214D02*
X187170000Y-126274642D01*
X187098571Y-126346071D01*
X187027142Y-126274642D01*
X187098571Y-126203214D01*
X187098571Y-126346071D01*
X171545714Y-128868214D02*
X171474285Y-128939642D01*
X171260000Y-129011071D01*
X171117142Y-129011071D01*
X170902857Y-128939642D01*
X170760000Y-128796785D01*
X170688571Y-128653928D01*
X170617142Y-128368214D01*
X170617142Y-128153928D01*
X170688571Y-127868214D01*
X170760000Y-127725357D01*
X170902857Y-127582500D01*
X171117142Y-127511071D01*
X171260000Y-127511071D01*
X171474285Y-127582500D01*
X171545714Y-127653928D01*
X172402857Y-129011071D02*
X172260000Y-128939642D01*
X172188571Y-128868214D01*
X172117142Y-128725357D01*
X172117142Y-128296785D01*
X172188571Y-128153928D01*
X172260000Y-128082500D01*
X172402857Y-128011071D01*
X172617142Y-128011071D01*
X172760000Y-128082500D01*
X172831428Y-128153928D01*
X172902857Y-128296785D01*
X172902857Y-128725357D01*
X172831428Y-128868214D01*
X172760000Y-128939642D01*
X172617142Y-129011071D01*
X172402857Y-129011071D01*
X173545714Y-129011071D02*
X173545714Y-128011071D01*
X173545714Y-127511071D02*
X173474285Y-127582500D01*
X173545714Y-127653928D01*
X173617142Y-127582500D01*
X173545714Y-127511071D01*
X173545714Y-127653928D01*
X174260000Y-128011071D02*
X174260000Y-129011071D01*
X174260000Y-128153928D02*
X174331428Y-128082500D01*
X174474285Y-128011071D01*
X174688571Y-128011071D01*
X174831428Y-128082500D01*
X174902857Y-128225357D01*
X174902857Y-129011071D01*
X177045714Y-127511071D02*
X177331428Y-127511071D01*
X177474285Y-127582500D01*
X177617142Y-127725357D01*
X177688571Y-128011071D01*
X177688571Y-128511071D01*
X177617142Y-128796785D01*
X177474285Y-128939642D01*
X177331428Y-129011071D01*
X177045714Y-129011071D01*
X176902857Y-128939642D01*
X176760000Y-128796785D01*
X176688571Y-128511071D01*
X176688571Y-128011071D01*
X176760000Y-127725357D01*
X176902857Y-127582500D01*
X177045714Y-127511071D01*
X178974285Y-128011071D02*
X178974285Y-129011071D01*
X178331428Y-128011071D02*
X178331428Y-128796785D01*
X178402857Y-128939642D01*
X178545714Y-129011071D01*
X178760000Y-129011071D01*
X178902857Y-128939642D01*
X178974285Y-128868214D01*
X179474285Y-128011071D02*
X180045714Y-128011071D01*
X179688571Y-127511071D02*
X179688571Y-128796785D01*
X179760000Y-128939642D01*
X179902857Y-129011071D01*
X180045714Y-129011071D01*
X174902857Y-130854642D02*
X176045714Y-130854642D01*
X175474285Y-131426071D02*
X175474285Y-130283214D01*
X179045714Y-130854642D02*
X180188571Y-130854642D01*
D12*
X202652380Y-112593333D02*
X203366666Y-112593333D01*
X203509523Y-112640952D01*
X203604761Y-112736190D01*
X203652380Y-112879047D01*
X203652380Y-112974285D01*
X203652380Y-112117142D02*
X202652380Y-112117142D01*
X202652380Y-111736190D01*
X202700000Y-111640952D01*
X202747619Y-111593333D01*
X202842857Y-111545714D01*
X202985714Y-111545714D01*
X203080952Y-111593333D01*
X203128571Y-111640952D01*
X203176190Y-111736190D01*
X203176190Y-112117142D01*
X203652380Y-110593333D02*
X203652380Y-111164761D01*
X203652380Y-110879047D02*
X202652380Y-110879047D01*
X202795238Y-110974285D01*
X202890476Y-111069523D01*
X202938095Y-111164761D01*
X207732380Y-119466666D02*
X207732380Y-119942857D01*
X208208571Y-119990476D01*
X208160952Y-119942857D01*
X208113333Y-119847619D01*
X208113333Y-119609523D01*
X208160952Y-119514285D01*
X208208571Y-119466666D01*
X208303809Y-119419047D01*
X208541904Y-119419047D01*
X208637142Y-119466666D01*
X208684761Y-119514285D01*
X208732380Y-119609523D01*
X208732380Y-119847619D01*
X208684761Y-119942857D01*
X208637142Y-119990476D01*
X207732380Y-119133333D02*
X208732380Y-118800000D01*
X207732380Y-118466666D01*
X208732380Y-116800000D02*
X208256190Y-117133333D01*
X208732380Y-117371428D02*
X207732380Y-117371428D01*
X207732380Y-116990476D01*
X207780000Y-116895238D01*
X207827619Y-116847619D01*
X207922857Y-116800000D01*
X208065714Y-116800000D01*
X208160952Y-116847619D01*
X208208571Y-116895238D01*
X208256190Y-116990476D01*
X208256190Y-117371428D01*
X208684761Y-115990476D02*
X208732380Y-116085714D01*
X208732380Y-116276190D01*
X208684761Y-116371428D01*
X208589523Y-116419047D01*
X208208571Y-116419047D01*
X208113333Y-116371428D01*
X208065714Y-116276190D01*
X208065714Y-116085714D01*
X208113333Y-115990476D01*
X208208571Y-115942857D01*
X208303809Y-115942857D01*
X208399047Y-116419047D01*
X208065714Y-115085714D02*
X208875238Y-115085714D01*
X208970476Y-115133333D01*
X209018095Y-115180952D01*
X209065714Y-115276190D01*
X209065714Y-115419047D01*
X209018095Y-115514285D01*
X208684761Y-115085714D02*
X208732380Y-115180952D01*
X208732380Y-115371428D01*
X208684761Y-115466666D01*
X208637142Y-115514285D01*
X208541904Y-115561904D01*
X208256190Y-115561904D01*
X208160952Y-115514285D01*
X208113333Y-115466666D01*
X208065714Y-115371428D01*
X208065714Y-115180952D01*
X208113333Y-115085714D01*
X208637142Y-114609523D02*
X208684761Y-114561904D01*
X208732380Y-114609523D01*
X208684761Y-114657142D01*
X208637142Y-114609523D01*
X208732380Y-114609523D01*
X208208571Y-113038095D02*
X208256190Y-112895238D01*
X208303809Y-112847619D01*
X208399047Y-112800000D01*
X208541904Y-112800000D01*
X208637142Y-112847619D01*
X208684761Y-112895238D01*
X208732380Y-112990476D01*
X208732380Y-113371428D01*
X207732380Y-113371428D01*
X207732380Y-113038095D01*
X207780000Y-112942857D01*
X207827619Y-112895238D01*
X207922857Y-112847619D01*
X208018095Y-112847619D01*
X208113333Y-112895238D01*
X208160952Y-112942857D01*
X208208571Y-113038095D01*
X208208571Y-113371428D01*
X208065714Y-112466666D02*
X208732380Y-112228571D01*
X208065714Y-111990476D02*
X208732380Y-112228571D01*
X208970476Y-112323809D01*
X209018095Y-112371428D01*
X209065714Y-112466666D01*
X208065714Y-111609523D02*
X209065714Y-111609523D01*
X208113333Y-111609523D02*
X208065714Y-111514285D01*
X208065714Y-111323809D01*
X208113333Y-111228571D01*
X208160952Y-111180952D01*
X208256190Y-111133333D01*
X208541904Y-111133333D01*
X208637142Y-111180952D01*
X208684761Y-111228571D01*
X208732380Y-111323809D01*
X208732380Y-111514285D01*
X208684761Y-111609523D01*
X208732380Y-110276190D02*
X208208571Y-110276190D01*
X208113333Y-110323809D01*
X208065714Y-110419047D01*
X208065714Y-110609523D01*
X208113333Y-110704761D01*
X208684761Y-110276190D02*
X208732380Y-110371428D01*
X208732380Y-110609523D01*
X208684761Y-110704761D01*
X208589523Y-110752380D01*
X208494285Y-110752380D01*
X208399047Y-110704761D01*
X208351428Y-110609523D01*
X208351428Y-110371428D01*
X208303809Y-110276190D01*
X208684761Y-109847619D02*
X208732380Y-109752380D01*
X208732380Y-109561904D01*
X208684761Y-109466666D01*
X208589523Y-109419047D01*
X208541904Y-109419047D01*
X208446666Y-109466666D01*
X208399047Y-109561904D01*
X208399047Y-109704761D01*
X208351428Y-109800000D01*
X208256190Y-109847619D01*
X208208571Y-109847619D01*
X208113333Y-109800000D01*
X208065714Y-109704761D01*
X208065714Y-109561904D01*
X208113333Y-109466666D01*
X208684761Y-109038095D02*
X208732380Y-108942857D01*
X208732380Y-108752380D01*
X208684761Y-108657142D01*
X208589523Y-108609523D01*
X208541904Y-108609523D01*
X208446666Y-108657142D01*
X208399047Y-108752380D01*
X208399047Y-108895238D01*
X208351428Y-108990476D01*
X208256190Y-109038095D01*
X208208571Y-109038095D01*
X208113333Y-108990476D01*
X208065714Y-108895238D01*
X208065714Y-108752380D01*
X208113333Y-108657142D01*
X197953333Y-93647142D02*
X197905714Y-93694761D01*
X197762857Y-93742380D01*
X197667619Y-93742380D01*
X197524761Y-93694761D01*
X197429523Y-93599523D01*
X197381904Y-93504285D01*
X197334285Y-93313809D01*
X197334285Y-93170952D01*
X197381904Y-92980476D01*
X197429523Y-92885238D01*
X197524761Y-92790000D01*
X197667619Y-92742380D01*
X197762857Y-92742380D01*
X197905714Y-92790000D01*
X197953333Y-92837619D01*
X198286666Y-92742380D02*
X198905714Y-92742380D01*
X198572380Y-93123333D01*
X198715238Y-93123333D01*
X198810476Y-93170952D01*
X198858095Y-93218571D01*
X198905714Y-93313809D01*
X198905714Y-93551904D01*
X198858095Y-93647142D01*
X198810476Y-93694761D01*
X198715238Y-93742380D01*
X198429523Y-93742380D01*
X198334285Y-93694761D01*
X198286666Y-93647142D01*
X167372380Y-119546666D02*
X166896190Y-119880000D01*
X167372380Y-120118095D02*
X166372380Y-120118095D01*
X166372380Y-119737142D01*
X166420000Y-119641904D01*
X166467619Y-119594285D01*
X166562857Y-119546666D01*
X166705714Y-119546666D01*
X166800952Y-119594285D01*
X166848571Y-119641904D01*
X166896190Y-119737142D01*
X166896190Y-120118095D01*
X166705714Y-118689523D02*
X167372380Y-118689523D01*
X166324761Y-118927619D02*
X167039047Y-119165714D01*
X167039047Y-118546666D01*
X167372380Y-94146666D02*
X166896190Y-94480000D01*
X167372380Y-94718095D02*
X166372380Y-94718095D01*
X166372380Y-94337142D01*
X166420000Y-94241904D01*
X166467619Y-94194285D01*
X166562857Y-94146666D01*
X166705714Y-94146666D01*
X166800952Y-94194285D01*
X166848571Y-94241904D01*
X166896190Y-94337142D01*
X166896190Y-94718095D01*
X166372380Y-93813333D02*
X166372380Y-93194285D01*
X166753333Y-93527619D01*
X166753333Y-93384761D01*
X166800952Y-93289523D01*
X166848571Y-93241904D01*
X166943809Y-93194285D01*
X167181904Y-93194285D01*
X167277142Y-93241904D01*
X167324761Y-93289523D01*
X167372380Y-93384761D01*
X167372380Y-93670476D01*
X167324761Y-93765714D01*
X167277142Y-93813333D01*
X198477142Y-104306666D02*
X198524761Y-104354285D01*
X198572380Y-104497142D01*
X198572380Y-104592380D01*
X198524761Y-104735238D01*
X198429523Y-104830476D01*
X198334285Y-104878095D01*
X198143809Y-104925714D01*
X198000952Y-104925714D01*
X197810476Y-104878095D01*
X197715238Y-104830476D01*
X197620000Y-104735238D01*
X197572380Y-104592380D01*
X197572380Y-104497142D01*
X197620000Y-104354285D01*
X197667619Y-104306666D01*
X197667619Y-103925714D02*
X197620000Y-103878095D01*
X197572380Y-103782857D01*
X197572380Y-103544761D01*
X197620000Y-103449523D01*
X197667619Y-103401904D01*
X197762857Y-103354285D01*
X197858095Y-103354285D01*
X198000952Y-103401904D01*
X198572380Y-103973333D01*
X198572380Y-103354285D01*
X187372380Y-120689523D02*
X188372380Y-120356190D01*
X187372380Y-120022857D01*
X188372380Y-119118095D02*
X187896190Y-119451428D01*
X188372380Y-119689523D02*
X187372380Y-119689523D01*
X187372380Y-119308571D01*
X187420000Y-119213333D01*
X187467619Y-119165714D01*
X187562857Y-119118095D01*
X187705714Y-119118095D01*
X187800952Y-119165714D01*
X187848571Y-119213333D01*
X187896190Y-119308571D01*
X187896190Y-119689523D01*
X188372380Y-118165714D02*
X188372380Y-118737142D01*
X188372380Y-118451428D02*
X187372380Y-118451428D01*
X187515238Y-118546666D01*
X187610476Y-118641904D01*
X187658095Y-118737142D01*
X187793333Y-88597142D02*
X187745714Y-88644761D01*
X187602857Y-88692380D01*
X187507619Y-88692380D01*
X187364761Y-88644761D01*
X187269523Y-88549523D01*
X187221904Y-88454285D01*
X187174285Y-88263809D01*
X187174285Y-88120952D01*
X187221904Y-87930476D01*
X187269523Y-87835238D01*
X187364761Y-87740000D01*
X187507619Y-87692380D01*
X187602857Y-87692380D01*
X187745714Y-87740000D01*
X187793333Y-87787619D01*
X188745714Y-88692380D02*
X188174285Y-88692380D01*
X188460000Y-88692380D02*
X188460000Y-87692380D01*
X188364761Y-87835238D01*
X188269523Y-87930476D01*
X188174285Y-87978095D01*
D13*
X196156666Y-108524523D02*
X196156666Y-109431666D01*
X196096190Y-109613095D01*
X195975238Y-109734047D01*
X195793809Y-109794523D01*
X195672857Y-109794523D01*
X197426666Y-109794523D02*
X196700952Y-109794523D01*
X197063809Y-109794523D02*
X197063809Y-108524523D01*
X196942857Y-108705952D01*
X196821904Y-108826904D01*
X196700952Y-108887380D01*
D12*
X175772380Y-102361904D02*
X176581904Y-102361904D01*
X176677142Y-102314285D01*
X176724761Y-102266666D01*
X176772380Y-102171428D01*
X176772380Y-101980952D01*
X176724761Y-101885714D01*
X176677142Y-101838095D01*
X176581904Y-101790476D01*
X175772380Y-101790476D01*
X175772380Y-101409523D02*
X175772380Y-100790476D01*
X176153333Y-101123809D01*
X176153333Y-100980952D01*
X176200952Y-100885714D01*
X176248571Y-100838095D01*
X176343809Y-100790476D01*
X176581904Y-100790476D01*
X176677142Y-100838095D01*
X176724761Y-100885714D01*
X176772380Y-100980952D01*
X176772380Y-101266666D01*
X176724761Y-101361904D01*
X176677142Y-101409523D01*
X195312380Y-96686666D02*
X194836190Y-97020000D01*
X195312380Y-97258095D02*
X194312380Y-97258095D01*
X194312380Y-96877142D01*
X194360000Y-96781904D01*
X194407619Y-96734285D01*
X194502857Y-96686666D01*
X194645714Y-96686666D01*
X194740952Y-96734285D01*
X194788571Y-96781904D01*
X194836190Y-96877142D01*
X194836190Y-97258095D01*
X194407619Y-96305714D02*
X194360000Y-96258095D01*
X194312380Y-96162857D01*
X194312380Y-95924761D01*
X194360000Y-95829523D01*
X194407619Y-95781904D01*
X194502857Y-95734285D01*
X194598095Y-95734285D01*
X194740952Y-95781904D01*
X195312380Y-96353333D01*
X195312380Y-95734285D01*
X172553333Y-93712380D02*
X172220000Y-93236190D01*
X171981904Y-93712380D02*
X171981904Y-92712380D01*
X172362857Y-92712380D01*
X172458095Y-92760000D01*
X172505714Y-92807619D01*
X172553333Y-92902857D01*
X172553333Y-93045714D01*
X172505714Y-93140952D01*
X172458095Y-93188571D01*
X172362857Y-93236190D01*
X171981904Y-93236190D01*
X173458095Y-92712380D02*
X172981904Y-92712380D01*
X172934285Y-93188571D01*
X172981904Y-93140952D01*
X173077142Y-93093333D01*
X173315238Y-93093333D01*
X173410476Y-93140952D01*
X173458095Y-93188571D01*
X173505714Y-93283809D01*
X173505714Y-93521904D01*
X173458095Y-93617142D01*
X173410476Y-93664761D01*
X173315238Y-93712380D01*
X173077142Y-93712380D01*
X172981904Y-93664761D01*
X172934285Y-93617142D01*
X167372380Y-102338095D02*
X166372380Y-102338095D01*
X166372380Y-102100000D01*
X166420000Y-101957142D01*
X166515238Y-101861904D01*
X166610476Y-101814285D01*
X166800952Y-101766666D01*
X166943809Y-101766666D01*
X167134285Y-101814285D01*
X167229523Y-101861904D01*
X167324761Y-101957142D01*
X167372380Y-102100000D01*
X167372380Y-102338095D01*
X167372380Y-100814285D02*
X167372380Y-101385714D01*
X167372380Y-101100000D02*
X166372380Y-101100000D01*
X166515238Y-101195238D01*
X166610476Y-101290476D01*
X166658095Y-101385714D01*
X162917142Y-104861904D02*
X162964761Y-104909523D01*
X163012380Y-105052380D01*
X163012380Y-105147619D01*
X162964761Y-105290476D01*
X162869523Y-105385714D01*
X162774285Y-105433333D01*
X162583809Y-105480952D01*
X162440952Y-105480952D01*
X162250476Y-105433333D01*
X162155238Y-105385714D01*
X162060000Y-105290476D01*
X162012380Y-105147619D01*
X162012380Y-105052380D01*
X162060000Y-104909523D01*
X162107619Y-104861904D01*
X163012380Y-104290476D02*
X162964761Y-104385714D01*
X162917142Y-104433333D01*
X162821904Y-104480952D01*
X162536190Y-104480952D01*
X162440952Y-104433333D01*
X162393333Y-104385714D01*
X162345714Y-104290476D01*
X162345714Y-104147619D01*
X162393333Y-104052380D01*
X162440952Y-104004761D01*
X162536190Y-103957142D01*
X162821904Y-103957142D01*
X162917142Y-104004761D01*
X162964761Y-104052380D01*
X163012380Y-104147619D01*
X163012380Y-104290476D01*
X163012380Y-103528571D02*
X162345714Y-103528571D01*
X162012380Y-103528571D02*
X162060000Y-103576190D01*
X162107619Y-103528571D01*
X162060000Y-103480952D01*
X162012380Y-103528571D01*
X162107619Y-103528571D01*
X162345714Y-103052380D02*
X163012380Y-103052380D01*
X162440952Y-103052380D02*
X162393333Y-103004761D01*
X162345714Y-102909523D01*
X162345714Y-102766666D01*
X162393333Y-102671428D01*
X162488571Y-102623809D01*
X163012380Y-102623809D01*
X163012380Y-101385714D02*
X162012380Y-101385714D01*
X162012380Y-101004761D01*
X162060000Y-100909523D01*
X162107619Y-100861904D01*
X162202857Y-100814285D01*
X162345714Y-100814285D01*
X162440952Y-100861904D01*
X162488571Y-100909523D01*
X162536190Y-101004761D01*
X162536190Y-101385714D01*
X162345714Y-99957142D02*
X163012380Y-99957142D01*
X162345714Y-100385714D02*
X162869523Y-100385714D01*
X162964761Y-100338095D01*
X163012380Y-100242857D01*
X163012380Y-100100000D01*
X162964761Y-100004761D01*
X162917142Y-99957142D01*
X163012380Y-99338095D02*
X162964761Y-99433333D01*
X162869523Y-99480952D01*
X162012380Y-99480952D01*
X162964761Y-99004761D02*
X163012380Y-98909523D01*
X163012380Y-98719047D01*
X162964761Y-98623809D01*
X162869523Y-98576190D01*
X162821904Y-98576190D01*
X162726666Y-98623809D01*
X162679047Y-98719047D01*
X162679047Y-98861904D01*
X162631428Y-98957142D01*
X162536190Y-99004761D01*
X162488571Y-99004761D01*
X162393333Y-98957142D01*
X162345714Y-98861904D01*
X162345714Y-98719047D01*
X162393333Y-98623809D01*
X162964761Y-97766666D02*
X163012380Y-97861904D01*
X163012380Y-98052380D01*
X162964761Y-98147619D01*
X162869523Y-98195238D01*
X162488571Y-98195238D01*
X162393333Y-98147619D01*
X162345714Y-98052380D01*
X162345714Y-97861904D01*
X162393333Y-97766666D01*
X162488571Y-97719047D01*
X162583809Y-97719047D01*
X162679047Y-98195238D01*
X168092380Y-112928095D02*
X167092380Y-112928095D01*
X167092380Y-112690000D01*
X167140000Y-112547142D01*
X167235238Y-112451904D01*
X167330476Y-112404285D01*
X167520952Y-112356666D01*
X167663809Y-112356666D01*
X167854285Y-112404285D01*
X167949523Y-112451904D01*
X168044761Y-112547142D01*
X168092380Y-112690000D01*
X168092380Y-112928095D01*
X167187619Y-111975714D02*
X167140000Y-111928095D01*
X167092380Y-111832857D01*
X167092380Y-111594761D01*
X167140000Y-111499523D01*
X167187619Y-111451904D01*
X167282857Y-111404285D01*
X167378095Y-111404285D01*
X167520952Y-111451904D01*
X168092380Y-112023333D01*
X168092380Y-111404285D01*
X163012380Y-113736190D02*
X162012380Y-113736190D01*
X162012380Y-113355238D01*
X162060000Y-113260000D01*
X162107619Y-113212380D01*
X162202857Y-113164761D01*
X162345714Y-113164761D01*
X162440952Y-113212380D01*
X162488571Y-113260000D01*
X162536190Y-113355238D01*
X162536190Y-113736190D01*
X163012380Y-112593333D02*
X162964761Y-112688571D01*
X162917142Y-112736190D01*
X162821904Y-112783809D01*
X162536190Y-112783809D01*
X162440952Y-112736190D01*
X162393333Y-112688571D01*
X162345714Y-112593333D01*
X162345714Y-112450476D01*
X162393333Y-112355238D01*
X162440952Y-112307619D01*
X162536190Y-112260000D01*
X162821904Y-112260000D01*
X162917142Y-112307619D01*
X162964761Y-112355238D01*
X163012380Y-112450476D01*
X163012380Y-112593333D01*
X162345714Y-111926666D02*
X163012380Y-111736190D01*
X162536190Y-111545714D01*
X163012380Y-111355238D01*
X162345714Y-111164761D01*
X162964761Y-110402857D02*
X163012380Y-110498095D01*
X163012380Y-110688571D01*
X162964761Y-110783809D01*
X162869523Y-110831428D01*
X162488571Y-110831428D01*
X162393333Y-110783809D01*
X162345714Y-110688571D01*
X162345714Y-110498095D01*
X162393333Y-110402857D01*
X162488571Y-110355238D01*
X162583809Y-110355238D01*
X162679047Y-110831428D01*
X163012380Y-109926666D02*
X162345714Y-109926666D01*
X162536190Y-109926666D02*
X162440952Y-109879047D01*
X162393333Y-109831428D01*
X162345714Y-109736190D01*
X162345714Y-109640952D01*
X192772380Y-104306666D02*
X192296190Y-104640000D01*
X192772380Y-104878095D02*
X191772380Y-104878095D01*
X191772380Y-104497142D01*
X191820000Y-104401904D01*
X191867619Y-104354285D01*
X191962857Y-104306666D01*
X192105714Y-104306666D01*
X192200952Y-104354285D01*
X192248571Y-104401904D01*
X192296190Y-104497142D01*
X192296190Y-104878095D01*
X192772380Y-103354285D02*
X192772380Y-103925714D01*
X192772380Y-103640000D02*
X191772380Y-103640000D01*
X191915238Y-103735238D01*
X192010476Y-103830476D01*
X192058095Y-103925714D01*
D13*
X175836666Y-108524523D02*
X175836666Y-109431666D01*
X175776190Y-109613095D01*
X175655238Y-109734047D01*
X175473809Y-109794523D01*
X175352857Y-109794523D01*
X176380952Y-108645476D02*
X176441428Y-108585000D01*
X176562380Y-108524523D01*
X176864761Y-108524523D01*
X176985714Y-108585000D01*
X177046190Y-108645476D01*
X177106666Y-108766428D01*
X177106666Y-108887380D01*
X177046190Y-109068809D01*
X176320476Y-109794523D01*
X177106666Y-109794523D01*
D12*
X185732380Y-102361904D02*
X186541904Y-102361904D01*
X186637142Y-102314285D01*
X186684761Y-102266666D01*
X186732380Y-102171428D01*
X186732380Y-101980952D01*
X186684761Y-101885714D01*
X186637142Y-101838095D01*
X186541904Y-101790476D01*
X185732380Y-101790476D01*
X186732380Y-100790476D02*
X186732380Y-101361904D01*
X186732380Y-101076190D02*
X185732380Y-101076190D01*
X185875238Y-101171428D01*
X185970476Y-101266666D01*
X186018095Y-101361904D01*
X202652380Y-94813333D02*
X203366666Y-94813333D01*
X203509523Y-94860952D01*
X203604761Y-94956190D01*
X203652380Y-95099047D01*
X203652380Y-95194285D01*
X203652380Y-94337142D02*
X202652380Y-94337142D01*
X202652380Y-93956190D01*
X202700000Y-93860952D01*
X202747619Y-93813333D01*
X202842857Y-93765714D01*
X202985714Y-93765714D01*
X203080952Y-93813333D01*
X203128571Y-93860952D01*
X203176190Y-93956190D01*
X203176190Y-94337142D01*
X202747619Y-93384761D02*
X202700000Y-93337142D01*
X202652380Y-93241904D01*
X202652380Y-93003809D01*
X202700000Y-92908571D01*
X202747619Y-92860952D01*
X202842857Y-92813333D01*
X202938095Y-92813333D01*
X203080952Y-92860952D01*
X203652380Y-93432380D01*
X203652380Y-92813333D01*
X207732380Y-101591428D02*
X207732380Y-102067619D01*
X208208571Y-102115238D01*
X208160952Y-102067619D01*
X208113333Y-101972380D01*
X208113333Y-101734285D01*
X208160952Y-101639047D01*
X208208571Y-101591428D01*
X208303809Y-101543809D01*
X208541904Y-101543809D01*
X208637142Y-101591428D01*
X208684761Y-101639047D01*
X208732380Y-101734285D01*
X208732380Y-101972380D01*
X208684761Y-102067619D01*
X208637142Y-102115238D01*
X207732380Y-101258095D02*
X208732380Y-100924761D01*
X207732380Y-100591428D01*
X208732380Y-98924761D02*
X208256190Y-99258095D01*
X208732380Y-99496190D02*
X207732380Y-99496190D01*
X207732380Y-99115238D01*
X207780000Y-99020000D01*
X207827619Y-98972380D01*
X207922857Y-98924761D01*
X208065714Y-98924761D01*
X208160952Y-98972380D01*
X208208571Y-99020000D01*
X208256190Y-99115238D01*
X208256190Y-99496190D01*
X208684761Y-98115238D02*
X208732380Y-98210476D01*
X208732380Y-98400952D01*
X208684761Y-98496190D01*
X208589523Y-98543809D01*
X208208571Y-98543809D01*
X208113333Y-98496190D01*
X208065714Y-98400952D01*
X208065714Y-98210476D01*
X208113333Y-98115238D01*
X208208571Y-98067619D01*
X208303809Y-98067619D01*
X208399047Y-98543809D01*
X208065714Y-97210476D02*
X208875238Y-97210476D01*
X208970476Y-97258095D01*
X209018095Y-97305714D01*
X209065714Y-97400952D01*
X209065714Y-97543809D01*
X209018095Y-97639047D01*
X208684761Y-97210476D02*
X208732380Y-97305714D01*
X208732380Y-97496190D01*
X208684761Y-97591428D01*
X208637142Y-97639047D01*
X208541904Y-97686666D01*
X208256190Y-97686666D01*
X208160952Y-97639047D01*
X208113333Y-97591428D01*
X208065714Y-97496190D01*
X208065714Y-97305714D01*
X208113333Y-97210476D01*
X208637142Y-96734285D02*
X208684761Y-96686666D01*
X208732380Y-96734285D01*
X208684761Y-96781904D01*
X208637142Y-96734285D01*
X208732380Y-96734285D01*
X208208571Y-95496190D02*
X208208571Y-95162857D01*
X208732380Y-95020000D02*
X208732380Y-95496190D01*
X207732380Y-95496190D01*
X207732380Y-95020000D01*
X208065714Y-94591428D02*
X208732380Y-94591428D01*
X208160952Y-94591428D02*
X208113333Y-94543809D01*
X208065714Y-94448571D01*
X208065714Y-94305714D01*
X208113333Y-94210476D01*
X208208571Y-94162857D01*
X208732380Y-94162857D01*
X208732380Y-93258095D02*
X208208571Y-93258095D01*
X208113333Y-93305714D01*
X208065714Y-93400952D01*
X208065714Y-93591428D01*
X208113333Y-93686666D01*
X208684761Y-93258095D02*
X208732380Y-93353333D01*
X208732380Y-93591428D01*
X208684761Y-93686666D01*
X208589523Y-93734285D01*
X208494285Y-93734285D01*
X208399047Y-93686666D01*
X208351428Y-93591428D01*
X208351428Y-93353333D01*
X208303809Y-93258095D01*
X208732380Y-92781904D02*
X207732380Y-92781904D01*
X208113333Y-92781904D02*
X208065714Y-92686666D01*
X208065714Y-92496190D01*
X208113333Y-92400952D01*
X208160952Y-92353333D01*
X208256190Y-92305714D01*
X208541904Y-92305714D01*
X208637142Y-92353333D01*
X208684761Y-92400952D01*
X208732380Y-92496190D01*
X208732380Y-92686666D01*
X208684761Y-92781904D01*
X208732380Y-91734285D02*
X208684761Y-91829523D01*
X208589523Y-91877142D01*
X207732380Y-91877142D01*
X208684761Y-90972380D02*
X208732380Y-91067619D01*
X208732380Y-91258095D01*
X208684761Y-91353333D01*
X208589523Y-91400952D01*
X208208571Y-91400952D01*
X208113333Y-91353333D01*
X208065714Y-91258095D01*
X208065714Y-91067619D01*
X208113333Y-90972380D01*
X208208571Y-90924761D01*
X208303809Y-90924761D01*
X208399047Y-91400952D01*
X185253333Y-113967142D02*
X185205714Y-114014761D01*
X185062857Y-114062380D01*
X184967619Y-114062380D01*
X184824761Y-114014761D01*
X184729523Y-113919523D01*
X184681904Y-113824285D01*
X184634285Y-113633809D01*
X184634285Y-113490952D01*
X184681904Y-113300476D01*
X184729523Y-113205238D01*
X184824761Y-113110000D01*
X184967619Y-113062380D01*
X185062857Y-113062380D01*
X185205714Y-113110000D01*
X185253333Y-113157619D01*
X186110476Y-113395714D02*
X186110476Y-114062380D01*
X185872380Y-113014761D02*
X185634285Y-113729047D01*
X186253333Y-113729047D01*
X202738095Y-97552380D02*
X202738095Y-98361904D01*
X202785714Y-98457142D01*
X202833333Y-98504761D01*
X202928571Y-98552380D01*
X203119047Y-98552380D01*
X203214285Y-98504761D01*
X203261904Y-98457142D01*
X203309523Y-98361904D01*
X203309523Y-97552380D01*
X203738095Y-97647619D02*
X203785714Y-97600000D01*
X203880952Y-97552380D01*
X204119047Y-97552380D01*
X204214285Y-97600000D01*
X204261904Y-97647619D01*
X204309523Y-97742857D01*
X204309523Y-97838095D01*
X204261904Y-97980952D01*
X203690476Y-98552380D01*
X204309523Y-98552380D01*
D14*
X206740000Y-113810000D02*
X204740000Y-113810000D01*
X206740000Y-109710000D02*
X206740000Y-113810000D01*
X204540000Y-110460000D02*
X204240000Y-110760000D01*
X204740000Y-113810000D02*
X204740000Y-109710000D01*
X204740000Y-109710000D02*
X206740000Y-109710000D01*
X204240000Y-110160000D02*
X204240000Y-110760000D01*
X204540000Y-110460000D02*
X204240000Y-110160000D01*
X198831252Y-92350000D02*
X197408748Y-92350000D01*
X198831252Y-90530000D02*
X197408748Y-90530000D01*
X166010000Y-118652936D02*
X166010000Y-120107064D01*
X164190000Y-118652936D02*
X164190000Y-120107064D01*
X164190000Y-93252936D02*
X164190000Y-94707064D01*
X166010000Y-93252936D02*
X166010000Y-94707064D01*
X196490000Y-104851252D02*
X196490000Y-103428748D01*
X194670000Y-104851252D02*
X194670000Y-103428748D01*
X183820000Y-118380000D02*
X183820000Y-121280000D01*
X187220000Y-117480000D02*
X187220000Y-116780000D01*
X183820000Y-121280000D02*
X184420000Y-121280000D01*
X187020000Y-121280000D02*
X186420000Y-121280000D01*
X187220000Y-116780000D02*
X186520000Y-116780000D01*
X185620000Y-117280000D02*
X185220000Y-117280000D01*
X187020000Y-118380000D02*
X187020000Y-121280000D01*
X185700000Y-90244437D02*
X186764437Y-89180000D01*
X185210000Y-89630000D02*
X185210000Y-90130000D01*
X185700000Y-92635563D02*
X185700000Y-92500000D01*
X185700000Y-90244437D02*
X185700000Y-90380000D01*
X184960000Y-89880000D02*
X185460000Y-89880000D01*
X185700000Y-92635563D02*
X186764437Y-93700000D01*
X186764437Y-89180000D02*
X190220000Y-89180000D01*
X186764437Y-93700000D02*
X190220000Y-93700000D01*
X190220000Y-89180000D02*
X190220000Y-90380000D01*
X190220000Y-93700000D02*
X190220000Y-92500000D01*
D15*
X192330000Y-112080000D02*
X200830000Y-112080000D01*
X200830000Y-124080000D02*
X192330000Y-124080000D01*
X200830000Y-112080000D02*
X200830000Y-124080000D01*
X191680000Y-119380000D02*
X191680000Y-119380000D01*
X191780000Y-119380000D02*
X191780000Y-119380000D01*
X192330000Y-124080000D02*
X192330000Y-112080000D01*
X191680000Y-119380000D02*
G75*
G03*
X191780000Y-119380000I50000J0D01*
G01*
X191780000Y-119380000D02*
G75*
G03*
X191680000Y-119380000I-50000J0D01*
G01*
D14*
X175320000Y-98365000D02*
X170120000Y-98365000D01*
X175320000Y-100600000D02*
X175320000Y-98365000D01*
X175320000Y-104835000D02*
X175320000Y-102600000D01*
X170120000Y-104835000D02*
X175320000Y-104835000D01*
X170120000Y-98365000D02*
X170120000Y-104835000D01*
X175320000Y-100600000D02*
G75*
G03*
X175320000Y-102600000I0J-1000000D01*
G01*
X193950000Y-95792936D02*
X193950000Y-97247064D01*
X192130000Y-95792936D02*
X192130000Y-97247064D01*
X173447064Y-92350000D02*
X171992936Y-92350000D01*
X173447064Y-90530000D02*
X171992936Y-90530000D01*
X166235000Y-103200000D02*
X166235000Y-99140000D01*
X166235000Y-99140000D02*
X163965000Y-99140000D01*
X163965000Y-99140000D02*
X163965000Y-103200000D01*
X163965000Y-110160000D02*
X163965000Y-114220000D01*
X163965000Y-114220000D02*
X166235000Y-114220000D01*
X166235000Y-114220000D02*
X166235000Y-110160000D01*
X189590000Y-103412936D02*
X189590000Y-104867064D01*
X191410000Y-103412936D02*
X191410000Y-104867064D01*
D15*
X180510000Y-112080000D02*
X180510000Y-124080000D01*
X172010000Y-112080000D02*
X180510000Y-112080000D01*
X172010000Y-124080000D02*
X172010000Y-112080000D01*
X171360000Y-119380000D02*
X171360000Y-119380000D01*
X171460000Y-119380000D02*
X171460000Y-119380000D01*
X180510000Y-124080000D02*
X172010000Y-124080000D01*
X171460000Y-119380000D02*
G75*
G03*
X171360000Y-119380000I-50000J0D01*
G01*
X171360000Y-119380000D02*
G75*
G03*
X171460000Y-119380000I50000J0D01*
G01*
D14*
X185440000Y-101600000D02*
X185440000Y-98150000D01*
X185440000Y-101600000D02*
X185440000Y-103550000D01*
X180320000Y-101600000D02*
X180320000Y-103550000D01*
X180320000Y-101600000D02*
X180320000Y-99650000D01*
X204740000Y-92580000D02*
X206740000Y-92580000D01*
X206740000Y-92580000D02*
X206740000Y-95380000D01*
X206740000Y-95380000D02*
X204740000Y-95380000D01*
X204740000Y-95380000D02*
X204740000Y-92580000D01*
X186131252Y-110850000D02*
X184708748Y-110850000D01*
X186131252Y-112670000D02*
X184708748Y-112670000D01*
X202140000Y-99240000D02*
X204860000Y-99240000D01*
X202140000Y-99240000D02*
X202140000Y-99470000D01*
X201000000Y-99470000D02*
X202140000Y-99470000D01*
X204860000Y-103960000D02*
X202140000Y-103960000D01*
X204860000Y-99240000D02*
X204860000Y-100550000D01*
X202140000Y-103960000D02*
X202140000Y-103730000D01*
X204860000Y-102650000D02*
X204860000Y-103960000D01*
M02*
