G04 #@! TF.GenerationSoftware,KiCad,Pcbnew,(6.0.6)*
G04 #@! TF.CreationDate,2023-01-14T11:23:39-07:00*
G04 #@! TF.ProjectId,PFCBoard,50464342-6f61-4726-942e-6b696361645f,rev?*
G04 #@! TF.SameCoordinates,Original*
G04 #@! TF.FileFunction,Copper,L1,Top*
G04 #@! TF.FilePolarity,Positive*
%FSLAX46Y46*%
G04 Gerber Fmt 4.6, Leading zero omitted, Abs format (unit mm)*
G04 Created by KiCad (PCBNEW (6.0.6)) date 2023-01-14 11:23:39*
%MOMM*%
%LPD*%
G01*
G04 APERTURE LIST*
G04 Aperture macros list*
%AMRoundRect*
0 Rectangle with rounded corners*
0 $1 Rounding radius*
0 $2 $3 $4 $5 $6 $7 $8 $9 X,Y pos of 4 corners*
0 Add a 4 corners polygon primitive as box body*
4,1,4,$2,$3,$4,$5,$6,$7,$8,$9,$2,$3,0*
0 Add four circle primitives for the rounded corners*
1,1,$1+$1,$2,$3*
1,1,$1+$1,$4,$5*
1,1,$1+$1,$6,$7*
1,1,$1+$1,$8,$9*
0 Add four rect primitives between the rounded corners*
20,1,$1+$1,$2,$3,$4,$5,0*
20,1,$1+$1,$4,$5,$6,$7,0*
20,1,$1+$1,$6,$7,$8,$9,0*
20,1,$1+$1,$8,$9,$2,$3,0*%
%AMFreePoly0*
4,1,9,3.862500,-0.866500,0.737500,-0.866500,0.737500,-0.450000,-0.737500,-0.450000,-0.737500,0.450000,0.737500,0.450000,0.737500,0.866500,3.862500,0.866500,3.862500,-0.866500,3.862500,-0.866500,$1*%
G04 Aperture macros list end*
G04 #@! TA.AperFunction,SMDPad,CuDef*
%ADD10R,1.500000X1.000000*%
G04 #@! TD*
G04 #@! TA.AperFunction,SMDPad,CuDef*
%ADD11RoundRect,0.250000X0.412500X0.650000X-0.412500X0.650000X-0.412500X-0.650000X0.412500X-0.650000X0*%
G04 #@! TD*
G04 #@! TA.AperFunction,SMDPad,CuDef*
%ADD12RoundRect,0.250000X-0.625000X0.400000X-0.625000X-0.400000X0.625000X-0.400000X0.625000X0.400000X0*%
G04 #@! TD*
G04 #@! TA.AperFunction,SMDPad,CuDef*
%ADD13RoundRect,0.250000X0.650000X-0.412500X0.650000X0.412500X-0.650000X0.412500X-0.650000X-0.412500X0*%
G04 #@! TD*
G04 #@! TA.AperFunction,SMDPad,CuDef*
%ADD14R,1.200000X1.200000*%
G04 #@! TD*
G04 #@! TA.AperFunction,SMDPad,CuDef*
%ADD15R,1.600000X1.500000*%
G04 #@! TD*
G04 #@! TA.AperFunction,SMDPad,CuDef*
%ADD16RoundRect,0.250000X-1.050000X-0.550000X1.050000X-0.550000X1.050000X0.550000X-1.050000X0.550000X0*%
G04 #@! TD*
G04 #@! TA.AperFunction,ComponentPad*
%ADD17C,1.500000*%
G04 #@! TD*
G04 #@! TA.AperFunction,SMDPad,CuDef*
%ADD18R,1.780000X2.000000*%
G04 #@! TD*
G04 #@! TA.AperFunction,SMDPad,CuDef*
%ADD19RoundRect,0.250000X0.400000X0.625000X-0.400000X0.625000X-0.400000X-0.625000X0.400000X-0.625000X0*%
G04 #@! TD*
G04 #@! TA.AperFunction,SMDPad,CuDef*
%ADD20RoundRect,0.250001X-0.624999X0.462499X-0.624999X-0.462499X0.624999X-0.462499X0.624999X0.462499X0*%
G04 #@! TD*
G04 #@! TA.AperFunction,SMDPad,CuDef*
%ADD21RoundRect,0.250001X0.624999X-0.462499X0.624999X0.462499X-0.624999X0.462499X-0.624999X-0.462499X0*%
G04 #@! TD*
G04 #@! TA.AperFunction,SMDPad,CuDef*
%ADD22RoundRect,0.150000X-0.150000X0.825000X-0.150000X-0.825000X0.150000X-0.825000X0.150000X0.825000X0*%
G04 #@! TD*
G04 #@! TA.AperFunction,SMDPad,CuDef*
%ADD23R,1.300000X0.900000*%
G04 #@! TD*
G04 #@! TA.AperFunction,SMDPad,CuDef*
%ADD24FreePoly0,0.000000*%
G04 #@! TD*
G04 #@! TA.AperFunction,ViaPad*
%ADD25C,0.800000*%
G04 #@! TD*
G04 #@! TA.AperFunction,Conductor*
%ADD26C,0.250000*%
G04 #@! TD*
G04 APERTURE END LIST*
G36*
X206040000Y-111360000D02*
G01*
X205440000Y-111360000D01*
X205440000Y-110860000D01*
X206040000Y-110860000D01*
X206040000Y-111360000D01*
G37*
G36*
X206040000Y-94230000D02*
G01*
X205440000Y-94230000D01*
X205440000Y-93730000D01*
X206040000Y-93730000D01*
X206040000Y-94230000D01*
G37*
D10*
X205740000Y-110460000D03*
X205740000Y-111760000D03*
X205740000Y-113060000D03*
D11*
X199682500Y-91440000D03*
X196557500Y-91440000D03*
D12*
X165100000Y-117830000D03*
X165100000Y-120930000D03*
X165100000Y-92430000D03*
X165100000Y-95530000D03*
D13*
X195580000Y-105702500D03*
X195580000Y-102577500D03*
D14*
X186420000Y-117580000D03*
D15*
X185420000Y-120830000D03*
D14*
X184420000Y-117580000D03*
D16*
X186160000Y-91440000D03*
X189760000Y-91440000D03*
D17*
X195580000Y-119380000D03*
X199080000Y-119380000D03*
D18*
X173990000Y-96835000D03*
X171450000Y-96835000D03*
X171450000Y-106365000D03*
X173990000Y-106365000D03*
D12*
X193040000Y-94970000D03*
X193040000Y-98070000D03*
D19*
X174270000Y-91440000D03*
X171170000Y-91440000D03*
D20*
X165100000Y-100112500D03*
X165100000Y-103087500D03*
D21*
X165100000Y-113247500D03*
X165100000Y-110272500D03*
D12*
X190500000Y-102590000D03*
X190500000Y-105690000D03*
D17*
X175260000Y-119380000D03*
X178760000Y-119380000D03*
D22*
X184785000Y-99125000D03*
X183515000Y-99125000D03*
X182245000Y-99125000D03*
X180975000Y-99125000D03*
X180975000Y-104075000D03*
X182245000Y-104075000D03*
X183515000Y-104075000D03*
X184785000Y-104075000D03*
D10*
X205740000Y-93330000D03*
X205740000Y-94630000D03*
D11*
X186982500Y-111760000D03*
X183857500Y-111760000D03*
D23*
X201550000Y-100100000D03*
D24*
X201637500Y-101600000D03*
D23*
X201550000Y-103100000D03*
D25*
X182880000Y-106680000D03*
X182880000Y-96520000D03*
X172720000Y-111760000D03*
X175260000Y-114300000D03*
D26*
X187970000Y-114030000D02*
X187970000Y-110871827D01*
X182880000Y-96520000D02*
X183515000Y-97155000D01*
X184420000Y-117580000D02*
X187970000Y-114030000D01*
X183515000Y-97155000D02*
X183515000Y-99125000D01*
X182245000Y-106045000D02*
X182880000Y-106680000D01*
X187970000Y-110871827D02*
X183778173Y-106680000D01*
X183778173Y-106680000D02*
X182880000Y-106680000D01*
X182245000Y-104075000D02*
X182245000Y-106045000D01*
X186160000Y-91440000D02*
X183515000Y-94085000D01*
X183515000Y-94085000D02*
X183515000Y-97155000D01*
X184785000Y-102041751D02*
X184343249Y-101600000D01*
X180975000Y-99125000D02*
X178685000Y-96835000D01*
X193040000Y-94970000D02*
X196152500Y-94970000D01*
X180975000Y-99125000D02*
X180975000Y-99695000D01*
X183073249Y-101600000D02*
X184343249Y-101600000D01*
X167737500Y-103087500D02*
X165100000Y-103087500D01*
X184785000Y-104075000D02*
X184785000Y-102041751D01*
X173990000Y-96835000D02*
X167737500Y-103087500D01*
X201572500Y-93330000D02*
X205740000Y-93330000D01*
X196152500Y-94970000D02*
X199682500Y-91440000D01*
X165100000Y-110272500D02*
X165100000Y-103087500D01*
X178685000Y-96835000D02*
X173990000Y-96835000D01*
X206740000Y-113060000D02*
X208280000Y-111520000D01*
X180975000Y-99501751D02*
X183073249Y-101600000D01*
X199682500Y-91440000D02*
X201572500Y-93330000D01*
X205740000Y-113060000D02*
X206740000Y-113060000D01*
X184785000Y-103225000D02*
X184785000Y-104075000D01*
X208280000Y-111520000D02*
X208280000Y-95270000D01*
X180975000Y-99125000D02*
X180975000Y-99501751D01*
X208280000Y-95270000D02*
X206340000Y-93330000D01*
X206340000Y-93330000D02*
X205740000Y-93330000D01*
X193040000Y-94970000D02*
X184785000Y-103225000D01*
X180975000Y-108877500D02*
X180975000Y-104075000D01*
X183857500Y-111760000D02*
X180975000Y-108877500D01*
X165100000Y-100112500D02*
X165100000Y-95530000D01*
X165100000Y-113247500D02*
X165100000Y-117830000D01*
X186410000Y-106680000D02*
X185420000Y-106680000D01*
X193040000Y-100050000D02*
X193040000Y-98070000D01*
X190500000Y-102590000D02*
X193040000Y-100050000D01*
X183515000Y-104775000D02*
X183515000Y-104075000D01*
X190500000Y-102590000D02*
X186410000Y-106680000D01*
X185420000Y-106680000D02*
X183515000Y-104775000D01*
X190500000Y-105690000D02*
X190500000Y-115750000D01*
X190500000Y-115750000D02*
X185420000Y-120830000D01*
X174270000Y-91440000D02*
X174936751Y-91440000D01*
X182245000Y-98748249D02*
X182245000Y-99125000D01*
X165100000Y-92430000D02*
X168630000Y-88900000D01*
X168630000Y-88900000D02*
X171730000Y-88900000D01*
X174936751Y-91440000D02*
X182245000Y-98748249D01*
X171730000Y-88900000D02*
X174270000Y-91440000D01*
X171450000Y-91720000D02*
X171170000Y-91440000D01*
X171450000Y-96835000D02*
X171450000Y-91720000D01*
X205740000Y-110460000D02*
X205740000Y-107290000D01*
X205740000Y-107290000D02*
X201550000Y-103100000D01*
X201637500Y-111760000D02*
X205740000Y-111760000D01*
X195580000Y-119380000D02*
X203200000Y-111760000D01*
X195580000Y-105702500D02*
X201637500Y-111760000D01*
X203200000Y-111760000D02*
X205740000Y-111760000D01*
X173990000Y-118110000D02*
X175260000Y-119380000D01*
X173990000Y-106365000D02*
X173990000Y-118110000D01*
X178760000Y-119380000D02*
X178760000Y-117800000D01*
X171450000Y-110490000D02*
X172720000Y-111760000D01*
X171450000Y-106365000D02*
X171450000Y-110490000D01*
X178760000Y-117800000D02*
X175260000Y-114300000D01*
X205740000Y-94630000D02*
X205740000Y-95910000D01*
X205740000Y-95910000D02*
X201550000Y-100100000D01*
G04 #@! TA.AperFunction,Conductor*
G36*
X210253621Y-81808502D02*
G01*
X210300114Y-81862158D01*
X210311500Y-81914500D01*
X210311500Y-131445500D01*
X210291498Y-131513621D01*
X210237842Y-131560114D01*
X210185500Y-131571500D01*
X160654500Y-131571500D01*
X160586379Y-131551498D01*
X160539886Y-131497842D01*
X160528500Y-131445500D01*
X160528500Y-126929733D01*
X163087822Y-126929733D01*
X163097625Y-127210458D01*
X163098387Y-127214781D01*
X163098388Y-127214788D01*
X163122164Y-127349624D01*
X163146402Y-127487087D01*
X163233203Y-127754235D01*
X163356340Y-128006702D01*
X163358795Y-128010341D01*
X163358798Y-128010347D01*
X163431890Y-128118710D01*
X163513415Y-128239576D01*
X163701371Y-128448322D01*
X163916550Y-128628879D01*
X164154764Y-128777731D01*
X164411375Y-128891982D01*
X164681390Y-128969407D01*
X164685740Y-128970018D01*
X164685743Y-128970019D01*
X164788690Y-128984487D01*
X164959552Y-129008500D01*
X165170146Y-129008500D01*
X165172332Y-129008347D01*
X165172336Y-129008347D01*
X165375827Y-128994118D01*
X165375832Y-128994117D01*
X165380212Y-128993811D01*
X165654970Y-128935409D01*
X165659099Y-128933906D01*
X165659103Y-128933905D01*
X165914781Y-128840846D01*
X165914785Y-128840844D01*
X165918926Y-128839337D01*
X166166942Y-128707464D01*
X166271896Y-128631211D01*
X166390629Y-128544947D01*
X166390632Y-128544944D01*
X166394192Y-128542358D01*
X166596252Y-128347231D01*
X166769188Y-128125882D01*
X166771384Y-128122078D01*
X166771389Y-128122071D01*
X166907435Y-127886431D01*
X166909636Y-127882619D01*
X167014862Y-127622176D01*
X167048544Y-127487087D01*
X167081753Y-127353893D01*
X167081754Y-127353888D01*
X167082817Y-127349624D01*
X167112178Y-127070267D01*
X167107271Y-126929733D01*
X203727822Y-126929733D01*
X203737625Y-127210458D01*
X203738387Y-127214781D01*
X203738388Y-127214788D01*
X203762164Y-127349624D01*
X203786402Y-127487087D01*
X203873203Y-127754235D01*
X203996340Y-128006702D01*
X203998795Y-128010341D01*
X203998798Y-128010347D01*
X204071890Y-128118710D01*
X204153415Y-128239576D01*
X204341371Y-128448322D01*
X204556550Y-128628879D01*
X204794764Y-128777731D01*
X205051375Y-128891982D01*
X205321390Y-128969407D01*
X205325740Y-128970018D01*
X205325743Y-128970019D01*
X205428690Y-128984487D01*
X205599552Y-129008500D01*
X205810146Y-129008500D01*
X205812332Y-129008347D01*
X205812336Y-129008347D01*
X206015827Y-128994118D01*
X206015832Y-128994117D01*
X206020212Y-128993811D01*
X206294970Y-128935409D01*
X206299099Y-128933906D01*
X206299103Y-128933905D01*
X206554781Y-128840846D01*
X206554785Y-128840844D01*
X206558926Y-128839337D01*
X206806942Y-128707464D01*
X206911896Y-128631211D01*
X207030629Y-128544947D01*
X207030632Y-128544944D01*
X207034192Y-128542358D01*
X207236252Y-128347231D01*
X207409188Y-128125882D01*
X207411384Y-128122078D01*
X207411389Y-128122071D01*
X207547435Y-127886431D01*
X207549636Y-127882619D01*
X207654862Y-127622176D01*
X207688544Y-127487087D01*
X207721753Y-127353893D01*
X207721754Y-127353888D01*
X207722817Y-127349624D01*
X207752178Y-127070267D01*
X207742375Y-126789542D01*
X207718608Y-126654749D01*
X207694360Y-126517236D01*
X207693598Y-126512913D01*
X207606797Y-126245765D01*
X207483660Y-125993298D01*
X207481205Y-125989659D01*
X207481202Y-125989653D01*
X207400935Y-125870653D01*
X207326585Y-125760424D01*
X207138629Y-125551678D01*
X206923450Y-125371121D01*
X206685236Y-125222269D01*
X206428625Y-125108018D01*
X206158610Y-125030593D01*
X206154260Y-125029982D01*
X206154257Y-125029981D01*
X206051310Y-125015513D01*
X205880448Y-124991500D01*
X205669854Y-124991500D01*
X205667668Y-124991653D01*
X205667664Y-124991653D01*
X205464173Y-125005882D01*
X205464168Y-125005883D01*
X205459788Y-125006189D01*
X205185030Y-125064591D01*
X205180901Y-125066094D01*
X205180897Y-125066095D01*
X204925219Y-125159154D01*
X204925215Y-125159156D01*
X204921074Y-125160663D01*
X204673058Y-125292536D01*
X204669499Y-125295122D01*
X204669497Y-125295123D01*
X204564895Y-125371121D01*
X204445808Y-125457642D01*
X204243748Y-125652769D01*
X204070812Y-125874118D01*
X204068616Y-125877922D01*
X204068611Y-125877929D01*
X203954794Y-126075067D01*
X203930364Y-126117381D01*
X203825138Y-126377824D01*
X203824073Y-126382097D01*
X203824072Y-126382099D01*
X203790379Y-126517236D01*
X203757183Y-126650376D01*
X203727822Y-126929733D01*
X167107271Y-126929733D01*
X167102375Y-126789542D01*
X167078608Y-126654749D01*
X167054360Y-126517236D01*
X167053598Y-126512913D01*
X166966797Y-126245765D01*
X166843660Y-125993298D01*
X166841205Y-125989659D01*
X166841202Y-125989653D01*
X166760935Y-125870653D01*
X166686585Y-125760424D01*
X166498629Y-125551678D01*
X166283450Y-125371121D01*
X166045236Y-125222269D01*
X165788625Y-125108018D01*
X165518610Y-125030593D01*
X165514260Y-125029982D01*
X165514257Y-125029981D01*
X165411310Y-125015513D01*
X165240448Y-124991500D01*
X165029854Y-124991500D01*
X165027668Y-124991653D01*
X165027664Y-124991653D01*
X164824173Y-125005882D01*
X164824168Y-125005883D01*
X164819788Y-125006189D01*
X164545030Y-125064591D01*
X164540901Y-125066094D01*
X164540897Y-125066095D01*
X164285219Y-125159154D01*
X164285215Y-125159156D01*
X164281074Y-125160663D01*
X164033058Y-125292536D01*
X164029499Y-125295122D01*
X164029497Y-125295123D01*
X163924895Y-125371121D01*
X163805808Y-125457642D01*
X163603748Y-125652769D01*
X163430812Y-125874118D01*
X163428616Y-125877922D01*
X163428611Y-125877929D01*
X163314794Y-126075067D01*
X163290364Y-126117381D01*
X163185138Y-126377824D01*
X163184073Y-126382097D01*
X163184072Y-126382099D01*
X163150379Y-126517236D01*
X163117183Y-126650376D01*
X163087822Y-126929733D01*
X160528500Y-126929733D01*
X160528500Y-121377095D01*
X163717001Y-121377095D01*
X163717338Y-121383614D01*
X163727257Y-121479206D01*
X163730149Y-121492600D01*
X163781588Y-121646784D01*
X163787761Y-121659962D01*
X163873063Y-121797807D01*
X163882099Y-121809208D01*
X163996829Y-121923739D01*
X164008240Y-121932751D01*
X164146243Y-122017816D01*
X164159424Y-122023963D01*
X164313710Y-122075138D01*
X164327086Y-122078005D01*
X164421438Y-122087672D01*
X164427854Y-122088000D01*
X164827885Y-122088000D01*
X164843124Y-122083525D01*
X164844329Y-122082135D01*
X164846000Y-122074452D01*
X164846000Y-122069884D01*
X165354000Y-122069884D01*
X165358475Y-122085123D01*
X165359865Y-122086328D01*
X165367548Y-122087999D01*
X165772095Y-122087999D01*
X165778614Y-122087662D01*
X165874206Y-122077743D01*
X165887600Y-122074851D01*
X166041784Y-122023412D01*
X166054962Y-122017239D01*
X166192807Y-121931937D01*
X166204208Y-121922901D01*
X166318739Y-121808171D01*
X166327751Y-121796760D01*
X166412816Y-121658757D01*
X166418963Y-121645576D01*
X166470138Y-121491290D01*
X166473005Y-121477914D01*
X166482672Y-121383562D01*
X166483000Y-121377146D01*
X166483000Y-121202115D01*
X166478525Y-121186876D01*
X166477135Y-121185671D01*
X166469452Y-121184000D01*
X165372115Y-121184000D01*
X165356876Y-121188475D01*
X165355671Y-121189865D01*
X165354000Y-121197548D01*
X165354000Y-122069884D01*
X164846000Y-122069884D01*
X164846000Y-121202115D01*
X164841525Y-121186876D01*
X164840135Y-121185671D01*
X164832452Y-121184000D01*
X163735116Y-121184000D01*
X163719877Y-121188475D01*
X163718672Y-121189865D01*
X163717001Y-121197548D01*
X163717001Y-121377095D01*
X160528500Y-121377095D01*
X160528500Y-120657885D01*
X163717000Y-120657885D01*
X163721475Y-120673124D01*
X163722865Y-120674329D01*
X163730548Y-120676000D01*
X164827885Y-120676000D01*
X164843124Y-120671525D01*
X164844329Y-120670135D01*
X164846000Y-120662452D01*
X164846000Y-120657885D01*
X165354000Y-120657885D01*
X165358475Y-120673124D01*
X165359865Y-120674329D01*
X165367548Y-120676000D01*
X166464884Y-120676000D01*
X166480123Y-120671525D01*
X166481328Y-120670135D01*
X166482999Y-120662452D01*
X166482999Y-120482905D01*
X166482662Y-120476386D01*
X166472743Y-120380794D01*
X166469851Y-120367400D01*
X166418412Y-120213216D01*
X166412239Y-120200038D01*
X166326937Y-120062193D01*
X166317901Y-120050792D01*
X166203171Y-119936261D01*
X166191760Y-119927249D01*
X166053757Y-119842184D01*
X166040576Y-119836037D01*
X165886290Y-119784862D01*
X165872914Y-119781995D01*
X165778562Y-119772328D01*
X165772145Y-119772000D01*
X165372115Y-119772000D01*
X165356876Y-119776475D01*
X165355671Y-119777865D01*
X165354000Y-119785548D01*
X165354000Y-120657885D01*
X164846000Y-120657885D01*
X164846000Y-119790116D01*
X164841525Y-119774877D01*
X164840135Y-119773672D01*
X164832452Y-119772001D01*
X164427905Y-119772001D01*
X164421386Y-119772338D01*
X164325794Y-119782257D01*
X164312400Y-119785149D01*
X164158216Y-119836588D01*
X164145038Y-119842761D01*
X164007193Y-119928063D01*
X163995792Y-119937099D01*
X163881261Y-120051829D01*
X163872249Y-120063240D01*
X163787184Y-120201243D01*
X163781037Y-120214424D01*
X163729862Y-120368710D01*
X163726995Y-120382086D01*
X163717328Y-120476438D01*
X163717000Y-120482855D01*
X163717000Y-120657885D01*
X160528500Y-120657885D01*
X160528500Y-118280400D01*
X163716500Y-118280400D01*
X163716837Y-118283646D01*
X163716837Y-118283650D01*
X163725132Y-118363593D01*
X163727474Y-118386166D01*
X163729655Y-118392702D01*
X163729655Y-118392704D01*
X163770684Y-118515683D01*
X163783450Y-118553946D01*
X163876522Y-118704348D01*
X164001697Y-118829305D01*
X164007927Y-118833145D01*
X164007928Y-118833146D01*
X164145090Y-118917694D01*
X164152262Y-118922115D01*
X164230074Y-118947924D01*
X164313611Y-118975632D01*
X164313613Y-118975632D01*
X164320139Y-118977797D01*
X164326975Y-118978497D01*
X164326978Y-118978498D01*
X164370031Y-118982909D01*
X164424600Y-118988500D01*
X165775400Y-118988500D01*
X165778646Y-118988163D01*
X165778650Y-118988163D01*
X165874308Y-118978238D01*
X165874312Y-118978237D01*
X165881166Y-118977526D01*
X165887702Y-118975345D01*
X165887704Y-118975345D01*
X166019806Y-118931272D01*
X166048946Y-118921550D01*
X166199348Y-118828478D01*
X166324305Y-118703303D01*
X166328146Y-118697072D01*
X166413275Y-118558968D01*
X166413276Y-118558966D01*
X166417115Y-118552738D01*
X166461707Y-118418297D01*
X166470632Y-118391389D01*
X166470632Y-118391387D01*
X166472797Y-118384861D01*
X166483500Y-118280400D01*
X166483500Y-117379600D01*
X166472526Y-117273834D01*
X166416550Y-117106054D01*
X166323478Y-116955652D01*
X166198303Y-116830695D01*
X166192072Y-116826854D01*
X166053968Y-116741725D01*
X166053966Y-116741724D01*
X166047738Y-116737885D01*
X165887254Y-116684655D01*
X165886389Y-116684368D01*
X165886387Y-116684368D01*
X165879861Y-116682203D01*
X165873023Y-116681502D01*
X165873021Y-116681502D01*
X165846658Y-116678801D01*
X165780930Y-116651960D01*
X165740148Y-116593845D01*
X165733500Y-116553457D01*
X165733500Y-114586450D01*
X165753502Y-114518329D01*
X165807158Y-114471836D01*
X165846496Y-114461123D01*
X165852780Y-114460471D01*
X165874306Y-114458238D01*
X165874309Y-114458237D01*
X165881165Y-114457526D01*
X165887701Y-114455345D01*
X165887703Y-114455345D01*
X166037642Y-114405321D01*
X166048945Y-114401550D01*
X166199348Y-114308478D01*
X166324305Y-114183303D01*
X166335910Y-114164476D01*
X166413275Y-114038968D01*
X166413276Y-114038966D01*
X166417115Y-114032738D01*
X166472797Y-113864861D01*
X166483500Y-113760400D01*
X166483500Y-112734600D01*
X166476642Y-112668500D01*
X166473238Y-112635693D01*
X166473237Y-112635689D01*
X166472526Y-112628835D01*
X166453765Y-112572600D01*
X166418868Y-112468003D01*
X166416550Y-112461055D01*
X166323478Y-112310652D01*
X166198303Y-112185695D01*
X166192072Y-112181854D01*
X166053968Y-112096725D01*
X166053966Y-112096724D01*
X166047738Y-112092885D01*
X165887254Y-112039655D01*
X165886389Y-112039368D01*
X165886387Y-112039368D01*
X165879861Y-112037203D01*
X165873025Y-112036503D01*
X165873022Y-112036502D01*
X165829969Y-112032091D01*
X165775400Y-112026500D01*
X164424600Y-112026500D01*
X164421354Y-112026837D01*
X164421350Y-112026837D01*
X164325693Y-112036762D01*
X164325689Y-112036763D01*
X164318835Y-112037474D01*
X164312299Y-112039655D01*
X164312297Y-112039655D01*
X164180195Y-112083728D01*
X164151055Y-112093450D01*
X164000652Y-112186522D01*
X163875695Y-112311697D01*
X163871855Y-112317927D01*
X163871854Y-112317928D01*
X163797307Y-112438866D01*
X163782885Y-112462262D01*
X163756436Y-112542005D01*
X163731248Y-112617945D01*
X163727203Y-112630139D01*
X163726503Y-112636975D01*
X163726502Y-112636978D01*
X163722091Y-112680031D01*
X163716500Y-112734600D01*
X163716500Y-113760400D01*
X163716837Y-113763646D01*
X163716837Y-113763650D01*
X163721305Y-113806705D01*
X163727474Y-113866165D01*
X163729655Y-113872701D01*
X163729655Y-113872703D01*
X163746523Y-113923261D01*
X163783450Y-114033945D01*
X163876522Y-114184348D01*
X163881704Y-114189521D01*
X163907647Y-114215419D01*
X164001697Y-114309305D01*
X164007927Y-114313145D01*
X164007928Y-114313146D01*
X164145090Y-114397694D01*
X164152262Y-114402115D01*
X164232005Y-114428564D01*
X164313611Y-114455632D01*
X164313613Y-114455632D01*
X164320139Y-114457797D01*
X164326977Y-114458498D01*
X164326979Y-114458498D01*
X164353342Y-114461199D01*
X164419070Y-114488040D01*
X164459852Y-114546155D01*
X164466500Y-114586543D01*
X164466500Y-116553550D01*
X164446498Y-116621671D01*
X164392842Y-116668164D01*
X164353504Y-116678877D01*
X164345865Y-116679669D01*
X164325692Y-116681762D01*
X164325688Y-116681763D01*
X164318834Y-116682474D01*
X164312298Y-116684655D01*
X164312296Y-116684655D01*
X164188044Y-116726109D01*
X164151054Y-116738450D01*
X164000652Y-116831522D01*
X163875695Y-116956697D01*
X163782885Y-117107262D01*
X163727203Y-117275139D01*
X163716500Y-117379600D01*
X163716500Y-118280400D01*
X160528500Y-118280400D01*
X160528500Y-110785400D01*
X163716500Y-110785400D01*
X163716837Y-110788646D01*
X163716837Y-110788650D01*
X163726457Y-110881362D01*
X163727474Y-110891165D01*
X163729655Y-110897701D01*
X163729655Y-110897703D01*
X163753719Y-110969832D01*
X163783450Y-111058945D01*
X163876522Y-111209348D01*
X164001697Y-111334305D01*
X164007927Y-111338145D01*
X164007928Y-111338146D01*
X164145090Y-111422694D01*
X164152262Y-111427115D01*
X164215226Y-111447999D01*
X164313611Y-111480632D01*
X164313613Y-111480632D01*
X164320139Y-111482797D01*
X164326975Y-111483497D01*
X164326978Y-111483498D01*
X164369798Y-111487885D01*
X164424600Y-111493500D01*
X165775400Y-111493500D01*
X165778646Y-111493163D01*
X165778650Y-111493163D01*
X165874307Y-111483238D01*
X165874311Y-111483237D01*
X165881165Y-111482526D01*
X165887701Y-111480345D01*
X165887703Y-111480345D01*
X166019805Y-111436272D01*
X166048945Y-111426550D01*
X166199348Y-111333478D01*
X166324305Y-111208303D01*
X166355596Y-111157540D01*
X166413275Y-111063968D01*
X166413276Y-111063966D01*
X166417115Y-111057738D01*
X166446973Y-110967718D01*
X166470632Y-110896389D01*
X166470632Y-110896387D01*
X166472797Y-110889861D01*
X166474368Y-110874535D01*
X166479742Y-110822074D01*
X166483500Y-110785400D01*
X166483500Y-109759600D01*
X166479568Y-109721703D01*
X166473238Y-109660693D01*
X166473237Y-109660689D01*
X166472526Y-109653835D01*
X166416550Y-109486055D01*
X166323478Y-109335652D01*
X166198303Y-109210695D01*
X166192072Y-109206854D01*
X166053968Y-109121725D01*
X166053966Y-109121724D01*
X166047738Y-109117885D01*
X165959573Y-109088642D01*
X165886389Y-109064368D01*
X165886387Y-109064368D01*
X165879861Y-109062203D01*
X165873023Y-109061502D01*
X165873021Y-109061502D01*
X165846658Y-109058801D01*
X165780930Y-109031960D01*
X165740148Y-108973845D01*
X165733500Y-108933457D01*
X165733500Y-107413134D01*
X170051500Y-107413134D01*
X170058255Y-107475316D01*
X170109385Y-107611705D01*
X170196739Y-107728261D01*
X170313295Y-107815615D01*
X170449684Y-107866745D01*
X170511866Y-107873500D01*
X170690500Y-107873500D01*
X170758621Y-107893502D01*
X170805114Y-107947158D01*
X170816500Y-107999500D01*
X170816500Y-110411233D01*
X170815973Y-110422416D01*
X170814298Y-110429909D01*
X170814547Y-110437835D01*
X170814547Y-110437836D01*
X170816438Y-110497986D01*
X170816500Y-110501945D01*
X170816500Y-110529856D01*
X170816997Y-110533790D01*
X170816997Y-110533791D01*
X170817005Y-110533856D01*
X170817938Y-110545693D01*
X170819327Y-110589889D01*
X170822495Y-110600793D01*
X170824978Y-110609339D01*
X170828987Y-110628700D01*
X170831526Y-110648797D01*
X170834445Y-110656168D01*
X170834445Y-110656170D01*
X170847804Y-110689912D01*
X170851649Y-110701142D01*
X170863982Y-110743593D01*
X170868015Y-110750412D01*
X170868017Y-110750417D01*
X170874293Y-110761028D01*
X170882988Y-110778776D01*
X170890448Y-110797617D01*
X170895110Y-110804033D01*
X170895110Y-110804034D01*
X170916436Y-110833387D01*
X170922952Y-110843307D01*
X170945458Y-110881362D01*
X170959779Y-110895683D01*
X170972619Y-110910716D01*
X170984528Y-110927107D01*
X171012920Y-110950595D01*
X171018605Y-110955298D01*
X171027384Y-110963288D01*
X171772878Y-111708782D01*
X171806904Y-111771094D01*
X171809092Y-111784703D01*
X171826458Y-111949928D01*
X171885473Y-112131556D01*
X171888776Y-112137278D01*
X171888777Y-112137279D01*
X171905947Y-112167018D01*
X171980960Y-112296944D01*
X171985378Y-112301851D01*
X171985379Y-112301852D01*
X172072149Y-112398220D01*
X172108747Y-112438866D01*
X172263248Y-112551118D01*
X172269276Y-112553802D01*
X172269278Y-112553803D01*
X172431681Y-112626109D01*
X172437712Y-112628794D01*
X172531112Y-112648647D01*
X172618056Y-112667128D01*
X172618061Y-112667128D01*
X172624513Y-112668500D01*
X172815487Y-112668500D01*
X172821939Y-112667128D01*
X172821944Y-112667128D01*
X172908888Y-112648647D01*
X173002288Y-112628794D01*
X173013930Y-112623611D01*
X173176752Y-112551118D01*
X173177677Y-112553196D01*
X173236488Y-112538924D01*
X173303581Y-112562141D01*
X173347472Y-112617945D01*
X173356500Y-112664782D01*
X173356500Y-118031233D01*
X173355973Y-118042416D01*
X173354298Y-118049909D01*
X173354547Y-118057835D01*
X173354547Y-118057836D01*
X173356438Y-118117986D01*
X173356500Y-118121945D01*
X173356500Y-118149856D01*
X173356997Y-118153790D01*
X173356997Y-118153791D01*
X173357005Y-118153856D01*
X173357938Y-118165693D01*
X173359327Y-118209889D01*
X173362743Y-118221646D01*
X173364978Y-118229339D01*
X173368987Y-118248700D01*
X173371526Y-118268797D01*
X173374445Y-118276168D01*
X173374445Y-118276170D01*
X173387804Y-118309912D01*
X173391649Y-118321142D01*
X173403982Y-118363593D01*
X173408015Y-118370412D01*
X173408017Y-118370417D01*
X173414293Y-118381028D01*
X173422988Y-118398776D01*
X173430448Y-118417617D01*
X173435110Y-118424033D01*
X173435110Y-118424034D01*
X173456436Y-118453387D01*
X173462952Y-118463307D01*
X173485458Y-118501362D01*
X173499779Y-118515683D01*
X173512619Y-118530716D01*
X173524528Y-118547107D01*
X173545027Y-118564065D01*
X173558605Y-118575298D01*
X173567384Y-118583288D01*
X173991672Y-119007576D01*
X174025698Y-119069888D01*
X174024284Y-119129281D01*
X174017309Y-119155312D01*
X174017308Y-119155319D01*
X174015885Y-119160629D01*
X173996693Y-119380000D01*
X174015885Y-119599371D01*
X174072880Y-119812076D01*
X174086920Y-119842184D01*
X174163618Y-120006666D01*
X174163621Y-120006671D01*
X174165944Y-120011653D01*
X174169100Y-120016160D01*
X174169101Y-120016162D01*
X174202066Y-120063240D01*
X174292251Y-120192038D01*
X174447962Y-120347749D01*
X174452471Y-120350906D01*
X174452473Y-120350908D01*
X174495155Y-120380794D01*
X174628346Y-120474056D01*
X174827924Y-120567120D01*
X175040629Y-120624115D01*
X175260000Y-120643307D01*
X175479371Y-120624115D01*
X175692076Y-120567120D01*
X175891654Y-120474056D01*
X176024845Y-120380794D01*
X176067527Y-120350908D01*
X176067529Y-120350906D01*
X176072038Y-120347749D01*
X176227749Y-120192038D01*
X176317935Y-120063240D01*
X176350899Y-120016162D01*
X176350900Y-120016160D01*
X176354056Y-120011653D01*
X176356379Y-120006671D01*
X176356382Y-120006666D01*
X176433080Y-119842184D01*
X176447120Y-119812076D01*
X176504115Y-119599371D01*
X176523307Y-119380000D01*
X176504115Y-119160629D01*
X176447120Y-118947924D01*
X176389005Y-118823296D01*
X176356382Y-118753334D01*
X176356379Y-118753329D01*
X176354056Y-118748347D01*
X176322516Y-118703303D01*
X176230908Y-118572473D01*
X176230906Y-118572470D01*
X176227749Y-118567962D01*
X176072038Y-118412251D01*
X176039637Y-118389563D01*
X175954342Y-118329839D01*
X175891654Y-118285944D01*
X175692076Y-118192880D01*
X175479371Y-118135885D01*
X175260000Y-118116693D01*
X175040629Y-118135885D01*
X175025444Y-118139954D01*
X175009283Y-118144284D01*
X174938306Y-118142594D01*
X174887577Y-118111672D01*
X174660405Y-117884500D01*
X174626379Y-117822188D01*
X174623500Y-117795405D01*
X174623500Y-115204782D01*
X174643502Y-115136661D01*
X174697158Y-115090168D01*
X174767432Y-115080064D01*
X174802730Y-115092282D01*
X174803248Y-115091118D01*
X174977712Y-115168794D01*
X175071112Y-115188647D01*
X175158056Y-115207128D01*
X175158061Y-115207128D01*
X175164513Y-115208500D01*
X175220406Y-115208500D01*
X175288527Y-115228502D01*
X175309501Y-115245405D01*
X178089595Y-118025499D01*
X178123621Y-118087811D01*
X178126500Y-118114594D01*
X178126500Y-118221646D01*
X178106498Y-118289767D01*
X178072772Y-118324858D01*
X178048849Y-118341609D01*
X177952473Y-118409092D01*
X177952470Y-118409094D01*
X177947962Y-118412251D01*
X177792251Y-118567962D01*
X177789094Y-118572470D01*
X177789092Y-118572473D01*
X177697484Y-118703303D01*
X177665944Y-118748347D01*
X177663621Y-118753329D01*
X177663618Y-118753334D01*
X177630995Y-118823296D01*
X177572880Y-118947924D01*
X177515885Y-119160629D01*
X177496693Y-119380000D01*
X177515885Y-119599371D01*
X177572880Y-119812076D01*
X177586920Y-119842184D01*
X177663618Y-120006666D01*
X177663621Y-120006671D01*
X177665944Y-120011653D01*
X177669100Y-120016160D01*
X177669101Y-120016162D01*
X177702066Y-120063240D01*
X177792251Y-120192038D01*
X177947962Y-120347749D01*
X177952471Y-120350906D01*
X177952473Y-120350908D01*
X177995155Y-120380794D01*
X178128346Y-120474056D01*
X178327924Y-120567120D01*
X178540629Y-120624115D01*
X178760000Y-120643307D01*
X178979371Y-120624115D01*
X179192076Y-120567120D01*
X179391654Y-120474056D01*
X179524845Y-120380794D01*
X179567527Y-120350908D01*
X179567529Y-120350906D01*
X179572038Y-120347749D01*
X179727749Y-120192038D01*
X179817935Y-120063240D01*
X179850899Y-120016162D01*
X179850900Y-120016160D01*
X179854056Y-120011653D01*
X179856379Y-120006671D01*
X179856382Y-120006666D01*
X179933080Y-119842184D01*
X179947120Y-119812076D01*
X180004115Y-119599371D01*
X180023307Y-119380000D01*
X180004115Y-119160629D01*
X179947120Y-118947924D01*
X179889005Y-118823296D01*
X179856382Y-118753334D01*
X179856379Y-118753329D01*
X179854056Y-118748347D01*
X179822516Y-118703303D01*
X179730908Y-118572473D01*
X179730906Y-118572470D01*
X179727749Y-118567962D01*
X179572038Y-118412251D01*
X179567530Y-118409094D01*
X179567527Y-118409092D01*
X179471151Y-118341609D01*
X179447228Y-118324858D01*
X179402901Y-118269402D01*
X179393500Y-118221646D01*
X179393500Y-117878763D01*
X179394027Y-117867579D01*
X179395701Y-117860091D01*
X179393562Y-117792032D01*
X179393500Y-117788075D01*
X179393500Y-117760144D01*
X179392994Y-117756138D01*
X179392061Y-117744292D01*
X179390922Y-117708037D01*
X179390673Y-117700110D01*
X179385022Y-117680658D01*
X179381014Y-117661306D01*
X179379468Y-117649068D01*
X179379467Y-117649066D01*
X179378474Y-117641203D01*
X179362194Y-117600086D01*
X179358359Y-117588885D01*
X179346018Y-117546406D01*
X179341985Y-117539587D01*
X179341983Y-117539582D01*
X179335707Y-117528971D01*
X179327010Y-117511221D01*
X179319552Y-117492383D01*
X179293571Y-117456623D01*
X179287053Y-117446701D01*
X179268578Y-117415460D01*
X179268574Y-117415455D01*
X179264542Y-117408637D01*
X179250218Y-117394313D01*
X179237376Y-117379278D01*
X179225472Y-117362893D01*
X179191406Y-117334711D01*
X179182627Y-117326722D01*
X176207122Y-114351217D01*
X176173096Y-114288905D01*
X176170907Y-114275292D01*
X176154232Y-114116635D01*
X176154232Y-114116633D01*
X176153542Y-114110072D01*
X176094527Y-113928444D01*
X175999040Y-113763056D01*
X175893209Y-113645518D01*
X175875675Y-113626045D01*
X175875674Y-113626044D01*
X175871253Y-113621134D01*
X175716752Y-113508882D01*
X175710724Y-113506198D01*
X175710722Y-113506197D01*
X175548319Y-113433891D01*
X175548318Y-113433891D01*
X175542288Y-113431206D01*
X175448887Y-113411353D01*
X175361944Y-113392872D01*
X175361939Y-113392872D01*
X175355487Y-113391500D01*
X175164513Y-113391500D01*
X175158061Y-113392872D01*
X175158056Y-113392872D01*
X175071113Y-113411353D01*
X174977712Y-113431206D01*
X174971682Y-113433891D01*
X174971681Y-113433891D01*
X174842525Y-113491395D01*
X174803248Y-113508882D01*
X174802323Y-113506804D01*
X174743512Y-113521076D01*
X174676419Y-113497859D01*
X174632528Y-113442055D01*
X174623500Y-113395218D01*
X174623500Y-107999500D01*
X174643502Y-107931379D01*
X174697158Y-107884886D01*
X174749500Y-107873500D01*
X174928134Y-107873500D01*
X174990316Y-107866745D01*
X175126705Y-107815615D01*
X175243261Y-107728261D01*
X175330615Y-107611705D01*
X175381745Y-107475316D01*
X175388500Y-107413134D01*
X175388500Y-105316866D01*
X175381745Y-105254684D01*
X175330615Y-105118295D01*
X175243261Y-105001739D01*
X175126705Y-104914385D01*
X174990316Y-104863255D01*
X174928134Y-104856500D01*
X173051866Y-104856500D01*
X172989684Y-104863255D01*
X172853295Y-104914385D01*
X172846110Y-104919770D01*
X172846108Y-104919771D01*
X172795565Y-104957651D01*
X172729058Y-104982499D01*
X172659676Y-104967446D01*
X172644435Y-104957651D01*
X172593892Y-104919771D01*
X172593890Y-104919770D01*
X172586705Y-104914385D01*
X172450316Y-104863255D01*
X172388134Y-104856500D01*
X170511866Y-104856500D01*
X170449684Y-104863255D01*
X170313295Y-104914385D01*
X170196739Y-105001739D01*
X170109385Y-105118295D01*
X170058255Y-105254684D01*
X170051500Y-105316866D01*
X170051500Y-107413134D01*
X165733500Y-107413134D01*
X165733500Y-104426450D01*
X165753502Y-104358329D01*
X165807158Y-104311836D01*
X165846496Y-104301123D01*
X165852780Y-104300471D01*
X165874306Y-104298238D01*
X165874309Y-104298237D01*
X165881165Y-104297526D01*
X165887701Y-104295345D01*
X165887703Y-104295345D01*
X166019805Y-104251272D01*
X166048945Y-104241550D01*
X166199348Y-104148478D01*
X166324305Y-104023303D01*
X166417115Y-103872738D01*
X166438809Y-103807333D01*
X166479240Y-103748973D01*
X166544804Y-103721736D01*
X166558402Y-103721000D01*
X167658733Y-103721000D01*
X167669916Y-103721527D01*
X167677409Y-103723202D01*
X167685335Y-103722953D01*
X167685336Y-103722953D01*
X167745486Y-103721062D01*
X167749445Y-103721000D01*
X167777356Y-103721000D01*
X167781291Y-103720503D01*
X167781356Y-103720495D01*
X167793193Y-103719562D01*
X167825451Y-103718548D01*
X167829470Y-103718422D01*
X167837389Y-103718173D01*
X167856843Y-103712521D01*
X167876200Y-103708513D01*
X167888430Y-103706968D01*
X167888431Y-103706968D01*
X167896297Y-103705974D01*
X167903668Y-103703055D01*
X167903670Y-103703055D01*
X167937412Y-103689696D01*
X167948642Y-103685851D01*
X167983483Y-103675729D01*
X167983484Y-103675729D01*
X167991093Y-103673518D01*
X167997912Y-103669485D01*
X167997917Y-103669483D01*
X168008528Y-103663207D01*
X168026276Y-103654512D01*
X168045117Y-103647052D01*
X168080887Y-103621064D01*
X168090807Y-103614548D01*
X168122035Y-103596080D01*
X168122038Y-103596078D01*
X168128862Y-103592042D01*
X168143183Y-103577721D01*
X168158217Y-103564880D01*
X168168194Y-103557631D01*
X168174607Y-103552972D01*
X168202798Y-103518895D01*
X168210788Y-103510116D01*
X173340499Y-98380405D01*
X173402811Y-98346379D01*
X173429594Y-98343500D01*
X174928134Y-98343500D01*
X174990316Y-98336745D01*
X175126705Y-98285615D01*
X175243261Y-98198261D01*
X175330615Y-98081705D01*
X175381745Y-97945316D01*
X175388500Y-97883134D01*
X175388500Y-97594500D01*
X175408502Y-97526379D01*
X175462158Y-97479886D01*
X175514500Y-97468500D01*
X178370406Y-97468500D01*
X178438527Y-97488502D01*
X178459501Y-97505405D01*
X180129595Y-99175500D01*
X180163621Y-99237812D01*
X180166500Y-99264595D01*
X180166500Y-100016502D01*
X180166693Y-100018950D01*
X180166693Y-100018958D01*
X180168927Y-100047333D01*
X180169438Y-100053831D01*
X180189272Y-100122101D01*
X180213586Y-100205790D01*
X180215855Y-100213601D01*
X180219892Y-100220427D01*
X180296509Y-100349980D01*
X180296511Y-100349983D01*
X180300547Y-100356807D01*
X180418193Y-100474453D01*
X180425016Y-100478488D01*
X180425020Y-100478491D01*
X180448426Y-100492333D01*
X180561399Y-100559145D01*
X180569010Y-100561356D01*
X180569012Y-100561357D01*
X180621231Y-100576528D01*
X180721169Y-100605562D01*
X180727574Y-100606066D01*
X180727579Y-100606067D01*
X180756042Y-100608307D01*
X180756050Y-100608307D01*
X180758498Y-100608500D01*
X181133655Y-100608500D01*
X181201776Y-100628502D01*
X181222750Y-100645405D01*
X182569592Y-101992247D01*
X182577136Y-102000537D01*
X182581249Y-102007018D01*
X182587026Y-102012443D01*
X182630916Y-102053658D01*
X182633758Y-102056413D01*
X182653479Y-102076134D01*
X182656674Y-102078612D01*
X182665696Y-102086318D01*
X182697928Y-102116586D01*
X182704877Y-102120406D01*
X182715681Y-102126346D01*
X182732205Y-102137199D01*
X182748208Y-102149613D01*
X182788792Y-102167176D01*
X182799422Y-102172383D01*
X182838189Y-102193695D01*
X182845866Y-102195666D01*
X182845871Y-102195668D01*
X182857807Y-102198732D01*
X182876515Y-102205137D01*
X182895104Y-102213181D01*
X182902932Y-102214421D01*
X182902939Y-102214423D01*
X182938773Y-102220099D01*
X182950393Y-102222505D01*
X182985538Y-102231528D01*
X182993219Y-102233500D01*
X183013473Y-102233500D01*
X183033183Y-102235051D01*
X183053192Y-102238220D01*
X183061084Y-102237474D01*
X183097210Y-102234059D01*
X183109068Y-102233500D01*
X184025500Y-102233500D01*
X184093621Y-102253502D01*
X184140114Y-102307158D01*
X184151500Y-102359500D01*
X184151500Y-102551776D01*
X184131498Y-102619897D01*
X184077842Y-102666390D01*
X184007568Y-102676494D01*
X183961364Y-102660231D01*
X183928601Y-102640855D01*
X183920990Y-102638644D01*
X183920988Y-102638643D01*
X183856462Y-102619897D01*
X183768831Y-102594438D01*
X183762426Y-102593934D01*
X183762421Y-102593933D01*
X183733958Y-102591693D01*
X183733950Y-102591693D01*
X183731502Y-102591500D01*
X183298498Y-102591500D01*
X183296050Y-102591693D01*
X183296042Y-102591693D01*
X183267579Y-102593933D01*
X183267574Y-102593934D01*
X183261169Y-102594438D01*
X183173538Y-102619897D01*
X183109012Y-102638643D01*
X183109010Y-102638644D01*
X183101399Y-102640855D01*
X182958193Y-102725547D01*
X182955511Y-102728229D01*
X182891139Y-102753502D01*
X182821516Y-102739600D01*
X182805688Y-102729428D01*
X182801807Y-102725547D01*
X182658601Y-102640855D01*
X182650990Y-102638644D01*
X182650988Y-102638643D01*
X182586462Y-102619897D01*
X182498831Y-102594438D01*
X182492426Y-102593934D01*
X182492421Y-102593933D01*
X182463958Y-102591693D01*
X182463950Y-102591693D01*
X182461502Y-102591500D01*
X182028498Y-102591500D01*
X182026050Y-102591693D01*
X182026042Y-102591693D01*
X181997579Y-102593933D01*
X181997574Y-102593934D01*
X181991169Y-102594438D01*
X181903538Y-102619897D01*
X181839012Y-102638643D01*
X181839010Y-102638644D01*
X181831399Y-102640855D01*
X181688193Y-102725547D01*
X181685511Y-102728229D01*
X181621139Y-102753502D01*
X181551516Y-102739600D01*
X181535688Y-102729428D01*
X181531807Y-102725547D01*
X181388601Y-102640855D01*
X181380990Y-102638644D01*
X181380988Y-102638643D01*
X181316462Y-102619897D01*
X181228831Y-102594438D01*
X181222426Y-102593934D01*
X181222421Y-102593933D01*
X181193958Y-102591693D01*
X181193950Y-102591693D01*
X181191502Y-102591500D01*
X180758498Y-102591500D01*
X180756050Y-102591693D01*
X180756042Y-102591693D01*
X180727579Y-102593933D01*
X180727574Y-102593934D01*
X180721169Y-102594438D01*
X180633538Y-102619897D01*
X180569012Y-102638643D01*
X180569010Y-102638644D01*
X180561399Y-102640855D01*
X180554572Y-102644892D01*
X180554573Y-102644892D01*
X180425020Y-102721509D01*
X180425017Y-102721511D01*
X180418193Y-102725547D01*
X180300547Y-102843193D01*
X180296511Y-102850017D01*
X180296509Y-102850020D01*
X180232893Y-102957589D01*
X180215855Y-102986399D01*
X180169438Y-103146169D01*
X180168934Y-103152574D01*
X180168933Y-103152579D01*
X180166693Y-103181042D01*
X180166500Y-103183498D01*
X180166500Y-104966502D01*
X180166693Y-104968950D01*
X180166693Y-104968958D01*
X180168850Y-104996358D01*
X180169438Y-105003831D01*
X180198472Y-105103769D01*
X180205690Y-105128611D01*
X180215855Y-105163601D01*
X180219892Y-105170427D01*
X180296509Y-105299980D01*
X180296511Y-105299983D01*
X180300547Y-105306807D01*
X180306155Y-105312415D01*
X180311011Y-105318675D01*
X180309504Y-105319844D01*
X180338621Y-105373167D01*
X180341500Y-105399950D01*
X180341500Y-108798733D01*
X180340973Y-108809916D01*
X180339298Y-108817409D01*
X180339547Y-108825335D01*
X180339547Y-108825336D01*
X180341438Y-108885486D01*
X180341500Y-108889445D01*
X180341500Y-108917356D01*
X180341997Y-108921290D01*
X180341997Y-108921291D01*
X180342005Y-108921356D01*
X180342938Y-108933193D01*
X180344327Y-108977389D01*
X180349978Y-108996839D01*
X180353987Y-109016200D01*
X180356526Y-109036297D01*
X180359445Y-109043668D01*
X180359445Y-109043670D01*
X180372804Y-109077412D01*
X180376649Y-109088642D01*
X180385145Y-109117885D01*
X180388982Y-109131093D01*
X180393015Y-109137912D01*
X180393017Y-109137917D01*
X180399293Y-109148528D01*
X180407988Y-109166276D01*
X180415448Y-109185117D01*
X180420110Y-109191533D01*
X180420110Y-109191534D01*
X180441436Y-109220887D01*
X180447952Y-109230807D01*
X180470458Y-109268862D01*
X180484779Y-109283183D01*
X180497619Y-109298216D01*
X180509528Y-109314607D01*
X180528714Y-109330479D01*
X180543605Y-109342798D01*
X180552384Y-109350788D01*
X182649595Y-111447999D01*
X182683621Y-111510311D01*
X182686500Y-111537094D01*
X182686500Y-112460400D01*
X182686837Y-112463646D01*
X182686837Y-112463650D01*
X182696752Y-112559206D01*
X182697474Y-112566166D01*
X182699655Y-112572702D01*
X182699655Y-112572704D01*
X182718368Y-112628794D01*
X182753450Y-112733946D01*
X182846522Y-112884348D01*
X182971697Y-113009305D01*
X182977927Y-113013145D01*
X182977928Y-113013146D01*
X183115288Y-113097816D01*
X183122262Y-113102115D01*
X183202005Y-113128564D01*
X183283611Y-113155632D01*
X183283613Y-113155632D01*
X183290139Y-113157797D01*
X183296975Y-113158497D01*
X183296978Y-113158498D01*
X183340031Y-113162909D01*
X183394600Y-113168500D01*
X184320400Y-113168500D01*
X184323646Y-113168163D01*
X184323650Y-113168163D01*
X184419308Y-113158238D01*
X184419312Y-113158237D01*
X184426166Y-113157526D01*
X184432702Y-113155345D01*
X184432704Y-113155345D01*
X184564806Y-113111272D01*
X184593946Y-113101550D01*
X184744348Y-113008478D01*
X184869305Y-112883303D01*
X184962115Y-112732738D01*
X184996578Y-112628835D01*
X185015632Y-112571389D01*
X185015632Y-112571387D01*
X185017797Y-112564861D01*
X185019206Y-112551115D01*
X185027721Y-112468003D01*
X185028500Y-112460400D01*
X185028500Y-112457095D01*
X185812001Y-112457095D01*
X185812338Y-112463614D01*
X185822257Y-112559206D01*
X185825149Y-112572600D01*
X185876588Y-112726784D01*
X185882761Y-112739962D01*
X185968063Y-112877807D01*
X185977099Y-112889208D01*
X186091829Y-113003739D01*
X186103240Y-113012751D01*
X186241243Y-113097816D01*
X186254424Y-113103963D01*
X186408710Y-113155138D01*
X186422086Y-113158005D01*
X186516438Y-113167672D01*
X186522854Y-113168000D01*
X186710385Y-113168000D01*
X186725624Y-113163525D01*
X186726829Y-113162135D01*
X186728500Y-113154452D01*
X186728500Y-112032115D01*
X186724025Y-112016876D01*
X186722635Y-112015671D01*
X186714952Y-112014000D01*
X185830116Y-112014000D01*
X185814877Y-112018475D01*
X185813672Y-112019865D01*
X185812001Y-112027548D01*
X185812001Y-112457095D01*
X185028500Y-112457095D01*
X185028500Y-111059600D01*
X185027586Y-111050791D01*
X185018238Y-110960692D01*
X185018237Y-110960688D01*
X185017526Y-110953834D01*
X185010295Y-110932158D01*
X184963868Y-110793002D01*
X184961550Y-110786054D01*
X184868478Y-110635652D01*
X184743303Y-110510695D01*
X184729108Y-110501945D01*
X184598968Y-110421725D01*
X184598966Y-110421724D01*
X184592738Y-110417885D01*
X184451275Y-110370964D01*
X184431389Y-110364368D01*
X184431387Y-110364368D01*
X184424861Y-110362203D01*
X184418025Y-110361503D01*
X184418022Y-110361502D01*
X184374969Y-110357091D01*
X184320400Y-110351500D01*
X183397094Y-110351500D01*
X183328973Y-110331498D01*
X183307999Y-110314595D01*
X181645405Y-108652000D01*
X181611379Y-108589688D01*
X181608500Y-108562905D01*
X181608500Y-106608594D01*
X181628502Y-106540473D01*
X181682158Y-106493980D01*
X181752432Y-106483876D01*
X181817012Y-106513370D01*
X181823595Y-106519499D01*
X181932878Y-106628782D01*
X181966904Y-106691094D01*
X181969093Y-106704707D01*
X181985709Y-106862797D01*
X181986458Y-106869928D01*
X182045473Y-107051556D01*
X182140960Y-107216944D01*
X182145378Y-107221851D01*
X182145379Y-107221852D01*
X182227452Y-107313003D01*
X182268747Y-107358866D01*
X182423248Y-107471118D01*
X182429276Y-107473802D01*
X182429278Y-107473803D01*
X182449295Y-107482715D01*
X182597712Y-107548794D01*
X182691113Y-107568647D01*
X182778056Y-107587128D01*
X182778061Y-107587128D01*
X182784513Y-107588500D01*
X182975487Y-107588500D01*
X182981939Y-107587128D01*
X182981944Y-107587128D01*
X183068888Y-107568647D01*
X183162288Y-107548794D01*
X183310705Y-107482715D01*
X183330722Y-107473803D01*
X183330724Y-107473802D01*
X183336752Y-107471118D01*
X183444667Y-107392713D01*
X183511535Y-107368855D01*
X183580686Y-107384935D01*
X183607823Y-107405554D01*
X186383270Y-110181001D01*
X186417296Y-110243313D01*
X186412231Y-110314128D01*
X186369684Y-110370964D01*
X186334050Y-110389620D01*
X186253218Y-110416587D01*
X186240038Y-110422761D01*
X186102193Y-110508063D01*
X186090792Y-110517099D01*
X185976261Y-110631829D01*
X185967249Y-110643240D01*
X185882184Y-110781243D01*
X185876037Y-110794424D01*
X185824862Y-110948710D01*
X185821995Y-110962086D01*
X185812328Y-111056438D01*
X185812000Y-111062855D01*
X185812000Y-111487885D01*
X185816475Y-111503124D01*
X185817865Y-111504329D01*
X185825548Y-111506000D01*
X187110500Y-111506000D01*
X187178621Y-111526002D01*
X187225114Y-111579658D01*
X187236500Y-111632000D01*
X187236500Y-113149884D01*
X187240975Y-113165123D01*
X187247575Y-113170842D01*
X187299594Y-113199246D01*
X187333620Y-113261558D01*
X187336500Y-113288343D01*
X187336500Y-113715406D01*
X187316498Y-113783527D01*
X187299595Y-113804501D01*
X184669500Y-116434595D01*
X184607188Y-116468621D01*
X184580405Y-116471500D01*
X183771866Y-116471500D01*
X183709684Y-116478255D01*
X183573295Y-116529385D01*
X183456739Y-116616739D01*
X183369385Y-116733295D01*
X183318255Y-116869684D01*
X183311500Y-116931866D01*
X183311500Y-118228134D01*
X183318255Y-118290316D01*
X183369385Y-118426705D01*
X183456739Y-118543261D01*
X183573295Y-118630615D01*
X183709684Y-118681745D01*
X183771866Y-118688500D01*
X185068134Y-118688500D01*
X185130316Y-118681745D01*
X185266705Y-118630615D01*
X185273892Y-118625229D01*
X185344435Y-118572360D01*
X185410942Y-118547512D01*
X185480324Y-118562565D01*
X185495565Y-118572360D01*
X185566108Y-118625229D01*
X185573295Y-118630615D01*
X185709684Y-118681745D01*
X185771866Y-118688500D01*
X186361405Y-118688500D01*
X186429526Y-118708502D01*
X186476019Y-118762158D01*
X186486123Y-118832432D01*
X186456629Y-118897012D01*
X186450500Y-118903595D01*
X185819500Y-119534595D01*
X185757188Y-119568621D01*
X185730405Y-119571500D01*
X184571866Y-119571500D01*
X184509684Y-119578255D01*
X184373295Y-119629385D01*
X184256739Y-119716739D01*
X184169385Y-119833295D01*
X184118255Y-119969684D01*
X184111500Y-120031866D01*
X184111500Y-121628134D01*
X184118255Y-121690316D01*
X184169385Y-121826705D01*
X184256739Y-121943261D01*
X184373295Y-122030615D01*
X184509684Y-122081745D01*
X184571866Y-122088500D01*
X186268134Y-122088500D01*
X186330316Y-122081745D01*
X186466705Y-122030615D01*
X186583261Y-121943261D01*
X186670615Y-121826705D01*
X186721745Y-121690316D01*
X186728500Y-121628134D01*
X186728500Y-120469594D01*
X186748502Y-120401473D01*
X186765405Y-120380499D01*
X188816066Y-118329839D01*
X190892253Y-116253652D01*
X190900539Y-116246112D01*
X190907018Y-116242000D01*
X190953644Y-116192348D01*
X190956398Y-116189507D01*
X190976135Y-116169770D01*
X190978615Y-116166573D01*
X190986320Y-116157551D01*
X191011159Y-116131100D01*
X191016586Y-116125321D01*
X191020405Y-116118375D01*
X191020407Y-116118372D01*
X191026348Y-116107566D01*
X191037199Y-116091047D01*
X191044758Y-116081301D01*
X191049614Y-116075041D01*
X191052759Y-116067772D01*
X191052762Y-116067768D01*
X191067174Y-116034463D01*
X191072391Y-116023813D01*
X191093695Y-115985060D01*
X191098733Y-115965437D01*
X191105137Y-115946734D01*
X191110033Y-115935420D01*
X191110033Y-115935419D01*
X191113181Y-115928145D01*
X191114420Y-115920322D01*
X191114423Y-115920312D01*
X191120099Y-115884476D01*
X191122505Y-115872856D01*
X191131528Y-115837711D01*
X191131528Y-115837710D01*
X191133500Y-115830030D01*
X191133500Y-115809776D01*
X191135051Y-115790065D01*
X191136980Y-115777886D01*
X191138220Y-115770057D01*
X191134059Y-115726038D01*
X191133500Y-115714181D01*
X191133500Y-106966450D01*
X191153502Y-106898329D01*
X191207158Y-106851836D01*
X191246496Y-106841123D01*
X191254135Y-106840331D01*
X191274308Y-106838238D01*
X191274312Y-106838237D01*
X191281166Y-106837526D01*
X191287702Y-106835345D01*
X191287704Y-106835345D01*
X191419806Y-106791272D01*
X191448946Y-106781550D01*
X191599348Y-106688478D01*
X191623710Y-106664074D01*
X191698305Y-106589348D01*
X191724305Y-106563303D01*
X191751306Y-106519499D01*
X191813275Y-106418968D01*
X191813276Y-106418966D01*
X191817115Y-106412738D01*
X191872797Y-106244861D01*
X191883500Y-106140400D01*
X191883500Y-105239600D01*
X191883163Y-105236350D01*
X191873238Y-105140692D01*
X191873237Y-105140688D01*
X191872526Y-105133834D01*
X191864945Y-105111109D01*
X191826272Y-104995194D01*
X191816550Y-104966054D01*
X191723478Y-104815652D01*
X191598303Y-104690695D01*
X191592072Y-104686854D01*
X191453968Y-104601725D01*
X191453966Y-104601724D01*
X191447738Y-104597885D01*
X191287254Y-104544655D01*
X191286389Y-104544368D01*
X191286387Y-104544368D01*
X191279861Y-104542203D01*
X191273025Y-104541503D01*
X191273022Y-104541502D01*
X191229969Y-104537091D01*
X191175400Y-104531500D01*
X189824600Y-104531500D01*
X189821354Y-104531837D01*
X189821350Y-104531837D01*
X189779689Y-104536160D01*
X189764711Y-104537714D01*
X189694889Y-104524849D01*
X189643107Y-104476278D01*
X189625805Y-104407422D01*
X189648475Y-104340143D01*
X189662612Y-104323292D01*
X190200499Y-103785405D01*
X190262811Y-103751379D01*
X190289594Y-103748500D01*
X191175400Y-103748500D01*
X191178646Y-103748163D01*
X191178650Y-103748163D01*
X191274308Y-103738238D01*
X191274312Y-103738237D01*
X191281166Y-103737526D01*
X191287702Y-103735345D01*
X191287704Y-103735345D01*
X191441998Y-103683868D01*
X191448946Y-103681550D01*
X191599348Y-103588478D01*
X191724305Y-103463303D01*
X191763634Y-103399500D01*
X191813275Y-103318968D01*
X191813276Y-103318966D01*
X191817115Y-103312738D01*
X191843564Y-103232995D01*
X191870632Y-103151389D01*
X191870632Y-103151387D01*
X191872797Y-103144861D01*
X191883500Y-103040400D01*
X191883500Y-103037095D01*
X194172001Y-103037095D01*
X194172338Y-103043614D01*
X194182257Y-103139206D01*
X194185149Y-103152600D01*
X194236588Y-103306784D01*
X194242761Y-103319962D01*
X194328063Y-103457807D01*
X194337099Y-103469208D01*
X194451829Y-103583739D01*
X194463240Y-103592751D01*
X194601243Y-103677816D01*
X194614424Y-103683963D01*
X194768710Y-103735138D01*
X194782086Y-103738005D01*
X194876438Y-103747672D01*
X194882854Y-103748000D01*
X195307885Y-103748000D01*
X195323124Y-103743525D01*
X195324329Y-103742135D01*
X195326000Y-103734452D01*
X195326000Y-103729884D01*
X195834000Y-103729884D01*
X195838475Y-103745123D01*
X195839865Y-103746328D01*
X195847548Y-103747999D01*
X196277095Y-103747999D01*
X196283614Y-103747662D01*
X196379206Y-103737743D01*
X196392600Y-103734851D01*
X196546784Y-103683412D01*
X196559962Y-103677239D01*
X196697807Y-103591937D01*
X196709208Y-103582901D01*
X196823739Y-103468171D01*
X196832751Y-103456760D01*
X196917816Y-103318757D01*
X196923963Y-103305576D01*
X196975138Y-103151290D01*
X196978005Y-103137914D01*
X196987672Y-103043562D01*
X196988000Y-103037146D01*
X196988000Y-102849615D01*
X196983525Y-102834376D01*
X196982135Y-102833171D01*
X196974452Y-102831500D01*
X195852115Y-102831500D01*
X195836876Y-102835975D01*
X195835671Y-102837365D01*
X195834000Y-102845048D01*
X195834000Y-103729884D01*
X195326000Y-103729884D01*
X195326000Y-102849615D01*
X195321525Y-102834376D01*
X195320135Y-102833171D01*
X195312452Y-102831500D01*
X194190116Y-102831500D01*
X194174877Y-102835975D01*
X194173672Y-102837365D01*
X194172001Y-102845048D01*
X194172001Y-103037095D01*
X191883500Y-103037095D01*
X191883500Y-102305385D01*
X194172000Y-102305385D01*
X194176475Y-102320624D01*
X194177865Y-102321829D01*
X194185548Y-102323500D01*
X195307885Y-102323500D01*
X195323124Y-102319025D01*
X195324329Y-102317635D01*
X195326000Y-102309952D01*
X195326000Y-102305385D01*
X195834000Y-102305385D01*
X195838475Y-102320624D01*
X195839865Y-102321829D01*
X195847548Y-102323500D01*
X196969884Y-102323500D01*
X196985123Y-102319025D01*
X196986328Y-102317635D01*
X196987999Y-102309952D01*
X196987999Y-102117905D01*
X196987662Y-102111386D01*
X196977743Y-102015794D01*
X196974851Y-102002400D01*
X196923412Y-101848216D01*
X196917239Y-101835038D01*
X196831937Y-101697193D01*
X196822901Y-101685792D01*
X196708171Y-101571261D01*
X196696760Y-101562249D01*
X196558757Y-101477184D01*
X196545576Y-101471037D01*
X196391290Y-101419862D01*
X196377914Y-101416995D01*
X196283562Y-101407328D01*
X196277145Y-101407000D01*
X195852115Y-101407000D01*
X195836876Y-101411475D01*
X195835671Y-101412865D01*
X195834000Y-101420548D01*
X195834000Y-102305385D01*
X195326000Y-102305385D01*
X195326000Y-101425116D01*
X195321525Y-101409877D01*
X195320135Y-101408672D01*
X195312452Y-101407001D01*
X194882905Y-101407001D01*
X194876386Y-101407338D01*
X194780794Y-101417257D01*
X194767400Y-101420149D01*
X194613216Y-101471588D01*
X194600038Y-101477761D01*
X194462193Y-101563063D01*
X194450792Y-101572099D01*
X194336261Y-101686829D01*
X194327249Y-101698240D01*
X194242184Y-101836243D01*
X194236037Y-101849424D01*
X194184862Y-102003710D01*
X194181995Y-102017086D01*
X194172328Y-102111438D01*
X194172000Y-102117855D01*
X194172000Y-102305385D01*
X191883500Y-102305385D01*
X191883500Y-102154594D01*
X191903502Y-102086473D01*
X191920405Y-102065499D01*
X193432247Y-100553657D01*
X193440537Y-100546113D01*
X193447018Y-100542000D01*
X193493659Y-100492332D01*
X193496413Y-100489491D01*
X193516134Y-100469770D01*
X193518612Y-100466575D01*
X193526318Y-100457553D01*
X193551158Y-100431101D01*
X193556586Y-100425321D01*
X193566346Y-100407568D01*
X193577199Y-100391045D01*
X193584753Y-100381306D01*
X193589613Y-100375041D01*
X193607176Y-100334457D01*
X193612383Y-100323827D01*
X193633695Y-100285060D01*
X193635666Y-100277383D01*
X193635668Y-100277378D01*
X193638732Y-100265442D01*
X193645138Y-100246730D01*
X193650034Y-100235417D01*
X193653181Y-100228145D01*
X193656691Y-100205988D01*
X193660097Y-100184481D01*
X193662504Y-100172860D01*
X193671528Y-100137711D01*
X193671528Y-100137710D01*
X193673500Y-100130030D01*
X193673500Y-100109769D01*
X193675051Y-100090058D01*
X193676979Y-100077885D01*
X193678219Y-100070057D01*
X193674059Y-100026046D01*
X193673500Y-100014189D01*
X193673500Y-99346450D01*
X193693502Y-99278329D01*
X193747158Y-99231836D01*
X193786496Y-99221123D01*
X193794135Y-99220331D01*
X193814308Y-99218238D01*
X193814312Y-99218237D01*
X193821166Y-99217526D01*
X193827702Y-99215345D01*
X193827704Y-99215345D01*
X193962183Y-99170479D01*
X193988946Y-99161550D01*
X194139348Y-99068478D01*
X194151102Y-99056704D01*
X194259134Y-98948483D01*
X194264305Y-98943303D01*
X194288305Y-98904368D01*
X194353275Y-98798968D01*
X194353276Y-98798966D01*
X194357115Y-98792738D01*
X194412797Y-98624861D01*
X194423500Y-98520400D01*
X194423500Y-97619600D01*
X194416398Y-97551148D01*
X194413238Y-97520692D01*
X194413237Y-97520688D01*
X194412526Y-97513834D01*
X194397402Y-97468500D01*
X194358868Y-97353002D01*
X194356550Y-97346054D01*
X194263478Y-97195652D01*
X194138303Y-97070695D01*
X193987738Y-96977885D01*
X193907995Y-96951436D01*
X193826389Y-96924368D01*
X193826387Y-96924368D01*
X193819861Y-96922203D01*
X193813025Y-96921503D01*
X193813022Y-96921502D01*
X193769969Y-96917091D01*
X193715400Y-96911500D01*
X192364600Y-96911500D01*
X192361354Y-96911837D01*
X192361350Y-96911837D01*
X192330741Y-96915013D01*
X192304711Y-96917714D01*
X192234891Y-96904849D01*
X192183108Y-96856279D01*
X192165806Y-96787423D01*
X192188476Y-96720143D01*
X192202613Y-96703292D01*
X192740500Y-96165405D01*
X192802812Y-96131379D01*
X192829595Y-96128500D01*
X193715400Y-96128500D01*
X193718646Y-96128163D01*
X193718650Y-96128163D01*
X193814308Y-96118238D01*
X193814312Y-96118237D01*
X193821166Y-96117526D01*
X193827702Y-96115345D01*
X193827704Y-96115345D01*
X193981998Y-96063868D01*
X193988946Y-96061550D01*
X194139348Y-95968478D01*
X194264305Y-95843303D01*
X194296987Y-95790283D01*
X194353275Y-95698968D01*
X194353276Y-95698966D01*
X194357115Y-95692738D01*
X194359419Y-95685791D01*
X194362513Y-95679156D01*
X194364749Y-95680199D01*
X194398523Y-95631462D01*
X194464091Y-95604234D01*
X194477672Y-95603500D01*
X196073733Y-95603500D01*
X196084916Y-95604027D01*
X196092409Y-95605702D01*
X196100335Y-95605453D01*
X196100336Y-95605453D01*
X196160486Y-95603562D01*
X196164445Y-95603500D01*
X196192356Y-95603500D01*
X196196291Y-95603003D01*
X196196356Y-95602995D01*
X196208193Y-95602062D01*
X196240451Y-95601048D01*
X196244470Y-95600922D01*
X196252389Y-95600673D01*
X196271843Y-95595021D01*
X196291200Y-95591013D01*
X196303430Y-95589468D01*
X196303431Y-95589468D01*
X196311297Y-95588474D01*
X196318668Y-95585555D01*
X196318670Y-95585555D01*
X196352412Y-95572196D01*
X196363642Y-95568351D01*
X196398483Y-95558229D01*
X196398484Y-95558229D01*
X196406093Y-95556018D01*
X196412912Y-95551985D01*
X196412917Y-95551983D01*
X196423528Y-95545707D01*
X196441276Y-95537012D01*
X196460117Y-95529552D01*
X196495887Y-95503564D01*
X196505807Y-95497048D01*
X196537035Y-95478580D01*
X196537038Y-95478578D01*
X196543862Y-95474542D01*
X196558183Y-95460221D01*
X196573217Y-95447380D01*
X196583194Y-95440131D01*
X196589607Y-95435472D01*
X196617798Y-95401395D01*
X196625788Y-95392616D01*
X199132999Y-92885405D01*
X199195311Y-92851379D01*
X199222094Y-92848500D01*
X200142906Y-92848500D01*
X200211027Y-92868502D01*
X200232001Y-92885405D01*
X201068843Y-93722247D01*
X201076387Y-93730537D01*
X201080500Y-93737018D01*
X201086277Y-93742443D01*
X201130167Y-93783658D01*
X201133009Y-93786413D01*
X201152731Y-93806135D01*
X201155855Y-93808558D01*
X201155859Y-93808562D01*
X201155924Y-93808612D01*
X201164945Y-93816317D01*
X201197179Y-93846586D01*
X201204127Y-93850405D01*
X201204129Y-93850407D01*
X201214932Y-93856346D01*
X201231459Y-93867202D01*
X201241198Y-93874757D01*
X201241200Y-93874758D01*
X201247460Y-93879614D01*
X201288040Y-93897174D01*
X201298688Y-93902391D01*
X201337440Y-93923695D01*
X201345116Y-93925666D01*
X201345119Y-93925667D01*
X201357062Y-93928733D01*
X201375767Y-93935137D01*
X201394355Y-93943181D01*
X201402178Y-93944420D01*
X201402188Y-93944423D01*
X201438024Y-93950099D01*
X201449644Y-93952505D01*
X201484789Y-93961528D01*
X201492470Y-93963500D01*
X201512724Y-93963500D01*
X201532434Y-93965051D01*
X201552443Y-93968220D01*
X201560335Y-93967474D01*
X201596461Y-93964059D01*
X201608319Y-93963500D01*
X204355500Y-93963500D01*
X204423621Y-93983502D01*
X204470114Y-94037158D01*
X204481500Y-94089500D01*
X204481500Y-95178134D01*
X204488255Y-95240316D01*
X204539385Y-95376705D01*
X204626739Y-95493261D01*
X204743295Y-95580615D01*
X204751704Y-95583767D01*
X204751705Y-95583768D01*
X204872937Y-95629216D01*
X204929702Y-95671857D01*
X204954402Y-95738419D01*
X204939195Y-95807768D01*
X204917803Y-95836293D01*
X203282809Y-97471286D01*
X201649500Y-99104595D01*
X201587188Y-99138621D01*
X201560405Y-99141500D01*
X200851866Y-99141500D01*
X200789684Y-99148255D01*
X200653295Y-99199385D01*
X200536739Y-99286739D01*
X200449385Y-99403295D01*
X200398255Y-99539684D01*
X200391500Y-99601866D01*
X200391500Y-100598134D01*
X200398255Y-100660316D01*
X200449385Y-100796705D01*
X200536739Y-100913261D01*
X200653295Y-101000615D01*
X200789684Y-101051745D01*
X200851866Y-101058500D01*
X202248134Y-101058500D01*
X202310316Y-101051745D01*
X202446705Y-101000615D01*
X202563261Y-100913261D01*
X202650615Y-100796705D01*
X202701745Y-100660316D01*
X202708500Y-100598134D01*
X202708500Y-99889594D01*
X202728502Y-99821473D01*
X202745405Y-99800499D01*
X206132253Y-96413652D01*
X206140539Y-96406112D01*
X206147018Y-96402000D01*
X206193644Y-96352348D01*
X206196398Y-96349507D01*
X206216135Y-96329770D01*
X206218615Y-96326573D01*
X206226320Y-96317551D01*
X206251159Y-96291100D01*
X206256586Y-96285321D01*
X206260405Y-96278375D01*
X206260407Y-96278372D01*
X206266348Y-96267566D01*
X206277199Y-96251047D01*
X206277559Y-96250583D01*
X206289614Y-96235041D01*
X206292759Y-96227772D01*
X206292762Y-96227768D01*
X206307174Y-96194463D01*
X206312391Y-96183813D01*
X206333695Y-96145060D01*
X206338733Y-96125437D01*
X206345137Y-96106734D01*
X206350033Y-96095420D01*
X206350033Y-96095419D01*
X206353181Y-96088145D01*
X206354420Y-96080322D01*
X206354423Y-96080312D01*
X206360099Y-96044476D01*
X206362505Y-96032856D01*
X206371528Y-95997711D01*
X206371528Y-95997710D01*
X206373500Y-95990030D01*
X206373500Y-95969776D01*
X206375051Y-95950065D01*
X206376980Y-95937886D01*
X206378220Y-95930057D01*
X206374059Y-95886038D01*
X206373500Y-95874181D01*
X206373500Y-95764500D01*
X206393502Y-95696379D01*
X206447158Y-95649886D01*
X206499500Y-95638500D01*
X206538134Y-95638500D01*
X206600316Y-95631745D01*
X206736705Y-95580615D01*
X206853261Y-95493261D01*
X206940615Y-95376705D01*
X206991745Y-95240316D01*
X206998500Y-95178134D01*
X206999215Y-95178212D01*
X207021813Y-95114292D01*
X207077909Y-95070775D01*
X207148627Y-95064495D01*
X207213058Y-95098962D01*
X207609595Y-95495499D01*
X207643621Y-95557811D01*
X207646500Y-95584594D01*
X207646500Y-111205405D01*
X207626498Y-111273526D01*
X207609595Y-111294501D01*
X207213595Y-111690500D01*
X207151283Y-111724525D01*
X207080467Y-111719460D01*
X207023632Y-111676913D01*
X206998821Y-111610393D01*
X206998500Y-111601404D01*
X206998500Y-111211866D01*
X206991745Y-111149684D01*
X206988971Y-111142285D01*
X206988225Y-111139146D01*
X206988225Y-111080854D01*
X206988971Y-111077715D01*
X206991745Y-111070316D01*
X206998500Y-111008134D01*
X206998500Y-109911866D01*
X206991745Y-109849684D01*
X206940615Y-109713295D01*
X206853261Y-109596739D01*
X206736705Y-109509385D01*
X206600316Y-109458255D01*
X206538134Y-109451500D01*
X206499500Y-109451500D01*
X206431379Y-109431498D01*
X206384886Y-109377842D01*
X206373500Y-109325500D01*
X206373500Y-107368767D01*
X206374027Y-107357584D01*
X206375702Y-107350091D01*
X206373562Y-107282000D01*
X206373500Y-107278043D01*
X206373500Y-107250144D01*
X206372996Y-107246153D01*
X206372063Y-107234311D01*
X206371672Y-107221852D01*
X206370674Y-107190111D01*
X206368462Y-107182497D01*
X206368461Y-107182492D01*
X206365023Y-107170659D01*
X206361012Y-107151295D01*
X206360277Y-107145472D01*
X206358474Y-107131203D01*
X206355557Y-107123836D01*
X206355556Y-107123831D01*
X206342198Y-107090092D01*
X206338354Y-107078865D01*
X206328230Y-107044022D01*
X206326018Y-107036407D01*
X206315707Y-107018972D01*
X206307012Y-107001224D01*
X206299552Y-106982383D01*
X206273564Y-106946613D01*
X206267048Y-106936693D01*
X206248580Y-106905465D01*
X206248578Y-106905462D01*
X206244542Y-106898638D01*
X206230221Y-106884317D01*
X206217380Y-106869283D01*
X206213080Y-106863365D01*
X206205472Y-106852893D01*
X206171395Y-106824702D01*
X206162616Y-106816712D01*
X202745405Y-103399500D01*
X202711379Y-103337188D01*
X202708500Y-103310405D01*
X202708500Y-102601866D01*
X202701745Y-102539684D01*
X202650615Y-102403295D01*
X202563261Y-102286739D01*
X202446705Y-102199385D01*
X202310316Y-102148255D01*
X202248134Y-102141500D01*
X200851866Y-102141500D01*
X200789684Y-102148255D01*
X200653295Y-102199385D01*
X200536739Y-102286739D01*
X200449385Y-102403295D01*
X200398255Y-102539684D01*
X200391500Y-102601866D01*
X200391500Y-103598134D01*
X200398255Y-103660316D01*
X200449385Y-103796705D01*
X200536739Y-103913261D01*
X200653295Y-104000615D01*
X200789684Y-104051745D01*
X200851866Y-104058500D01*
X201560406Y-104058500D01*
X201628527Y-104078502D01*
X201649501Y-104095405D01*
X205069595Y-107515500D01*
X205103621Y-107577812D01*
X205106500Y-107604595D01*
X205106500Y-109325500D01*
X205086498Y-109393621D01*
X205032842Y-109440114D01*
X204980500Y-109451500D01*
X204941866Y-109451500D01*
X204879684Y-109458255D01*
X204743295Y-109509385D01*
X204626739Y-109596739D01*
X204539385Y-109713295D01*
X204488255Y-109849684D01*
X204481500Y-109911866D01*
X204481500Y-111000500D01*
X204461498Y-111068621D01*
X204407842Y-111115114D01*
X204355500Y-111126500D01*
X203278763Y-111126500D01*
X203267579Y-111125973D01*
X203260091Y-111124299D01*
X203252168Y-111124548D01*
X203192033Y-111126438D01*
X203188075Y-111126500D01*
X201952094Y-111126500D01*
X201883973Y-111106498D01*
X201862999Y-111089595D01*
X197025405Y-106252001D01*
X196991379Y-106189689D01*
X196988500Y-106162906D01*
X196988500Y-105239600D01*
X196988163Y-105236350D01*
X196978238Y-105140692D01*
X196978237Y-105140688D01*
X196977526Y-105133834D01*
X196969945Y-105111109D01*
X196931272Y-104995194D01*
X196921550Y-104966054D01*
X196828478Y-104815652D01*
X196703303Y-104690695D01*
X196697072Y-104686854D01*
X196558968Y-104601725D01*
X196558966Y-104601724D01*
X196552738Y-104597885D01*
X196392254Y-104544655D01*
X196391389Y-104544368D01*
X196391387Y-104544368D01*
X196384861Y-104542203D01*
X196378025Y-104541503D01*
X196378022Y-104541502D01*
X196334969Y-104537091D01*
X196280400Y-104531500D01*
X194879600Y-104531500D01*
X194876354Y-104531837D01*
X194876350Y-104531837D01*
X194780692Y-104541762D01*
X194780688Y-104541763D01*
X194773834Y-104542474D01*
X194767298Y-104544655D01*
X194767296Y-104544655D01*
X194635194Y-104588728D01*
X194606054Y-104598450D01*
X194455652Y-104691522D01*
X194330695Y-104816697D01*
X194326855Y-104822927D01*
X194326854Y-104822928D01*
X194305933Y-104856869D01*
X194237885Y-104967262D01*
X194182203Y-105135139D01*
X194181503Y-105141975D01*
X194181502Y-105141978D01*
X194179287Y-105163601D01*
X194171500Y-105239600D01*
X194171500Y-106165400D01*
X194171837Y-106168646D01*
X194171837Y-106168650D01*
X194180323Y-106250431D01*
X194182474Y-106271166D01*
X194238450Y-106438946D01*
X194331522Y-106589348D01*
X194456697Y-106714305D01*
X194462927Y-106718145D01*
X194462928Y-106718146D01*
X194569549Y-106783868D01*
X194607262Y-106807115D01*
X194687005Y-106833564D01*
X194768611Y-106860632D01*
X194768613Y-106860632D01*
X194775139Y-106862797D01*
X194781975Y-106863497D01*
X194781978Y-106863498D01*
X194825031Y-106867909D01*
X194879600Y-106873500D01*
X195802906Y-106873500D01*
X195871027Y-106893502D01*
X195892001Y-106910405D01*
X201133843Y-112152247D01*
X201141387Y-112160537D01*
X201145500Y-112167018D01*
X201151277Y-112172443D01*
X201195167Y-112213658D01*
X201198009Y-112216413D01*
X201217731Y-112236135D01*
X201220855Y-112238558D01*
X201220859Y-112238562D01*
X201220924Y-112238612D01*
X201229945Y-112246317D01*
X201262179Y-112276586D01*
X201269127Y-112280405D01*
X201269129Y-112280407D01*
X201279932Y-112286346D01*
X201296459Y-112297202D01*
X201306198Y-112304757D01*
X201306200Y-112304758D01*
X201312460Y-112309614D01*
X201353040Y-112327174D01*
X201363688Y-112332391D01*
X201402440Y-112353695D01*
X201410116Y-112355666D01*
X201410119Y-112355667D01*
X201422062Y-112358733D01*
X201440769Y-112365138D01*
X201450823Y-112369489D01*
X201505396Y-112414901D01*
X201526755Y-112482609D01*
X201508117Y-112551115D01*
X201489875Y-112574220D01*
X195952423Y-118111672D01*
X195890111Y-118145698D01*
X195830717Y-118144284D01*
X195814556Y-118139954D01*
X195799371Y-118135885D01*
X195580000Y-118116693D01*
X195360629Y-118135885D01*
X195147924Y-118192880D01*
X195054562Y-118236415D01*
X194953334Y-118283618D01*
X194953329Y-118283621D01*
X194948347Y-118285944D01*
X194943840Y-118289100D01*
X194943838Y-118289101D01*
X194772473Y-118409092D01*
X194772470Y-118409094D01*
X194767962Y-118412251D01*
X194612251Y-118567962D01*
X194609094Y-118572470D01*
X194609092Y-118572473D01*
X194517484Y-118703303D01*
X194485944Y-118748347D01*
X194483621Y-118753329D01*
X194483618Y-118753334D01*
X194450995Y-118823296D01*
X194392880Y-118947924D01*
X194335885Y-119160629D01*
X194316693Y-119380000D01*
X194335885Y-119599371D01*
X194392880Y-119812076D01*
X194406920Y-119842184D01*
X194483618Y-120006666D01*
X194483621Y-120006671D01*
X194485944Y-120011653D01*
X194489100Y-120016160D01*
X194489101Y-120016162D01*
X194522066Y-120063240D01*
X194612251Y-120192038D01*
X194767962Y-120347749D01*
X194772471Y-120350906D01*
X194772473Y-120350908D01*
X194815155Y-120380794D01*
X194948346Y-120474056D01*
X195147924Y-120567120D01*
X195360629Y-120624115D01*
X195580000Y-120643307D01*
X195799371Y-120624115D01*
X196012076Y-120567120D01*
X196211654Y-120474056D01*
X196274342Y-120430161D01*
X198394393Y-120430161D01*
X198403687Y-120442175D01*
X198444088Y-120470464D01*
X198453584Y-120475947D01*
X198643113Y-120564326D01*
X198653405Y-120568072D01*
X198855401Y-120622196D01*
X198866196Y-120624099D01*
X199074525Y-120642326D01*
X199085475Y-120642326D01*
X199293804Y-120624099D01*
X199304599Y-120622196D01*
X199506595Y-120568072D01*
X199516887Y-120564326D01*
X199706416Y-120475947D01*
X199715912Y-120470464D01*
X199757148Y-120441590D01*
X199765523Y-120431112D01*
X199758457Y-120417668D01*
X199092811Y-119752021D01*
X199078868Y-119744408D01*
X199077034Y-119744539D01*
X199070420Y-119748790D01*
X198400820Y-120418391D01*
X198394393Y-120430161D01*
X196274342Y-120430161D01*
X196344845Y-120380794D01*
X196387527Y-120350908D01*
X196387529Y-120350906D01*
X196392038Y-120347749D01*
X196547749Y-120192038D01*
X196637935Y-120063240D01*
X196670899Y-120016162D01*
X196670900Y-120016160D01*
X196674056Y-120011653D01*
X196676379Y-120006671D01*
X196676382Y-120006666D01*
X196753080Y-119842184D01*
X196767120Y-119812076D01*
X196824115Y-119599371D01*
X196842828Y-119385475D01*
X197817674Y-119385475D01*
X197835901Y-119593804D01*
X197837804Y-119604599D01*
X197891928Y-119806595D01*
X197895674Y-119816887D01*
X197984054Y-120006417D01*
X197989534Y-120015907D01*
X198018411Y-120057149D01*
X198028887Y-120065523D01*
X198042334Y-120058455D01*
X198707979Y-119392811D01*
X198714356Y-119381132D01*
X199444408Y-119381132D01*
X199444539Y-119382966D01*
X199448790Y-119389580D01*
X200118391Y-120059180D01*
X200130161Y-120065607D01*
X200142176Y-120056311D01*
X200170466Y-120015907D01*
X200175946Y-120006417D01*
X200264326Y-119816887D01*
X200268072Y-119806595D01*
X200322196Y-119604599D01*
X200324099Y-119593804D01*
X200342326Y-119385475D01*
X200342326Y-119374525D01*
X200324099Y-119166196D01*
X200322196Y-119155401D01*
X200268072Y-118953405D01*
X200264326Y-118943113D01*
X200175946Y-118753583D01*
X200170466Y-118744093D01*
X200141589Y-118702851D01*
X200131113Y-118694477D01*
X200117666Y-118701545D01*
X199452021Y-119367189D01*
X199444408Y-119381132D01*
X198714356Y-119381132D01*
X198715592Y-119378868D01*
X198715461Y-119377034D01*
X198711210Y-119370420D01*
X198041609Y-118700820D01*
X198029839Y-118694393D01*
X198017824Y-118703689D01*
X197989534Y-118744093D01*
X197984054Y-118753583D01*
X197895674Y-118943113D01*
X197891928Y-118953405D01*
X197837804Y-119155401D01*
X197835901Y-119166196D01*
X197817674Y-119374525D01*
X197817674Y-119385475D01*
X196842828Y-119385475D01*
X196843307Y-119380000D01*
X196824115Y-119160629D01*
X196822692Y-119155319D01*
X196822691Y-119155312D01*
X196815716Y-119129281D01*
X196817406Y-119058304D01*
X196848328Y-119007576D01*
X197527017Y-118328887D01*
X198394477Y-118328887D01*
X198401545Y-118342334D01*
X199067189Y-119007979D01*
X199081132Y-119015592D01*
X199082966Y-119015461D01*
X199089580Y-119011210D01*
X199759180Y-118341609D01*
X199765607Y-118329839D01*
X199756313Y-118317825D01*
X199715912Y-118289536D01*
X199706416Y-118284053D01*
X199516887Y-118195674D01*
X199506595Y-118191928D01*
X199304599Y-118137804D01*
X199293804Y-118135901D01*
X199085475Y-118117674D01*
X199074525Y-118117674D01*
X198866196Y-118135901D01*
X198855401Y-118137804D01*
X198653405Y-118191928D01*
X198643113Y-118195674D01*
X198453583Y-118284054D01*
X198444093Y-118289534D01*
X198402851Y-118318411D01*
X198394477Y-118328887D01*
X197527017Y-118328887D01*
X203425499Y-112430405D01*
X203487811Y-112396379D01*
X203514594Y-112393500D01*
X204355500Y-112393500D01*
X204423621Y-112413502D01*
X204470114Y-112467158D01*
X204481500Y-112519500D01*
X204481500Y-113608134D01*
X204488255Y-113670316D01*
X204539385Y-113806705D01*
X204626739Y-113923261D01*
X204743295Y-114010615D01*
X204879684Y-114061745D01*
X204941866Y-114068500D01*
X206538134Y-114068500D01*
X206600316Y-114061745D01*
X206736705Y-114010615D01*
X206853261Y-113923261D01*
X206940615Y-113806705D01*
X206959198Y-113757134D01*
X206985365Y-113687335D01*
X207028007Y-113630571D01*
X207041156Y-113622110D01*
X207047617Y-113619552D01*
X207054026Y-113614896D01*
X207054029Y-113614894D01*
X207083387Y-113593564D01*
X207093307Y-113587048D01*
X207124535Y-113568580D01*
X207124538Y-113568578D01*
X207131362Y-113564542D01*
X207145683Y-113550221D01*
X207160717Y-113537380D01*
X207170694Y-113530131D01*
X207177107Y-113525472D01*
X207205298Y-113491395D01*
X207213288Y-113482616D01*
X208672253Y-112023652D01*
X208680539Y-112016112D01*
X208687018Y-112012000D01*
X208733644Y-111962348D01*
X208736398Y-111959507D01*
X208756135Y-111939770D01*
X208758615Y-111936573D01*
X208766320Y-111927551D01*
X208791159Y-111901100D01*
X208796586Y-111895321D01*
X208800405Y-111888375D01*
X208800407Y-111888372D01*
X208806348Y-111877566D01*
X208817199Y-111861047D01*
X208824758Y-111851301D01*
X208829614Y-111845041D01*
X208832759Y-111837772D01*
X208832762Y-111837768D01*
X208847174Y-111804463D01*
X208852391Y-111793813D01*
X208873695Y-111755060D01*
X208878733Y-111735437D01*
X208885137Y-111716734D01*
X208890033Y-111705420D01*
X208890033Y-111705419D01*
X208893181Y-111698145D01*
X208894420Y-111690322D01*
X208894423Y-111690312D01*
X208900099Y-111654476D01*
X208902505Y-111642856D01*
X208911528Y-111607711D01*
X208911528Y-111607710D01*
X208913500Y-111600030D01*
X208913500Y-111579776D01*
X208915051Y-111560065D01*
X208916980Y-111547886D01*
X208918220Y-111540057D01*
X208914059Y-111496038D01*
X208913500Y-111484181D01*
X208913500Y-95348767D01*
X208914027Y-95337584D01*
X208915702Y-95330091D01*
X208913562Y-95262014D01*
X208913500Y-95258055D01*
X208913500Y-95230144D01*
X208912995Y-95226144D01*
X208912062Y-95214301D01*
X208910922Y-95178029D01*
X208910673Y-95170110D01*
X208905022Y-95150658D01*
X208901014Y-95131306D01*
X208899467Y-95119063D01*
X208898474Y-95111203D01*
X208887255Y-95082866D01*
X208882200Y-95070097D01*
X208878355Y-95058870D01*
X208877721Y-95056687D01*
X208866018Y-95016407D01*
X208861984Y-95009585D01*
X208861981Y-95009579D01*
X208855706Y-94998968D01*
X208847010Y-94981218D01*
X208842472Y-94969756D01*
X208842469Y-94969751D01*
X208839552Y-94962383D01*
X208813573Y-94926625D01*
X208807057Y-94916707D01*
X208788575Y-94885457D01*
X208784542Y-94878637D01*
X208770218Y-94864313D01*
X208757376Y-94849278D01*
X208745472Y-94832893D01*
X208711406Y-94804711D01*
X208702627Y-94796722D01*
X207035405Y-93129500D01*
X207001379Y-93067188D01*
X206998500Y-93040405D01*
X206998500Y-92781866D01*
X206991745Y-92719684D01*
X206940615Y-92583295D01*
X206853261Y-92466739D01*
X206736705Y-92379385D01*
X206600316Y-92328255D01*
X206538134Y-92321500D01*
X204941866Y-92321500D01*
X204879684Y-92328255D01*
X204743295Y-92379385D01*
X204626739Y-92466739D01*
X204539385Y-92583295D01*
X204536233Y-92591703D01*
X204536231Y-92591707D01*
X204527599Y-92614731D01*
X204484957Y-92671495D01*
X204418395Y-92696194D01*
X204409618Y-92696500D01*
X201887094Y-92696500D01*
X201818973Y-92676498D01*
X201798003Y-92659599D01*
X200890403Y-91751998D01*
X200856379Y-91689688D01*
X200853500Y-91662905D01*
X200853500Y-90739600D01*
X200845832Y-90665692D01*
X200843238Y-90640692D01*
X200843237Y-90640688D01*
X200842526Y-90633834D01*
X200832110Y-90602612D01*
X200788868Y-90473002D01*
X200786550Y-90466054D01*
X200693478Y-90315652D01*
X200673658Y-90295866D01*
X200573483Y-90195866D01*
X200568303Y-90190695D01*
X200502472Y-90150116D01*
X200423968Y-90101725D01*
X200423966Y-90101724D01*
X200417738Y-90097885D01*
X200303506Y-90059996D01*
X200256389Y-90044368D01*
X200256387Y-90044368D01*
X200249861Y-90042203D01*
X200243025Y-90041503D01*
X200243022Y-90041502D01*
X200194180Y-90036498D01*
X200145400Y-90031500D01*
X199219600Y-90031500D01*
X199216354Y-90031837D01*
X199216350Y-90031837D01*
X199120692Y-90041762D01*
X199120688Y-90041763D01*
X199113834Y-90042474D01*
X199107298Y-90044655D01*
X199107296Y-90044655D01*
X199041034Y-90066762D01*
X198946054Y-90098450D01*
X198795652Y-90191522D01*
X198670695Y-90316697D01*
X198666855Y-90322927D01*
X198666854Y-90322928D01*
X198605021Y-90423240D01*
X198577885Y-90467262D01*
X198522203Y-90635139D01*
X198521503Y-90641975D01*
X198521502Y-90641978D01*
X198518941Y-90666978D01*
X198511500Y-90739600D01*
X198511500Y-91662906D01*
X198491498Y-91731027D01*
X198474595Y-91752001D01*
X197937661Y-92288935D01*
X197875349Y-92322961D01*
X197804534Y-92317896D01*
X197747698Y-92275349D01*
X197722887Y-92208829D01*
X197723222Y-92186998D01*
X197727672Y-92143562D01*
X197728000Y-92137146D01*
X197728000Y-91712115D01*
X197723525Y-91696876D01*
X197722135Y-91695671D01*
X197714452Y-91694000D01*
X196829615Y-91694000D01*
X196814376Y-91698475D01*
X196813171Y-91699865D01*
X196811500Y-91707548D01*
X196811500Y-92829884D01*
X196815975Y-92845123D01*
X196817365Y-92846328D01*
X196825048Y-92847999D01*
X197017095Y-92847999D01*
X197023614Y-92847662D01*
X197066906Y-92843170D01*
X197136727Y-92856035D01*
X197188509Y-92904606D01*
X197205811Y-92973462D01*
X197183140Y-93040742D01*
X197169007Y-93057589D01*
X196522695Y-93703900D01*
X195927000Y-94299595D01*
X195864688Y-94333621D01*
X195837905Y-94336500D01*
X194477516Y-94336500D01*
X194409395Y-94316498D01*
X194362902Y-94262842D01*
X194359863Y-94255126D01*
X194358868Y-94253003D01*
X194356550Y-94246054D01*
X194263478Y-94095652D01*
X194138303Y-93970695D01*
X194129147Y-93965051D01*
X193993968Y-93881725D01*
X193993966Y-93881724D01*
X193987738Y-93877885D01*
X193893374Y-93846586D01*
X193826389Y-93824368D01*
X193826387Y-93824368D01*
X193819861Y-93822203D01*
X193813025Y-93821503D01*
X193813022Y-93821502D01*
X193769969Y-93817091D01*
X193715400Y-93811500D01*
X192364600Y-93811500D01*
X192361354Y-93811837D01*
X192361350Y-93811837D01*
X192265692Y-93821762D01*
X192265688Y-93821763D01*
X192258834Y-93822474D01*
X192252298Y-93824655D01*
X192252296Y-93824655D01*
X192153501Y-93857616D01*
X192091054Y-93878450D01*
X191940652Y-93971522D01*
X191815695Y-94096697D01*
X191722885Y-94247262D01*
X191705527Y-94299595D01*
X191678274Y-94381762D01*
X191667203Y-94415139D01*
X191666503Y-94421975D01*
X191666502Y-94421978D01*
X191664479Y-94441725D01*
X191656500Y-94519600D01*
X191656500Y-95405406D01*
X191636498Y-95473527D01*
X191619595Y-95494501D01*
X185465718Y-101648377D01*
X185403408Y-101682402D01*
X185332593Y-101677337D01*
X185287530Y-101648376D01*
X185275218Y-101636064D01*
X185262376Y-101621029D01*
X185250472Y-101604644D01*
X185216406Y-101576462D01*
X185207627Y-101568473D01*
X184846901Y-101207747D01*
X184839361Y-101199461D01*
X184835249Y-101192982D01*
X184785597Y-101146356D01*
X184782756Y-101143602D01*
X184763019Y-101123865D01*
X184759822Y-101121385D01*
X184750800Y-101113680D01*
X184724349Y-101088841D01*
X184718570Y-101083414D01*
X184711624Y-101079595D01*
X184711621Y-101079593D01*
X184700815Y-101073652D01*
X184684296Y-101062801D01*
X184678275Y-101058131D01*
X184668290Y-101050386D01*
X184661021Y-101047241D01*
X184661017Y-101047238D01*
X184627712Y-101032826D01*
X184617062Y-101027609D01*
X184578309Y-101006305D01*
X184568425Y-101003767D01*
X184558687Y-101001267D01*
X184539983Y-100994863D01*
X184528669Y-100989967D01*
X184528668Y-100989967D01*
X184521394Y-100986819D01*
X184513571Y-100985580D01*
X184513561Y-100985577D01*
X184477725Y-100979901D01*
X184466105Y-100977495D01*
X184430960Y-100968472D01*
X184430959Y-100968472D01*
X184423279Y-100966500D01*
X184403025Y-100966500D01*
X184383314Y-100964949D01*
X184371135Y-100963020D01*
X184363306Y-100961780D01*
X184355414Y-100962526D01*
X184319288Y-100965941D01*
X184307430Y-100966500D01*
X183387844Y-100966500D01*
X183319723Y-100946498D01*
X183298749Y-100929595D01*
X183191750Y-100822596D01*
X183157724Y-100760284D01*
X183162789Y-100689469D01*
X183205336Y-100632633D01*
X183271856Y-100607822D01*
X183290726Y-100607889D01*
X183296029Y-100608306D01*
X183296037Y-100608306D01*
X183298498Y-100608500D01*
X183731502Y-100608500D01*
X183733950Y-100608307D01*
X183733958Y-100608307D01*
X183762421Y-100606067D01*
X183762426Y-100606066D01*
X183768831Y-100605562D01*
X183868769Y-100576528D01*
X183920988Y-100561357D01*
X183920990Y-100561356D01*
X183928601Y-100559145D01*
X184071807Y-100474453D01*
X184074747Y-100471513D01*
X184139271Y-100446179D01*
X184208894Y-100460080D01*
X184227640Y-100472129D01*
X184235323Y-100478089D01*
X184364779Y-100554648D01*
X184379210Y-100560893D01*
X184513605Y-100599939D01*
X184527706Y-100599899D01*
X184531000Y-100592630D01*
X184531000Y-100586878D01*
X185039000Y-100586878D01*
X185042973Y-100600409D01*
X185050871Y-100601544D01*
X185190790Y-100560893D01*
X185205221Y-100554648D01*
X185334678Y-100478089D01*
X185347104Y-100468449D01*
X185453449Y-100362104D01*
X185463089Y-100349678D01*
X185539648Y-100220221D01*
X185545893Y-100205790D01*
X185588269Y-100059935D01*
X185590570Y-100047333D01*
X185592807Y-100018916D01*
X185593000Y-100013986D01*
X185593000Y-99397115D01*
X185588525Y-99381876D01*
X185587135Y-99380671D01*
X185579452Y-99379000D01*
X185057115Y-99379000D01*
X185041876Y-99383475D01*
X185040671Y-99384865D01*
X185039000Y-99392548D01*
X185039000Y-100586878D01*
X184531000Y-100586878D01*
X184531000Y-98852885D01*
X185039000Y-98852885D01*
X185043475Y-98868124D01*
X185044865Y-98869329D01*
X185052548Y-98871000D01*
X185574884Y-98871000D01*
X185590123Y-98866525D01*
X185591328Y-98865135D01*
X185592999Y-98857452D01*
X185592999Y-98236017D01*
X185592805Y-98231080D01*
X185590570Y-98202664D01*
X185588270Y-98190069D01*
X185545893Y-98044210D01*
X185539648Y-98029779D01*
X185463089Y-97900322D01*
X185453449Y-97887896D01*
X185347104Y-97781551D01*
X185334678Y-97771911D01*
X185205221Y-97695352D01*
X185190790Y-97689107D01*
X185056395Y-97650061D01*
X185042294Y-97650101D01*
X185039000Y-97657370D01*
X185039000Y-98852885D01*
X184531000Y-98852885D01*
X184531000Y-97663122D01*
X184527027Y-97649591D01*
X184519129Y-97648456D01*
X184379210Y-97689107D01*
X184364779Y-97695352D01*
X184338639Y-97710811D01*
X184269823Y-97728270D01*
X184202491Y-97705753D01*
X184158022Y-97650409D01*
X184148500Y-97602357D01*
X184148500Y-97233768D01*
X184149027Y-97222585D01*
X184150702Y-97215092D01*
X184149929Y-97190479D01*
X184148562Y-97147002D01*
X184148500Y-97143044D01*
X184148500Y-94399594D01*
X184168502Y-94331473D01*
X184185405Y-94310499D01*
X185710500Y-92785405D01*
X185772812Y-92751379D01*
X185799595Y-92748500D01*
X187260400Y-92748500D01*
X187263646Y-92748163D01*
X187263650Y-92748163D01*
X187359308Y-92738238D01*
X187359312Y-92738237D01*
X187366166Y-92737526D01*
X187372702Y-92735345D01*
X187372704Y-92735345D01*
X187526998Y-92683868D01*
X187533946Y-92681550D01*
X187684348Y-92588478D01*
X187809305Y-92463303D01*
X187853040Y-92392352D01*
X187905811Y-92344860D01*
X187975883Y-92333436D01*
X188041006Y-92361710D01*
X188067443Y-92392166D01*
X188108063Y-92457807D01*
X188117099Y-92469208D01*
X188231829Y-92583739D01*
X188243240Y-92592751D01*
X188381243Y-92677816D01*
X188394424Y-92683963D01*
X188548710Y-92735138D01*
X188562086Y-92738005D01*
X188656438Y-92747672D01*
X188662854Y-92748000D01*
X189487885Y-92748000D01*
X189503124Y-92743525D01*
X189504329Y-92742135D01*
X189506000Y-92734452D01*
X189506000Y-92729884D01*
X190014000Y-92729884D01*
X190018475Y-92745123D01*
X190019865Y-92746328D01*
X190027548Y-92747999D01*
X190857095Y-92747999D01*
X190863614Y-92747662D01*
X190959206Y-92737743D01*
X190972600Y-92734851D01*
X191126784Y-92683412D01*
X191139962Y-92677239D01*
X191277807Y-92591937D01*
X191289208Y-92582901D01*
X191403739Y-92468171D01*
X191412751Y-92456760D01*
X191497816Y-92318757D01*
X191503963Y-92305576D01*
X191555138Y-92151290D01*
X191558005Y-92137914D01*
X191558089Y-92137095D01*
X195387001Y-92137095D01*
X195387338Y-92143614D01*
X195397257Y-92239206D01*
X195400149Y-92252600D01*
X195451588Y-92406784D01*
X195457761Y-92419962D01*
X195543063Y-92557807D01*
X195552099Y-92569208D01*
X195666829Y-92683739D01*
X195678240Y-92692751D01*
X195816243Y-92777816D01*
X195829424Y-92783963D01*
X195983710Y-92835138D01*
X195997086Y-92838005D01*
X196091438Y-92847672D01*
X196097854Y-92848000D01*
X196285385Y-92848000D01*
X196300624Y-92843525D01*
X196301829Y-92842135D01*
X196303500Y-92834452D01*
X196303500Y-91712115D01*
X196299025Y-91696876D01*
X196297635Y-91695671D01*
X196289952Y-91694000D01*
X195405116Y-91694000D01*
X195389877Y-91698475D01*
X195388672Y-91699865D01*
X195387001Y-91707548D01*
X195387001Y-92137095D01*
X191558089Y-92137095D01*
X191567672Y-92043562D01*
X191568000Y-92037146D01*
X191568000Y-91712115D01*
X191563525Y-91696876D01*
X191562135Y-91695671D01*
X191554452Y-91694000D01*
X190032115Y-91694000D01*
X190016876Y-91698475D01*
X190015671Y-91699865D01*
X190014000Y-91707548D01*
X190014000Y-92729884D01*
X189506000Y-92729884D01*
X189506000Y-91167885D01*
X190014000Y-91167885D01*
X190018475Y-91183124D01*
X190019865Y-91184329D01*
X190027548Y-91186000D01*
X191549884Y-91186000D01*
X191565123Y-91181525D01*
X191566328Y-91180135D01*
X191567999Y-91172452D01*
X191567999Y-91167885D01*
X195387000Y-91167885D01*
X195391475Y-91183124D01*
X195392865Y-91184329D01*
X195400548Y-91186000D01*
X196285385Y-91186000D01*
X196300624Y-91181525D01*
X196301829Y-91180135D01*
X196303500Y-91172452D01*
X196303500Y-91167885D01*
X196811500Y-91167885D01*
X196815975Y-91183124D01*
X196817365Y-91184329D01*
X196825048Y-91186000D01*
X197709884Y-91186000D01*
X197725123Y-91181525D01*
X197726328Y-91180135D01*
X197727999Y-91172452D01*
X197727999Y-90742905D01*
X197727662Y-90736386D01*
X197717743Y-90640794D01*
X197714851Y-90627400D01*
X197663412Y-90473216D01*
X197657239Y-90460038D01*
X197571937Y-90322193D01*
X197562901Y-90310792D01*
X197448171Y-90196261D01*
X197436760Y-90187249D01*
X197298757Y-90102184D01*
X197285576Y-90096037D01*
X197131290Y-90044862D01*
X197117914Y-90041995D01*
X197023562Y-90032328D01*
X197017145Y-90032000D01*
X196829615Y-90032000D01*
X196814376Y-90036475D01*
X196813171Y-90037865D01*
X196811500Y-90045548D01*
X196811500Y-91167885D01*
X196303500Y-91167885D01*
X196303500Y-90050116D01*
X196299025Y-90034877D01*
X196297635Y-90033672D01*
X196289952Y-90032001D01*
X196097905Y-90032001D01*
X196091386Y-90032338D01*
X195995794Y-90042257D01*
X195982400Y-90045149D01*
X195828216Y-90096588D01*
X195815038Y-90102761D01*
X195677193Y-90188063D01*
X195665792Y-90197099D01*
X195551261Y-90311829D01*
X195542249Y-90323240D01*
X195457184Y-90461243D01*
X195451037Y-90474424D01*
X195399862Y-90628710D01*
X195396995Y-90642086D01*
X195387328Y-90736438D01*
X195387000Y-90742855D01*
X195387000Y-91167885D01*
X191567999Y-91167885D01*
X191567999Y-90842905D01*
X191567662Y-90836386D01*
X191557743Y-90740794D01*
X191554851Y-90727400D01*
X191503412Y-90573216D01*
X191497239Y-90560038D01*
X191411937Y-90422193D01*
X191402901Y-90410792D01*
X191288171Y-90296261D01*
X191276760Y-90287249D01*
X191138757Y-90202184D01*
X191125576Y-90196037D01*
X190971290Y-90144862D01*
X190957914Y-90141995D01*
X190863562Y-90132328D01*
X190857145Y-90132000D01*
X190032115Y-90132000D01*
X190016876Y-90136475D01*
X190015671Y-90137865D01*
X190014000Y-90145548D01*
X190014000Y-91167885D01*
X189506000Y-91167885D01*
X189506000Y-90150116D01*
X189501525Y-90134877D01*
X189500135Y-90133672D01*
X189492452Y-90132001D01*
X188662905Y-90132001D01*
X188656386Y-90132338D01*
X188560794Y-90142257D01*
X188547400Y-90145149D01*
X188393216Y-90196588D01*
X188380038Y-90202761D01*
X188242193Y-90288063D01*
X188230792Y-90297099D01*
X188116261Y-90411829D01*
X188107249Y-90423240D01*
X188067549Y-90487646D01*
X188014777Y-90535139D01*
X187944706Y-90546563D01*
X187879582Y-90518289D01*
X187853145Y-90487833D01*
X187835813Y-90459824D01*
X187808478Y-90415652D01*
X187683303Y-90290695D01*
X187677072Y-90286854D01*
X187538968Y-90201725D01*
X187538966Y-90201724D01*
X187532738Y-90197885D01*
X187452995Y-90171436D01*
X187371389Y-90144368D01*
X187371387Y-90144368D01*
X187364861Y-90142203D01*
X187358025Y-90141503D01*
X187358022Y-90141502D01*
X187314969Y-90137091D01*
X187260400Y-90131500D01*
X185059600Y-90131500D01*
X185056354Y-90131837D01*
X185056350Y-90131837D01*
X184960692Y-90141762D01*
X184960688Y-90141763D01*
X184953834Y-90142474D01*
X184947298Y-90144655D01*
X184947296Y-90144655D01*
X184930928Y-90150116D01*
X184786054Y-90198450D01*
X184635652Y-90291522D01*
X184510695Y-90416697D01*
X184506855Y-90422927D01*
X184506854Y-90422928D01*
X184448073Y-90518289D01*
X184417885Y-90567262D01*
X184362203Y-90735139D01*
X184351500Y-90839600D01*
X184351500Y-92040400D01*
X184351837Y-92043646D01*
X184351837Y-92043650D01*
X184361618Y-92137914D01*
X184362474Y-92146166D01*
X184364654Y-92152700D01*
X184364655Y-92152705D01*
X184386718Y-92218835D01*
X184389302Y-92289785D01*
X184356289Y-92347806D01*
X183122747Y-93581348D01*
X183114461Y-93588888D01*
X183107982Y-93593000D01*
X183102557Y-93598777D01*
X183061357Y-93642651D01*
X183058602Y-93645493D01*
X183038865Y-93665230D01*
X183036385Y-93668427D01*
X183028682Y-93677447D01*
X182998414Y-93709679D01*
X182994595Y-93716625D01*
X182994593Y-93716628D01*
X182988652Y-93727434D01*
X182977801Y-93743953D01*
X182965386Y-93759959D01*
X182962241Y-93767228D01*
X182962238Y-93767232D01*
X182947826Y-93800537D01*
X182942609Y-93811187D01*
X182921305Y-93849940D01*
X182919334Y-93857615D01*
X182919334Y-93857616D01*
X182916267Y-93869562D01*
X182909863Y-93888266D01*
X182901819Y-93906855D01*
X182900580Y-93914678D01*
X182900577Y-93914688D01*
X182894901Y-93950524D01*
X182892495Y-93962144D01*
X182888972Y-93975866D01*
X182881500Y-94004970D01*
X182881500Y-94025224D01*
X182879949Y-94044934D01*
X182876780Y-94064943D01*
X182877526Y-94072835D01*
X182880941Y-94108961D01*
X182881500Y-94120819D01*
X182881500Y-95488852D01*
X182861498Y-95556973D01*
X182807842Y-95603466D01*
X182781701Y-95612098D01*
X182597712Y-95651206D01*
X182591682Y-95653891D01*
X182591681Y-95653891D01*
X182429278Y-95726197D01*
X182429276Y-95726198D01*
X182423248Y-95728882D01*
X182268747Y-95841134D01*
X182264326Y-95846044D01*
X182264325Y-95846045D01*
X182161848Y-95959858D01*
X182140960Y-95983056D01*
X182137659Y-95988774D01*
X182051859Y-96137384D01*
X182045473Y-96148444D01*
X181986458Y-96330072D01*
X181985768Y-96336633D01*
X181985768Y-96336635D01*
X181979505Y-96396223D01*
X181966496Y-96520000D01*
X181967186Y-96526565D01*
X181985761Y-96703292D01*
X181986458Y-96709928D01*
X182045473Y-96891556D01*
X182048776Y-96897278D01*
X182048777Y-96897279D01*
X182064417Y-96924368D01*
X182140960Y-97056944D01*
X182268747Y-97198866D01*
X182423248Y-97311118D01*
X182429276Y-97313802D01*
X182429278Y-97313803D01*
X182504429Y-97347262D01*
X182597712Y-97388794D01*
X182781698Y-97427902D01*
X182844170Y-97461629D01*
X182878492Y-97523779D01*
X182881500Y-97551148D01*
X182881500Y-97601776D01*
X182861498Y-97669897D01*
X182807842Y-97716390D01*
X182737568Y-97726494D01*
X182691364Y-97710231D01*
X182658601Y-97690855D01*
X182650990Y-97688644D01*
X182650988Y-97688643D01*
X182563142Y-97663122D01*
X182498831Y-97644438D01*
X182492426Y-97643934D01*
X182492421Y-97643933D01*
X182463958Y-97641693D01*
X182463950Y-97641693D01*
X182461502Y-97641500D01*
X182086345Y-97641500D01*
X182018224Y-97621498D01*
X181997250Y-97604595D01*
X175465405Y-91072749D01*
X175431379Y-91010437D01*
X175428500Y-90983654D01*
X175428500Y-90764600D01*
X175425578Y-90736438D01*
X175418238Y-90665692D01*
X175418237Y-90665688D01*
X175417526Y-90658834D01*
X175411939Y-90642086D01*
X175363868Y-90498002D01*
X175361550Y-90491054D01*
X175268478Y-90340652D01*
X175143303Y-90215695D01*
X175137072Y-90211854D01*
X174998968Y-90126725D01*
X174998966Y-90126724D01*
X174992738Y-90122885D01*
X174832254Y-90069655D01*
X174831389Y-90069368D01*
X174831387Y-90069368D01*
X174824861Y-90067203D01*
X174818025Y-90066503D01*
X174818022Y-90066502D01*
X174774969Y-90062091D01*
X174720400Y-90056500D01*
X173834595Y-90056500D01*
X173766474Y-90036498D01*
X173745500Y-90019595D01*
X172233652Y-88507747D01*
X172226112Y-88499461D01*
X172222000Y-88492982D01*
X172172348Y-88446356D01*
X172169507Y-88443602D01*
X172149770Y-88423865D01*
X172146573Y-88421385D01*
X172137551Y-88413680D01*
X172124122Y-88401069D01*
X172105321Y-88383414D01*
X172098375Y-88379595D01*
X172098372Y-88379593D01*
X172087566Y-88373652D01*
X172071047Y-88362801D01*
X172070583Y-88362441D01*
X172055041Y-88350386D01*
X172047772Y-88347241D01*
X172047768Y-88347238D01*
X172014463Y-88332826D01*
X172003813Y-88327609D01*
X171965060Y-88306305D01*
X171945437Y-88301267D01*
X171926734Y-88294863D01*
X171915420Y-88289967D01*
X171915419Y-88289967D01*
X171908145Y-88286819D01*
X171900322Y-88285580D01*
X171900312Y-88285577D01*
X171864476Y-88279901D01*
X171852856Y-88277495D01*
X171817711Y-88268472D01*
X171817710Y-88268472D01*
X171810030Y-88266500D01*
X171789776Y-88266500D01*
X171770065Y-88264949D01*
X171757886Y-88263020D01*
X171750057Y-88261780D01*
X171720786Y-88264547D01*
X171706039Y-88265941D01*
X171694181Y-88266500D01*
X168708767Y-88266500D01*
X168697584Y-88265973D01*
X168690091Y-88264298D01*
X168682165Y-88264547D01*
X168682164Y-88264547D01*
X168622001Y-88266438D01*
X168618043Y-88266500D01*
X168590144Y-88266500D01*
X168586154Y-88267004D01*
X168574320Y-88267936D01*
X168530111Y-88269326D01*
X168522497Y-88271538D01*
X168522492Y-88271539D01*
X168510659Y-88274977D01*
X168491296Y-88278988D01*
X168471203Y-88281526D01*
X168463836Y-88284443D01*
X168463831Y-88284444D01*
X168430092Y-88297802D01*
X168418865Y-88301646D01*
X168376407Y-88313982D01*
X168369581Y-88318019D01*
X168358972Y-88324293D01*
X168341224Y-88332988D01*
X168322383Y-88340448D01*
X168315967Y-88345110D01*
X168315966Y-88345110D01*
X168286613Y-88366436D01*
X168276693Y-88372952D01*
X168245465Y-88391420D01*
X168245462Y-88391422D01*
X168238638Y-88395458D01*
X168224317Y-88409779D01*
X168209284Y-88422619D01*
X168192893Y-88434528D01*
X168184217Y-88445016D01*
X168164702Y-88468605D01*
X168156712Y-88477384D01*
X165399500Y-91234595D01*
X165337188Y-91268621D01*
X165310405Y-91271500D01*
X164424600Y-91271500D01*
X164421354Y-91271837D01*
X164421350Y-91271837D01*
X164325692Y-91281762D01*
X164325688Y-91281763D01*
X164318834Y-91282474D01*
X164312298Y-91284655D01*
X164312296Y-91284655D01*
X164180194Y-91328728D01*
X164151054Y-91338450D01*
X164000652Y-91431522D01*
X163875695Y-91556697D01*
X163871855Y-91562927D01*
X163871854Y-91562928D01*
X163787445Y-91699865D01*
X163782885Y-91707262D01*
X163727203Y-91875139D01*
X163716500Y-91979600D01*
X163716500Y-92880400D01*
X163716837Y-92883646D01*
X163716837Y-92883650D01*
X163726156Y-92973462D01*
X163727474Y-92986166D01*
X163729655Y-92992702D01*
X163729655Y-92992704D01*
X163745682Y-93040742D01*
X163783450Y-93153946D01*
X163876522Y-93304348D01*
X164001697Y-93429305D01*
X164007927Y-93433145D01*
X164007928Y-93433146D01*
X164145090Y-93517694D01*
X164152262Y-93522115D01*
X164232005Y-93548564D01*
X164313611Y-93575632D01*
X164313613Y-93575632D01*
X164320139Y-93577797D01*
X164326975Y-93578497D01*
X164326978Y-93578498D01*
X164370031Y-93582909D01*
X164424600Y-93588500D01*
X165775400Y-93588500D01*
X165778646Y-93588163D01*
X165778650Y-93588163D01*
X165874308Y-93578238D01*
X165874312Y-93578237D01*
X165881166Y-93577526D01*
X165887702Y-93575345D01*
X165887704Y-93575345D01*
X166019806Y-93531272D01*
X166048946Y-93521550D01*
X166199348Y-93428478D01*
X166324305Y-93303303D01*
X166417115Y-93152738D01*
X166472797Y-92984861D01*
X166483500Y-92880400D01*
X166483500Y-91994594D01*
X166503502Y-91926473D01*
X166520405Y-91905499D01*
X167686305Y-90739600D01*
X168855500Y-89570405D01*
X168917812Y-89536379D01*
X168944595Y-89533500D01*
X171415406Y-89533500D01*
X171483527Y-89553502D01*
X171504501Y-89570405D01*
X171782301Y-89848205D01*
X171816327Y-89910517D01*
X171811262Y-89981332D01*
X171768715Y-90038168D01*
X171702195Y-90062979D01*
X171680366Y-90062644D01*
X171620400Y-90056500D01*
X170719600Y-90056500D01*
X170716354Y-90056837D01*
X170716350Y-90056837D01*
X170620692Y-90066762D01*
X170620688Y-90066763D01*
X170613834Y-90067474D01*
X170607298Y-90069655D01*
X170607296Y-90069655D01*
X170509796Y-90102184D01*
X170446054Y-90123450D01*
X170295652Y-90216522D01*
X170170695Y-90341697D01*
X170166855Y-90347927D01*
X170166854Y-90347928D01*
X170088881Y-90474424D01*
X170077885Y-90492262D01*
X170022203Y-90660139D01*
X170011500Y-90764600D01*
X170011500Y-92115400D01*
X170011837Y-92118646D01*
X170011837Y-92118650D01*
X170018929Y-92186998D01*
X170022474Y-92221166D01*
X170024655Y-92227702D01*
X170024655Y-92227704D01*
X170045367Y-92289785D01*
X170078450Y-92388946D01*
X170171522Y-92539348D01*
X170296697Y-92664305D01*
X170302927Y-92668145D01*
X170302928Y-92668146D01*
X170440090Y-92752694D01*
X170447262Y-92757115D01*
X170509674Y-92777816D01*
X170608611Y-92810632D01*
X170608613Y-92810632D01*
X170615139Y-92812797D01*
X170621977Y-92813498D01*
X170621979Y-92813498D01*
X170658709Y-92817261D01*
X170703343Y-92821834D01*
X170769070Y-92848675D01*
X170809852Y-92906790D01*
X170816500Y-92947178D01*
X170816500Y-95200500D01*
X170796498Y-95268621D01*
X170742842Y-95315114D01*
X170690500Y-95326500D01*
X170511866Y-95326500D01*
X170449684Y-95333255D01*
X170313295Y-95384385D01*
X170196739Y-95471739D01*
X170109385Y-95588295D01*
X170058255Y-95724684D01*
X170051500Y-95786866D01*
X170051500Y-97883134D01*
X170058255Y-97945316D01*
X170109385Y-98081705D01*
X170196739Y-98198261D01*
X170313295Y-98285615D01*
X170449684Y-98336745D01*
X170511866Y-98343500D01*
X171281405Y-98343500D01*
X171349526Y-98363502D01*
X171396019Y-98417158D01*
X171406123Y-98487432D01*
X171376629Y-98552012D01*
X171370500Y-98558595D01*
X167512000Y-102417095D01*
X167449688Y-102451121D01*
X167422905Y-102454000D01*
X166558367Y-102454000D01*
X166490246Y-102433998D01*
X166443753Y-102380342D01*
X166438844Y-102367877D01*
X166418867Y-102307999D01*
X166418866Y-102307997D01*
X166416550Y-102301055D01*
X166373526Y-102231528D01*
X166327332Y-102156880D01*
X166323478Y-102150652D01*
X166284144Y-102111386D01*
X166203483Y-102030866D01*
X166198303Y-102025695D01*
X166182241Y-102015794D01*
X166053968Y-101936725D01*
X166053966Y-101936724D01*
X166047738Y-101932885D01*
X165887254Y-101879655D01*
X165886389Y-101879368D01*
X165886387Y-101879368D01*
X165879861Y-101877203D01*
X165873025Y-101876503D01*
X165873022Y-101876502D01*
X165829969Y-101872091D01*
X165775400Y-101866500D01*
X164424600Y-101866500D01*
X164421354Y-101866837D01*
X164421350Y-101866837D01*
X164325693Y-101876762D01*
X164325689Y-101876763D01*
X164318835Y-101877474D01*
X164312299Y-101879655D01*
X164312297Y-101879655D01*
X164180195Y-101923728D01*
X164151055Y-101933450D01*
X164000652Y-102026522D01*
X163875695Y-102151697D01*
X163871855Y-102157927D01*
X163871854Y-102157928D01*
X163788028Y-102293919D01*
X163782885Y-102302262D01*
X163777786Y-102317635D01*
X163751758Y-102396109D01*
X163727203Y-102470139D01*
X163716500Y-102574600D01*
X163716500Y-103600400D01*
X163716837Y-103603646D01*
X163716837Y-103603650D01*
X163725161Y-103683868D01*
X163727474Y-103706165D01*
X163729655Y-103712701D01*
X163729655Y-103712703D01*
X163753911Y-103785405D01*
X163783450Y-103873945D01*
X163876522Y-104024348D01*
X164001697Y-104149305D01*
X164007927Y-104153145D01*
X164007928Y-104153146D01*
X164145090Y-104237694D01*
X164152262Y-104242115D01*
X164232005Y-104268564D01*
X164313611Y-104295632D01*
X164313613Y-104295632D01*
X164320139Y-104297797D01*
X164326977Y-104298498D01*
X164326979Y-104298498D01*
X164353342Y-104301199D01*
X164419070Y-104328040D01*
X164459852Y-104386155D01*
X164466500Y-104426543D01*
X164466500Y-108933550D01*
X164446498Y-109001671D01*
X164392842Y-109048164D01*
X164353504Y-109058877D01*
X164347220Y-109059529D01*
X164325694Y-109061762D01*
X164325691Y-109061763D01*
X164318835Y-109062474D01*
X164312299Y-109064655D01*
X164312297Y-109064655D01*
X164274060Y-109077412D01*
X164151055Y-109118450D01*
X164000652Y-109211522D01*
X163875695Y-109336697D01*
X163871855Y-109342927D01*
X163871854Y-109342928D01*
X163804702Y-109451869D01*
X163782885Y-109487262D01*
X163727203Y-109655139D01*
X163716500Y-109759600D01*
X163716500Y-110785400D01*
X160528500Y-110785400D01*
X160528500Y-100625400D01*
X163716500Y-100625400D01*
X163716837Y-100628646D01*
X163716837Y-100628650D01*
X163723148Y-100689469D01*
X163727474Y-100731165D01*
X163783450Y-100898945D01*
X163876522Y-101049348D01*
X164001697Y-101174305D01*
X164007927Y-101178145D01*
X164007928Y-101178146D01*
X164145090Y-101262694D01*
X164152262Y-101267115D01*
X164232005Y-101293564D01*
X164313611Y-101320632D01*
X164313613Y-101320632D01*
X164320139Y-101322797D01*
X164326975Y-101323497D01*
X164326978Y-101323498D01*
X164370031Y-101327909D01*
X164424600Y-101333500D01*
X165775400Y-101333500D01*
X165778646Y-101333163D01*
X165778650Y-101333163D01*
X165874307Y-101323238D01*
X165874311Y-101323237D01*
X165881165Y-101322526D01*
X165887701Y-101320345D01*
X165887703Y-101320345D01*
X166019805Y-101276272D01*
X166048945Y-101266550D01*
X166199348Y-101173478D01*
X166324305Y-101048303D01*
X166353299Y-101001267D01*
X166413275Y-100903968D01*
X166413276Y-100903966D01*
X166417115Y-100897738D01*
X166443564Y-100817995D01*
X166470632Y-100736389D01*
X166470632Y-100736387D01*
X166472797Y-100729861D01*
X166483500Y-100625400D01*
X166483500Y-99599600D01*
X166483163Y-99596350D01*
X166473238Y-99500693D01*
X166473237Y-99500689D01*
X166472526Y-99493835D01*
X166416550Y-99326055D01*
X166323478Y-99175652D01*
X166198303Y-99050695D01*
X166192072Y-99046854D01*
X166053968Y-98961725D01*
X166053966Y-98961724D01*
X166047738Y-98957885D01*
X165887254Y-98904655D01*
X165886389Y-98904368D01*
X165886387Y-98904368D01*
X165879861Y-98902203D01*
X165873023Y-98901502D01*
X165873021Y-98901502D01*
X165846658Y-98898801D01*
X165780930Y-98871960D01*
X165740148Y-98813845D01*
X165733500Y-98773457D01*
X165733500Y-96806450D01*
X165753502Y-96738329D01*
X165807158Y-96691836D01*
X165846496Y-96681123D01*
X165854135Y-96680331D01*
X165874308Y-96678238D01*
X165874312Y-96678237D01*
X165881166Y-96677526D01*
X165887702Y-96675345D01*
X165887704Y-96675345D01*
X166019806Y-96631272D01*
X166048946Y-96621550D01*
X166199348Y-96528478D01*
X166324305Y-96403303D01*
X166356594Y-96350921D01*
X166413275Y-96258968D01*
X166413276Y-96258966D01*
X166417115Y-96252738D01*
X166458323Y-96128500D01*
X166470632Y-96091389D01*
X166470632Y-96091387D01*
X166472797Y-96084861D01*
X166475186Y-96061550D01*
X166482642Y-95988774D01*
X166483500Y-95980400D01*
X166483500Y-95079600D01*
X166483163Y-95076350D01*
X166473238Y-94980692D01*
X166473237Y-94980688D01*
X166472526Y-94973834D01*
X166466566Y-94955968D01*
X166418868Y-94813002D01*
X166416550Y-94806054D01*
X166323478Y-94655652D01*
X166198303Y-94530695D01*
X166175116Y-94516402D01*
X166053968Y-94441725D01*
X166053966Y-94441724D01*
X166047738Y-94437885D01*
X165887254Y-94384655D01*
X165886389Y-94384368D01*
X165886387Y-94384368D01*
X165879861Y-94382203D01*
X165873025Y-94381503D01*
X165873022Y-94381502D01*
X165829969Y-94377091D01*
X165775400Y-94371500D01*
X164424600Y-94371500D01*
X164421354Y-94371837D01*
X164421350Y-94371837D01*
X164325692Y-94381762D01*
X164325688Y-94381763D01*
X164318834Y-94382474D01*
X164312298Y-94384655D01*
X164312296Y-94384655D01*
X164267519Y-94399594D01*
X164151054Y-94438450D01*
X164000652Y-94531522D01*
X163875695Y-94656697D01*
X163782885Y-94807262D01*
X163727203Y-94975139D01*
X163726503Y-94981975D01*
X163726502Y-94981978D01*
X163724761Y-94998968D01*
X163716500Y-95079600D01*
X163716500Y-95980400D01*
X163716837Y-95983646D01*
X163716837Y-95983650D01*
X163724520Y-96057694D01*
X163727474Y-96086166D01*
X163729655Y-96092702D01*
X163729655Y-96092704D01*
X163749438Y-96152001D01*
X163783450Y-96253946D01*
X163876522Y-96404348D01*
X164001697Y-96529305D01*
X164007927Y-96533145D01*
X164007928Y-96533146D01*
X164145090Y-96617694D01*
X164152262Y-96622115D01*
X164232005Y-96648564D01*
X164313611Y-96675632D01*
X164313613Y-96675632D01*
X164320139Y-96677797D01*
X164326977Y-96678498D01*
X164326979Y-96678498D01*
X164353342Y-96681199D01*
X164419070Y-96708040D01*
X164459852Y-96766155D01*
X164466500Y-96806543D01*
X164466500Y-98773550D01*
X164446498Y-98841671D01*
X164392842Y-98888164D01*
X164353504Y-98898877D01*
X164347220Y-98899529D01*
X164325694Y-98901762D01*
X164325691Y-98901763D01*
X164318835Y-98902474D01*
X164312299Y-98904655D01*
X164312297Y-98904655D01*
X164215132Y-98937072D01*
X164151055Y-98958450D01*
X164000652Y-99051522D01*
X163995479Y-99056704D01*
X163988062Y-99064134D01*
X163875695Y-99176697D01*
X163871855Y-99182927D01*
X163871854Y-99182928D01*
X163795896Y-99306155D01*
X163782885Y-99327262D01*
X163727203Y-99495139D01*
X163716500Y-99599600D01*
X163716500Y-100625400D01*
X160528500Y-100625400D01*
X160528500Y-86289733D01*
X163087822Y-86289733D01*
X163097625Y-86570458D01*
X163098387Y-86574781D01*
X163098388Y-86574788D01*
X163122164Y-86709624D01*
X163146402Y-86847087D01*
X163233203Y-87114235D01*
X163356340Y-87366702D01*
X163358795Y-87370341D01*
X163358798Y-87370347D01*
X163431890Y-87478710D01*
X163513415Y-87599576D01*
X163701371Y-87808322D01*
X163916550Y-87988879D01*
X164154764Y-88137731D01*
X164411375Y-88251982D01*
X164681390Y-88329407D01*
X164685740Y-88330018D01*
X164685743Y-88330019D01*
X164739195Y-88337531D01*
X164959552Y-88368500D01*
X165170146Y-88368500D01*
X165172332Y-88368347D01*
X165172336Y-88368347D01*
X165375827Y-88354118D01*
X165375832Y-88354117D01*
X165380212Y-88353811D01*
X165654970Y-88295409D01*
X165659099Y-88293906D01*
X165659103Y-88293905D01*
X165914781Y-88200846D01*
X165914785Y-88200844D01*
X165918926Y-88199337D01*
X166166942Y-88067464D01*
X166271896Y-87991211D01*
X166390629Y-87904947D01*
X166390632Y-87904944D01*
X166394192Y-87902358D01*
X166596252Y-87707231D01*
X166769188Y-87485882D01*
X166771384Y-87482078D01*
X166771389Y-87482071D01*
X166907435Y-87246431D01*
X166909636Y-87242619D01*
X167014862Y-86982176D01*
X167048544Y-86847087D01*
X167081753Y-86713893D01*
X167081754Y-86713888D01*
X167082817Y-86709624D01*
X167112178Y-86430267D01*
X167107271Y-86289733D01*
X203727822Y-86289733D01*
X203737625Y-86570458D01*
X203738387Y-86574781D01*
X203738388Y-86574788D01*
X203762164Y-86709624D01*
X203786402Y-86847087D01*
X203873203Y-87114235D01*
X203996340Y-87366702D01*
X203998795Y-87370341D01*
X203998798Y-87370347D01*
X204071890Y-87478710D01*
X204153415Y-87599576D01*
X204341371Y-87808322D01*
X204556550Y-87988879D01*
X204794764Y-88137731D01*
X205051375Y-88251982D01*
X205321390Y-88329407D01*
X205325740Y-88330018D01*
X205325743Y-88330019D01*
X205379195Y-88337531D01*
X205599552Y-88368500D01*
X205810146Y-88368500D01*
X205812332Y-88368347D01*
X205812336Y-88368347D01*
X206015827Y-88354118D01*
X206015832Y-88354117D01*
X206020212Y-88353811D01*
X206294970Y-88295409D01*
X206299099Y-88293906D01*
X206299103Y-88293905D01*
X206554781Y-88200846D01*
X206554785Y-88200844D01*
X206558926Y-88199337D01*
X206806942Y-88067464D01*
X206911896Y-87991211D01*
X207030629Y-87904947D01*
X207030632Y-87904944D01*
X207034192Y-87902358D01*
X207236252Y-87707231D01*
X207409188Y-87485882D01*
X207411384Y-87482078D01*
X207411389Y-87482071D01*
X207547435Y-87246431D01*
X207549636Y-87242619D01*
X207654862Y-86982176D01*
X207688544Y-86847087D01*
X207721753Y-86713893D01*
X207721754Y-86713888D01*
X207722817Y-86709624D01*
X207752178Y-86430267D01*
X207742375Y-86149542D01*
X207718608Y-86014749D01*
X207694360Y-85877236D01*
X207693598Y-85872913D01*
X207606797Y-85605765D01*
X207483660Y-85353298D01*
X207481205Y-85349659D01*
X207481202Y-85349653D01*
X207400935Y-85230653D01*
X207326585Y-85120424D01*
X207138629Y-84911678D01*
X206923450Y-84731121D01*
X206685236Y-84582269D01*
X206428625Y-84468018D01*
X206158610Y-84390593D01*
X206154260Y-84389982D01*
X206154257Y-84389981D01*
X206051310Y-84375513D01*
X205880448Y-84351500D01*
X205669854Y-84351500D01*
X205667668Y-84351653D01*
X205667664Y-84351653D01*
X205464173Y-84365882D01*
X205464168Y-84365883D01*
X205459788Y-84366189D01*
X205185030Y-84424591D01*
X205180901Y-84426094D01*
X205180897Y-84426095D01*
X204925219Y-84519154D01*
X204925215Y-84519156D01*
X204921074Y-84520663D01*
X204673058Y-84652536D01*
X204669499Y-84655122D01*
X204669497Y-84655123D01*
X204564895Y-84731121D01*
X204445808Y-84817642D01*
X204243748Y-85012769D01*
X204070812Y-85234118D01*
X204068616Y-85237922D01*
X204068611Y-85237929D01*
X203954794Y-85435068D01*
X203930364Y-85477381D01*
X203825138Y-85737824D01*
X203824073Y-85742097D01*
X203824072Y-85742099D01*
X203790379Y-85877236D01*
X203757183Y-86010376D01*
X203727822Y-86289733D01*
X167107271Y-86289733D01*
X167102375Y-86149542D01*
X167078608Y-86014749D01*
X167054360Y-85877236D01*
X167053598Y-85872913D01*
X166966797Y-85605765D01*
X166843660Y-85353298D01*
X166841205Y-85349659D01*
X166841202Y-85349653D01*
X166760935Y-85230653D01*
X166686585Y-85120424D01*
X166498629Y-84911678D01*
X166283450Y-84731121D01*
X166045236Y-84582269D01*
X165788625Y-84468018D01*
X165518610Y-84390593D01*
X165514260Y-84389982D01*
X165514257Y-84389981D01*
X165411310Y-84375513D01*
X165240448Y-84351500D01*
X165029854Y-84351500D01*
X165027668Y-84351653D01*
X165027664Y-84351653D01*
X164824173Y-84365882D01*
X164824168Y-84365883D01*
X164819788Y-84366189D01*
X164545030Y-84424591D01*
X164540901Y-84426094D01*
X164540897Y-84426095D01*
X164285219Y-84519154D01*
X164285215Y-84519156D01*
X164281074Y-84520663D01*
X164033058Y-84652536D01*
X164029499Y-84655122D01*
X164029497Y-84655123D01*
X163924895Y-84731121D01*
X163805808Y-84817642D01*
X163603748Y-85012769D01*
X163430812Y-85234118D01*
X163428616Y-85237922D01*
X163428611Y-85237929D01*
X163314794Y-85435068D01*
X163290364Y-85477381D01*
X163185138Y-85737824D01*
X163184073Y-85742097D01*
X163184072Y-85742099D01*
X163150379Y-85877236D01*
X163117183Y-86010376D01*
X163087822Y-86289733D01*
X160528500Y-86289733D01*
X160528500Y-81914500D01*
X160548502Y-81846379D01*
X160602158Y-81799886D01*
X160654500Y-81788500D01*
X210185500Y-81788500D01*
X210253621Y-81808502D01*
G37*
G04 #@! TD.AperFunction*
M02*
