G04 #@! TF.GenerationSoftware,KiCad,Pcbnew,(6.0.6)*
G04 #@! TF.CreationDate,2023-01-14T11:23:39-07:00*
G04 #@! TF.ProjectId,PFCBoard,50464342-6f61-4726-942e-6b696361645f,rev?*
G04 #@! TF.SameCoordinates,Original*
G04 #@! TF.FileFunction,Soldermask,Top*
G04 #@! TF.FilePolarity,Negative*
%FSLAX46Y46*%
G04 Gerber Fmt 4.6, Leading zero omitted, Abs format (unit mm)*
G04 Created by KiCad (PCBNEW (6.0.6)) date 2023-01-14 11:23:39*
%MOMM*%
%LPD*%
G01*
G04 APERTURE LIST*
G04 Aperture macros list*
%AMRoundRect*
0 Rectangle with rounded corners*
0 $1 Rounding radius*
0 $2 $3 $4 $5 $6 $7 $8 $9 X,Y pos of 4 corners*
0 Add a 4 corners polygon primitive as box body*
4,1,4,$2,$3,$4,$5,$6,$7,$8,$9,$2,$3,0*
0 Add four circle primitives for the rounded corners*
1,1,$1+$1,$2,$3*
1,1,$1+$1,$4,$5*
1,1,$1+$1,$6,$7*
1,1,$1+$1,$8,$9*
0 Add four rect primitives between the rounded corners*
20,1,$1+$1,$2,$3,$4,$5,0*
20,1,$1+$1,$4,$5,$6,$7,0*
20,1,$1+$1,$6,$7,$8,$9,0*
20,1,$1+$1,$8,$9,$2,$3,0*%
%AMFreePoly0*
4,1,9,3.862500,-0.866500,0.737500,-0.866500,0.737500,-0.450000,-0.737500,-0.450000,-0.737500,0.450000,0.737500,0.450000,0.737500,0.866500,3.862500,0.866500,3.862500,-0.866500,3.862500,-0.866500,$1*%
G04 Aperture macros list end*
%ADD10C,3.000000*%
%ADD11R,1.500000X1.000000*%
%ADD12RoundRect,0.250000X0.412500X0.650000X-0.412500X0.650000X-0.412500X-0.650000X0.412500X-0.650000X0*%
%ADD13RoundRect,0.250000X-0.625000X0.400000X-0.625000X-0.400000X0.625000X-0.400000X0.625000X0.400000X0*%
%ADD14RoundRect,0.250000X0.650000X-0.412500X0.650000X0.412500X-0.650000X0.412500X-0.650000X-0.412500X0*%
%ADD15R,1.200000X1.200000*%
%ADD16R,1.600000X1.500000*%
%ADD17RoundRect,0.250000X-1.050000X-0.550000X1.050000X-0.550000X1.050000X0.550000X-1.050000X0.550000X0*%
%ADD18C,1.500000*%
%ADD19R,1.780000X2.000000*%
%ADD20RoundRect,0.250000X0.400000X0.625000X-0.400000X0.625000X-0.400000X-0.625000X0.400000X-0.625000X0*%
%ADD21RoundRect,0.250001X-0.624999X0.462499X-0.624999X-0.462499X0.624999X-0.462499X0.624999X0.462499X0*%
%ADD22RoundRect,0.250001X0.624999X-0.462499X0.624999X0.462499X-0.624999X0.462499X-0.624999X-0.462499X0*%
%ADD23RoundRect,0.150000X-0.150000X0.825000X-0.150000X-0.825000X0.150000X-0.825000X0.150000X0.825000X0*%
%ADD24R,1.300000X0.900000*%
%ADD25FreePoly0,0.000000*%
G04 APERTURE END LIST*
D10*
X205740000Y-127000000D03*
D11*
X205740000Y-110460000D03*
X205740000Y-111760000D03*
X205740000Y-113060000D03*
D12*
X199682500Y-91440000D03*
X196557500Y-91440000D03*
D13*
X165100000Y-117830000D03*
X165100000Y-120930000D03*
D10*
X165100000Y-127000000D03*
D13*
X165100000Y-92430000D03*
X165100000Y-95530000D03*
D10*
X205740000Y-86360000D03*
D14*
X195580000Y-105702500D03*
X195580000Y-102577500D03*
D15*
X186420000Y-117580000D03*
D16*
X185420000Y-120830000D03*
D15*
X184420000Y-117580000D03*
D17*
X186160000Y-91440000D03*
X189760000Y-91440000D03*
D18*
X195580000Y-119380000D03*
X199080000Y-119380000D03*
D19*
X173990000Y-96835000D03*
X171450000Y-96835000D03*
X171450000Y-106365000D03*
X173990000Y-106365000D03*
D10*
X165100000Y-86360000D03*
D13*
X193040000Y-94970000D03*
X193040000Y-98070000D03*
D20*
X174270000Y-91440000D03*
X171170000Y-91440000D03*
D21*
X165100000Y-100112500D03*
X165100000Y-103087500D03*
D22*
X165100000Y-113247500D03*
X165100000Y-110272500D03*
D13*
X190500000Y-102590000D03*
X190500000Y-105690000D03*
D18*
X175260000Y-119380000D03*
X178760000Y-119380000D03*
D23*
X184785000Y-99125000D03*
X183515000Y-99125000D03*
X182245000Y-99125000D03*
X180975000Y-99125000D03*
X180975000Y-104075000D03*
X182245000Y-104075000D03*
X183515000Y-104075000D03*
X184785000Y-104075000D03*
D11*
X205740000Y-93330000D03*
X205740000Y-94630000D03*
D12*
X186982500Y-111760000D03*
X183857500Y-111760000D03*
D24*
X201550000Y-100100000D03*
D25*
X201637500Y-101600000D03*
D24*
X201550000Y-103100000D03*
M02*
